<?xml version="1.0" encoding="utf-8"?>
<!-- Generator: Adobe Illustrator 25.3.1, SVG Export Plug-In . SVG Version: 6.00 Build 0)  -->
<svg version="1.1" id="Layer_1" xmlns="http://www.w3.org/2000/svg" xmlns:xlink="http://www.w3.org/1999/xlink" x="0px" y="0px"
	 viewBox="0 0 800 600" style="enable-background:new 0 0 800 600;" xml:space="preserve">
<style type="text/css">
	.st0{fill:#FFFFFF;}
</style>
<g>
	<path class="st0" d="M100,0c200,0,400,0,600,0c0,200,0,400,0,600c-200,0-400,0-600,0C100,400,100,200,100,0z M410,469.6
		c0,3.3-0.3,5.6,0.1,7.8c0.3,1.4,1.4,2.9,2.5,3.6c0.5,0.3,2.6-1,3.2-2c3.1-5.5,5.5-11.3,8.9-16.6c1.3-2.1,4.2-4,6.7-4.3
		c6.1-0.8,12.3-0.6,18.4-1c3.8-0.3,7.5-1,11.3-1.7c4.5-0.8,9-1.5,13.4-2.7c2-0.5,4.7-1.6,5.5-3.3c4.8-9.8,9.4-19.6,13.4-29.7
		c3.4-8.4,7.1-17,5.2-26.6c-0.1-0.6-0.1-1.6,0.3-1.9c5.1-4.1,10.2-8.1,15.5-12c0.4-0.3,2.4,0.8,2.7,1.6c1.2,3.5,2,7.1,3,10.7
		c1.1,0.1,2,0.1,3.2,0.2c-1.3,10.6,0.9,20.2,5.4,29.6c1.4-0.7,2.5-1.3,4.4-2.3c4.2,8,8.3,15.7,12.4,23.4c0.7-0.2,1.3-0.4,2-0.6
		c0.4-2.2,0.8-4.5,1.4-7.4c1.4,3.1,2.6,5.8,4.2,9.4c5-6,2-12.6,3.9-18.1c1.8,2,3.2,3.7,4.7,5.4c0.5-0.3,1-0.5,1.5-0.8
		c-0.7-6.1-1.5-12.1-1.9-18.2c-0.3-5.7-0.3-11.5-0.1-17.3c0.2-7.3,1.2-14.6,1-21.8c-0.5-12.7-0.3-25.2,3.6-37.6
		c1.6-5.1,1.4-10.8,1.4-16.2c0-6.1-0.8-12.3-1.3-18.4c-0.8-9.8-0.4-19.9-2.9-29.3c-3-11-7.9-21.8-13.4-31.8
		c-3.2-5.9-9-10.7-14.2-15.3c-10.8-9.5-30.1-3.8-34,10.2c-2.1,7.6-3.5,15.6,2.7,22.7c2,2.3,2.6,6,3.3,9.2c0.7,3,0.8,6.2,1.1,9.3
		c0,0.5-0.1,0.9-0.1,1.4c-1.1,0-2.1,0-2.8,0c-0.7,2.9-1.3,5.5-2,8c-1,3.4-3.5,7-3,10.2c1.5,9.7-0.8,17.3-10.1,23.2
		c-1.2-2.1-3.1-4-3.3-6.1c-0.7-6.4-0.7-12.9-0.9-19.4c-0.1-3.9-0.1-7.9-0.3-11.8c-0.1-2.1-0.7-4.3-0.7-6.4c0.1-6.5-2.6-12-6.5-16.9
		c-6.6-8.4-13.4-16.7-20.2-25.2c-10.6,2.2-10.6,2.2-9.8,7.7c-1.8-0.5-3.7-1.1-5.6-1.6c0.3,2.2,0.6,4.5,0.9,6.3
		c-1.3,0.8-2.8,1.8-4.3,2.8c0.2,0.5,0.3,1,0.5,1.5c2.7,0.5,5.4,0.9,8.2,1.4c6.7,1,11.2,3.9,14.2,10.7c3.7,8.5,7.4,16.7,5.2,26.2
		c-0.9,3.8-2.2,7.4-3.5,11.1c-0.4,1-1.4,1.9-2.1,2.8c-0.7-0.7-1.7-1.4-2.2-2.3c-1.3-2.6-2.2-5.2-6-4.8c-1.1,0.1-2.6-1-3.4-1.9
		c-3-4-5.9-3.3-9.9-1c-6.1,3.6-12.7,5-20.4,0.8c1.6,2.5,2.7,4.2,4,6.1c-4.1-1.5-7.8-2.6-11.4-4.2c-1.7-0.8-3.4-2.1-4.7-3.6
		c-4.9-5.6-9.3-11.6-14.4-17c-6.9-7.4-7.3-8.9-3.2-18.3c0.4-1,0.1-2.4,0.1-3.6c-1.4,0-3-0.5-4.1,0.1c-2,1.1-3.6,2.8-5.3,4.1
		c-2.6-1.5-3.3-6.4-7.3-3.2c-2.6,2.1-4.2,5.9-8.5,5.4c-0.3,0-1.2,2.2-1,3.2c0.4,1.5,1.5,2.8,2.6,4.7c-1.1-0.3-1.8-0.6-2.3-0.5
		c-1.5,0.3-2.9,0.9-4.3,1.3c0.8,1.3,1.3,3.2,2.4,3.8c3.1,1.6,6.4,2.5,9.7,3.8c1.2,0.5,2.7,0.8,3.2,1.8c2.4,4.1,4.4,8.5,6.9,12.6
		c1.9,3.1,4,6.2,6.6,8.7c8.6,7.9,17.4,15.4,26.5,23.5c-1.4-0.3-2.4-0.4-3-0.5c-0.4,2.7-0.7,5.1-1,7.7c0.9,0,2,0,2.7,0
		c-1.2,2.4-2.3,4.6-3.5,7.1c3,0.9,5,1.6,8.6,2.7c-5.6,2.8-8.5,7.3-14.4,6.9c-3.8-0.2-7.6,0.6-11.4,0.6c-5.6,0-11.8,1.1-16.7-0.9
		c-10.3-4.2-19.8-9.7-23.9-21.6c-2.1-6.2-7-11.8-13.8-12.8c-7.9-1.1-16.5-1.4-24.1,0.5c-4.2,1-7.2,7.2-10.7,11
		c-0.8,0.9-1.5,1.8-2.2,2.7c-14.4,19.7-27.5,40.1-33.4,64.3c-1.8,7.3-3,14.8-5.8,21.7c-10,23.9-11.5,49.3-14.1,75.2
		c2.4-3.9,4.7-6.3,8.9-8.1c8-3.4,17.1-6,22.5-13.9c0.5-0.7,1.6-1.1,2.5-1.5c9-4,15.1-10.6,19.1-19.5c1-2.3,2.6-4.7,4.6-6.2
		c3.3-2.4,7.6-3.6,10.6-6.2c5.2-4.6,9.6-10.2,14.8-14.8c2.7-2.4,7.8-6.1,9.5-5.1c4.5,2.5,7.1-0.4,9.7-2c4.4-2.7,8.9,0,13.1-1.3
		c0.3-0.1,0.8,0.9,1.4,1.1c1.3,0.7,2.8,2,4.1,1.8c5.4-0.8,11-1.3,15.9-3.2c7.4-2.9,14.8-4.7,22.6-3.8c3.6,0.4,7,1.9,10.6,3
		c0,0.1-0.3,0.9-0.7,2.2c3.7-0.4,6.9-0.7,11.6-1.1c-3.2,6-4.6,12.9-8.8,15.6c-10.5,7-15.6,16.6-17.7,28.3c-1,5.5-4.2,9.5-7.7,13
		c-6,6-11.9,11.7-13.8,20.6c-0.9,4.3-0.4,6.1,3.9,6.3c3.2,0.2,11.2-5.5,12.6-8.4C400.5,477.3,403.5,472.5,410,469.6z M620,264.9
		c0-29.6,0-58.6,0-88.1c5.5,15.3,10.8,30.4,16.2,45.4c1.1,3,3,6,2.9,8.9c-0.3,16.1,2.5,32.2-1.1,48.4c5.4,0,10.8,0,15.6,0
		c-0.3-7-0.9-13.7-0.9-20.5c-0.1-40.5-0.1-81,0-121.5c0-6.7,0.7-13.5,1.1-20.4c-4.7,0-10.1,0-14.9,0c0,22.7,0,45.2,0,67.6
		c-1.2-0.9-1.7-1.9-2-2.9c-3.7-10.2-7.4-20.3-11-30.5c-0.9-2.5-1.4-5.2-1.4-7.8c-0.2-8.7-0.1-17.5-0.1-26.3c-6.4,0-12.7,0-18.4,0
		c2.4,24.8,0.8,49.2,0.8,73.7c0,24.6,1.3,49.2-1.5,73.9C610.4,264.9,615.7,264.9,620,264.9z M208.9,117.5c1.2,48.9,1.6,98-0.2,147.2
		c15.2,1.9,22.5-1.8,29.9-15.6c1.3-2.3,2.5-4.7,3.4-7.2c6.4-18.6,12.9-37.1,18.8-55.8c4-12.3,7.8-24.8,10.5-37.4
		c3.9-18.6-3.9-29.4-22.6-30.9C235.1,116.6,221.4,117.5,208.9,117.5z M319.5,128.3c-17.7,46-34.6,90-51.7,134.5
		c31.6,0,62.6,0,93.7,0c-0.4-4,1.2-5.8,5.1-7.1c3.2-1,6.8-3.5,7.3-6.8c-28.7,3.7-57.2,0.7-86.4,1.9c17.2-45.2,34-89.3,50.9-133.6
		c-17.1,0-33.4,0-49.8,0c0,5,0,9.8,0,13.4C298.6,129.9,308.4,129.1,319.5,128.3z M386.6,116.9c0.6,5.5,1.5,10.6,1.5,15.7
		c0,37.1-0.1,74.3-0.2,111.4c0,2.5-0.3,4.7,2.9,6.1c3,1.3,2.9,4,1.4,6.8c-0.9,1.7-1.5,3.7-2.5,6.1c4,0,7,0,10,0c1,0,1.9-0.1,1.8-0.1
		c-1.7-37.9-0.4-75.6-0.5-112.9c1.1-0.5,1.4-0.8,1.7-0.8c7.5-0.1,15-0.1,22.5-0.2c9-0.1,13.7-4.7,14.2-13.8
		c0.6-10.6-4-17.9-12.7-18.2C413.2,116.5,399.7,116.9,386.6,116.9z M197,249.3c-10.2,3-36,4-45.1,1.9c0-1.9,0-3.9,0-5.8
		c0-34.6,0-69.3,0-103.9c0-8.1-1.5-16.3,3.3-24.2c-6.5,0-12.3,0-17.8,0c0.5,4.8,1.4,9.4,1.4,14c0.1,12.2,0,24.3-0.2,36.5
		c-0.5,32.4,1.1,64.7-1,96.9c19.4,0,39.2,0,59.3,0C197,259.3,197,254.5,197,249.3z M444.5,117.2c3.6,20.3,0.9,39.6,1.4,58.8
		c0.4,19.3,0.1,38.6,0.1,58.3c3.1-1.2,5.8-2.8,8.6-3.1c3.8-0.5,4.4-2.3,4.4-5.6c-0.1-19.5-0.1-39-0.1-58.5c0-5.6,0-11.2,0-17.8
		c9.3,0,17.9,0.2,26.5-0.1c2.5-0.1,5.5-1,7.2-2.7c5.8-5.3,5.1-12.2,3.6-19.1c-1.4-6.4-5.7-10-12-10.1
		C471,117,457.7,117.2,444.5,117.2z M357.2,138.1c0-3.1,0-5.4,0-9c5.5,0.9,10.8,1.8,16.1,2.7c0-4.7,0-9.6,0-14.5
		c-10.6,0-20.7,0-30.2,0c0.5,5.7,1.3,11.1,1.3,16.6c0.1,25-0.1,50-0.2,75c-0.1,9.2-0.3,18.5-0.5,27.7c9.5,0,20.3,0,31,0
		c0-5.2,0-10.1,0-14.6c-4.2,0.8-8,1.6-11.9,2.2c-4.1,0.7-5.8-0.7-5.8-5.4c0.3-20.8,0.1-41.7,0.1-62.5c0-1.6,0.2-3.2,0.4-5.8
		c8.6,0.8,16.8,1.6,24.8,2.3c0-4.4,0-9.4,0-14.8C373.9,138.1,365.8,138.1,357.2,138.1z M164.9,117.1c0.4,5.9,1.1,11.6,1.1,17.4
		c0.1,21.7,0,43.3-0.1,65c-0.1,12.4-0.3,24.7-0.4,37.1c9.6,0,20.3,0,31.1,0c0-5.3,0-10.1,0-14.3c-5.8,0.9-11.4,1.7-17.3,2.5
		c0-25.3,0-49.3,0-74.1c8.5,0.8,16.5,1.5,24.4,2.2c0-4.4,0-9.5,0-15c-8.5,0-16.6,0-24.5,0c0-3,0-5.4,0-9c5.7,1,10.9,2,16,3
		c0-4.9,0-9.7,0-14.7C184.6,117.1,174.4,117.1,164.9,117.1z M549.7,117.2c0.5,4.9,1.4,9.4,1.4,13.8c0,28.6-0.3,57.3-0.3,85.9
		c0,9.5-1.6,19.1,3.8,28.1c3.6,5.9,6,12.5,9.1,18.7c0.3,0.6,1.2,1.3,1.9,1.3c10.1,0.1,20.2,0.1,30.4,0.1c0-5.7,0-10.6,0-16.3
		c-10.5,6-21.3,2.6-32.3,3.1c0-2.7,0-4.6,0-6.6c0.1-34.5,0.3-68.9,0.4-103.4c0-8.2-1.6-16.6,3.4-24.7
		C561,117.2,555.2,117.2,549.7,117.2z M544.6,153.1c0-3.9,0-8.8,0-14.6c-9.6,0-19,0-28.4,0c0-3.3,0-5.7,0-9.3
		c6.1,0.8,11.8,1.6,17.3,2.4c0-4.5,0-9.4,0-14.4c-11,0-21.6,0-31.1,0c1.5,36.4-0.3,72.6,0.7,109.1c3.4-2.3,6.2-4.7,9.4-6.3
		c2.9-1.4,3.6-3.2,3.6-6.2c-0.1-16.8-0.1-33.6-0.1-50.5c0-3.8,0-7.5,0-12.3C526,151.8,535.2,152.5,544.6,153.1z M577.7,117.2
		c0.4,6.1,1.1,12.1,1.2,18c0.1,12.2,0.1,24.3-0.3,36.5c-0.7,21.4,1.9,42.8-1.3,64.2c5.3,0,10.7,0,14.8,0
		c-0.4-39.8-0.8-79.2,0.2-118.7C587.8,117.2,582.3,117.2,577.7,117.2z M263.1,206.4c6.1,0,12.1,0,18,0c0.9,0,2.3-0.5,2.5-1.1
		c2.1-5.1,4-10.3,6-15.7c-20.6-1.9-21.6-1.3-26.5,14.9C263,204.8,263.1,205.2,263.1,206.4z M459.7,263.3c-1.2-6.9-5.4-9.9-13.5-9.7
		c-0.6,3-1.3,6.2-2,9.7C449.5,263.3,454.4,263.3,459.7,263.3z"/>
	<path d="M410,469.6c-6.5,2.9-9.5,7.7-11.9,13c-1.3,2.9-9.4,8.6-12.6,8.4c-4.3-0.2-4.8-2-3.9-6.3c1.9-8.8,7.8-14.6,13.8-20.6
		c3.5-3.5,6.7-7.5,7.7-13c2.1-11.6,7.1-21.3,17.7-28.3c4.2-2.8,5.6-9.7,8.8-15.6c-4.7,0.4-7.9,0.7-11.6,1.1c0.4-1.3,0.7-2.1,0.7-2.2
		c-3.6-1-7.1-2.6-10.6-3c-7.8-0.8-15.2,1-22.6,3.8c-5,1.9-10.6,2.4-15.9,3.2c-1.3,0.2-2.8-1.1-4.1-1.8c-0.5-0.3-1.1-1.2-1.4-1.1
		c-4.3,1.3-8.7-1.4-13.1,1.3c-2.6,1.6-5.2,4.5-9.7,2c-1.8-1-6.8,2.7-9.5,5.1c-5.2,4.6-9.6,10.2-14.8,14.8c-3,2.6-7.3,3.8-10.6,6.2
		c-2,1.5-3.6,3.9-4.6,6.2c-4,8.9-10.2,15.5-19.1,19.5c-0.9,0.4-2,0.8-2.5,1.5c-5.4,7.9-14.5,10.5-22.5,13.9
		c-4.3,1.8-6.5,4.3-8.9,8.1c2.6-26,4.2-51.4,14.1-75.2c2.9-6.8,4-14.4,5.8-21.7c5.9-24.2,18.9-44.6,33.4-64.3
		c0.7-0.9,1.4-1.8,2.2-2.7c3.5-3.8,6.5-10,10.7-11c7.7-1.9,16.2-1.6,24.1-0.5c6.7,0.9,11.6,6.6,13.8,12.8
		c4.1,11.9,13.7,17.4,23.9,21.6c4.9,2,11.1,0.9,16.7,0.9c3.8,0,7.7-0.9,11.4-0.6c5.9,0.4,8.8-4.1,14.4-6.9c-3.5-1.1-5.6-1.7-8.6-2.7
		c1.2-2.5,2.3-4.7,3.5-7.1c-0.7,0-1.9,0-2.7,0c0.3-2.5,0.7-5,1-7.7c0.5,0.1,1.6,0.3,3,0.5c-9.1-8-18-15.6-26.5-23.5
		c-2.6-2.4-4.7-5.6-6.6-8.7c-2.5-4.1-4.4-8.5-6.9-12.6c-0.5-0.9-2.1-1.3-3.2-1.8c-3.2-1.3-6.6-2.2-9.7-3.8c-1.2-0.6-1.6-2.5-2.4-3.8
		c1.4-0.5,2.9-1,4.3-1.3c0.5-0.1,1.2,0.2,2.3,0.5c-1.1-1.9-2.2-3.2-2.6-4.7c-0.2-1,0.8-3.2,1-3.2c4.4,0.5,5.9-3.3,8.5-5.4
		c4-3.2,4.7,1.7,7.3,3.2c1.6-1.3,3.3-3,5.3-4.1c1.1-0.6,2.7-0.1,4.1-0.1c0,1.2,0.3,2.6-0.1,3.6c-4.1,9.5-3.7,11,3.2,18.3
		c5.1,5.4,9.5,11.4,14.4,17c1.3,1.5,2.9,2.8,4.7,3.6c3.6,1.6,7.3,2.7,11.4,4.2c-1.2-1.9-2.4-3.6-4-6.1c7.7,4.1,14.4,2.8,20.4-0.8
		c3.9-2.3,6.8-3,9.9,1c0.7,1,2.3,2,3.4,1.9c3.8-0.4,4.8,2.2,6,4.8c0.4,0.9,1.4,1.5,2.2,2.3c0.7-0.9,1.8-1.7,2.1-2.8
		c1.3-3.6,2.6-7.3,3.5-11.1c2.3-9.5-1.5-17.7-5.2-26.2c-2.9-6.8-7.5-9.7-14.2-10.7c-2.7-0.4-5.4-0.9-8.2-1.4c-0.2-0.5-0.3-1-0.5-1.5
		c1.5-1,3-2,4.3-2.8c-0.3-1.9-0.6-4.1-0.9-6.3c1.9,0.5,3.8,1.1,5.6,1.6c-0.8-5.6-0.8-5.6,9.8-7.7c6.9,8.5,13.6,16.8,20.2,25.2
		c3.9,4.9,6.6,10.3,6.5,16.9c0,2.1,0.6,4.3,0.7,6.4c0.2,3.9,0.2,7.9,0.3,11.8c0.2,6.5,0.2,12.9,0.9,19.4c0.2,2.1,2.2,4,3.3,6.1
		c9.3-5.9,11.6-13.5,10.1-23.2c-0.5-3.2,2-6.8,3-10.2c0.7-2.5,1.3-5.1,2-8c0.7,0,1.7,0,2.8,0c0-0.5,0.1-1,0.1-1.4
		c-0.3-3.1-0.4-6.3-1.1-9.3c-0.7-3.2-1.3-6.9-3.3-9.2c-6.3-7.1-4.8-15.2-2.7-22.7c3.9-14.1,23.1-19.8,34-10.2
		c5.2,4.6,10.9,9.4,14.2,15.3c5.5,10.1,10.4,20.8,13.4,31.8c2.5,9.3,2.1,19.5,2.9,29.3c0.5,6.1,1.3,12.3,1.3,18.4
		c0,5.4,0.2,11.2-1.4,16.2c-3.9,12.4-4.1,24.8-3.6,37.6c0.3,7.3-0.8,14.5-1,21.8c-0.2,5.8-0.2,11.5,0.1,17.3
		c0.4,6.1,1.3,12.1,1.9,18.2c-0.5,0.3-1,0.5-1.5,0.8c-1.4-1.7-2.9-3.3-4.7-5.4c-1.9,5.6,1.1,12.2-3.9,18.1c-1.6-3.6-2.8-6.3-4.2-9.4
		c-0.6,3-1,5.2-1.4,7.4c-0.7,0.2-1.3,0.4-2,0.6c-4.1-7.7-8.1-15.4-12.4-23.4c-2,1-3,1.6-4.4,2.3c-4.5-9.4-6.7-19-5.4-29.6
		c-1.2-0.1-2.1-0.1-3.2-0.2c-0.9-3.5-1.8-7.2-3-10.7c-0.3-0.8-2.3-1.9-2.7-1.6c-5.3,3.9-10.4,7.9-15.5,12c-0.4,0.3-0.4,1.3-0.3,1.9
		c1.9,9.6-1.8,18.1-5.2,26.6c-4,10.1-8.7,19.9-13.4,29.7c-0.8,1.6-3.5,2.7-5.5,3.3c-4.4,1.2-8.9,1.9-13.4,2.7
		c-3.7,0.7-7.5,1.4-11.3,1.7c-6.1,0.5-12.3,0.2-18.4,1c-2.4,0.3-5.3,2.3-6.7,4.3c-3.4,5.3-5.8,11.1-8.9,16.6c-0.6,1-2.7,2.3-3.2,2
		c-1.2-0.7-2.3-2.3-2.5-3.6C409.7,475.2,410,472.9,410,469.6z M431.6,352.1c-9.4,5.6-18.5,8.3-28.4,8.6c-5.5,0.1-11.1-0.3-16.5,0.6
		c-17.9,3.1-36.2-7.5-44.6-24.5c-5.8-11.7-19.2-13.7-28-4.2c-7.1,7.6-12.9,16-15.8,26.3c-1.2,4.4-3.7,8.5-5.7,12.7
		c-6.1,12.4-12.5,24.6-18.4,37.1c-5.8,12.1-11.3,24.4-16.8,36.7c-1.3,3-2.7,6.2-3,9.4c-0.7,5.5-0.6,11.2-0.9,18.1
		c3-5.2,5.4-9.3,7.8-13.5c0.4,0.1,0.9,0.3,1.3,0.4c-0.3,4-0.7,8-1,12.1c0.3,0.2,0.5,0.4,0.8,0.6c4.2-6.1,8.4-12.3,12.6-18.4
		c0.3,0.2,0.6,0.4,0.9,0.6c-0.6,3.4-1.3,6.7-1.9,10.1c0.5,0.3,1.1,0.5,1.6,0.8c4.4-7.6,8.7-15.1,13.1-22.7c0.4,0.1,0.7,0.2,1.1,0.4
		c-0.8,4.2-1.5,8.4-2.3,12.9c9-5.9,12.1-15,15.1-24.9c1,1.6,1.5,2.5,2.2,3.7c4.3-5.4,8.3-10.5,12.3-15.6c0.3,0.2,0.6,0.4,0.8,0.5
		c-0.2,1.9-0.4,3.8-0.7,7.1c7.2-7.9,13.5-14.8,19.9-21.8c4.6,5.6,6.6-2.3,10.5-1.5c0,0.9,0,2.1,0,3.6c5.5-3.1,10.6-5.9,17-9.4
		c-1.1,3.1-1.6,4.5-2.5,7.3c5.1-2.5,9.3-4.5,14.7-7.1c-2.6,3.8-4.3,6.4-7,10.2c5.1-1.1,9.1-1.5,12.6-2.9c3.7-1.6,6.9-4.2,10.3-6.3
		c0.2,0.6,0.6,1.7,1.2,3.7c3.6-2.7,6.6-5,9.8-7.4c0.2,1.5,0.3,2.6,0.6,4.6c3.6-2.3,6.7-4.4,10.3-6.7c-0.4,2.3-0.7,3.9-1.1,6
		c3.6-1,6.7-1.9,10.3-3c-1.4,2.1-2.5,3.7-4.1,6.1c3.6-1.2,6.2-2.1,9-3c0.1,1.2,0.2,2.2,0.3,3.2c0.4,0.2,0.9,0.4,1.3,0.5
		c6.4-10.5,13.2-20.9,19.1-31.7c1.8-3.3,1.2-7.8,1.6-11.6c-5.1-1.4-6.5,9.5-11.4,2.6c-2.4,0.5-4.3,0.8-4.9,0.9
		C433.5,358.7,432.7,355.7,431.6,352.1z M441.7,398.3c-2,4.8-3.9,9.9-6.3,14.8c-1.7,3.5-3.7,7-5.9,10.2c-2.8,3.9-6.5,7.3-5,11.9
		c-7.6,3.8-13.7,9.4-16.8,16c-2.9,6.2-7.6,10.3-11.8,14.8c-5.9,6.4-11.8,12.4-12.8,21.6c3.3,1.8,11.3-1.3,13-5.1
		c2.5-5.6,5.3-10.9,11.1-13.9c0.8-0.4,1.5-1.5,1.6-2.4c0.9-5.6,4.7-8.9,8.7-12.1c4.8-3.9,10.3-7.3,11-14.6c0.1-1.4,2.1-2.7,3.4-3.8
		c4-3.5,9.1-6.2,11.8-10.4c5.6-9,14-14.5,22-20.6c4.9-3.7,8.6-13.2,6.8-17.9c-1.8-4.7-3.9-9.3-5.5-14c-0.5-1.3,0.4-3.1,0.8-5.7
		c2.8,8.9,5.3,16.4,7.8,24.2c5.8-5,15.7-3.6,18-13.2c-0.8,5.6-4.2,9.2-9.1,10.4c-5.6,1.4-8.7,5.3-11.8,9.4
		c-3.8,4.9-3.5,16.9-0.8,20.6c-0.9,4.6-1.9,8.1-2.2,11.7c-0.3,4-0.1,8-0.1,12.1c-0.6,0.7-1.3,1.4-1.9,2.2
		c-1.9-13.3-9.9-6.6-15.7-7.1c-1.6-0.1-3.3,0.1-5,0.4c-1.1,0.2-2.5,0.5-3.1,1.3c-1,1.1-2.3,2.9-1.9,3.9c0.5,1.3,2.4,3,3.7,3
		c3.9,0,7.7-0.8,13-1.4c-2.8,1.2-4.4,2.3-6.2,2.5c-3.4,0.3-6.9,0.1-10.4,0.2c-3.8,0-7,0.5-5,5c-3.6,0.9-7.1,1.4-10.2,2.7
		c-3.3,1.3-6.2,3.5-9.3,5.3c-0.1-0.2-0.3-0.4-0.4-0.7c1.2-1.5,2.4-2.9,3.6-4.4c-7.1,2.4-11.4,16.8-7.5,24.8
		c3.2-6.2,5.8-12.2,9.2-17.5c1.8-2.7,5-5.4,8-6.1c5.1-1.2,10.6-0.6,15.9-1c4.6-0.4,9.2-1,13.8-1.7c4.5-0.8,9-1.7,13.4-2.9
		c1.7-0.4,4-1.3,4.6-2.6c4.8-10.3,9.6-20.6,13.9-31.1c3.2-7.9,6.1-15.9,4.3-24.7c-0.2-0.9,0.2-2,0.3-3c1.9-10.8,4.5-21.4,3.4-32.6
		c-1.2-11.6-3.9-22.8-7.9-33.7c-0.5-1.3-1.7-2.5-2.9-3.3c-4.2-2.6-5.1-6.5-5.6-11c-1.2-10.4,1.2-20.7-0.4-31.3
		c-1.4-8.8-4-15.7-10-22c-3.7-3.9-6.6-8.6-9.6-13.1c-2.1-3.3-4.2-4.4-8-2.6c-2.9,1.4-6.2,2-9.4,2.9c-0.4,0.1-0.8,0-1.2,0
		c0.8,1.4,1.4,2.7,2.2,4.2c-1.4,0.7-2.4,1.2-3.7,1.8c3.1,0.5,5.9,0.8,8.6,1.5c7.6,1.9,9.5,8.5,12.7,14.6c5.9,11.1,6,21.6,1,32.6
		c-0.3,0.6-0.2,1.4-0.6,1.9c-1.3,1.6-2.7,3.2-4,4.8c-0.2,0.2-0.3,0.4-0.6,0.8c1.3,0.2,2.5,0.3,3.9,0.5c-1.9,1.4-3.3,2.5-5.2,3.9
		c-1-1.1-2.2-2-3-3.2c-2.8-3.9-5.4-7.9-8.2-11.7c-1.5-2.1-3.5-4.2-5.6-0.7c-1.5,2.5-3,5.3-3.8,8.1c-1.9,6.8-3.5,9.8,5.9,10.7
		c-1.1,0.4-1.9,0.6-2.6,0.9c0.5,1.4,1,2.6,1.1,2.9c-3.9-2.4-8.2-4.9-12.4-7.5c-3.2-1.9-6.4-3.8-9.6-5.9c-2.7-1.8-5.4-3.7-8.1-5.5
		c-2.6-1.7-5.6-3.1-7.6-5.3c-4.5-4.8-8.1-10.5-12.7-15.1c-6.7-6.7-10.6-13.5-4.8-22.7c0-0.1-0.1-0.3-0.5-1c-2.5,2-5,4-7.6,6
		c-1.8-1.9-3.3-3.4-5.1-5.4c0.1,2.5,0.2,4.3,0.3,6.7c-1.9-1.3-3-2-4.5-3c0.4,2.4,0.6,4.2,1.1,7.3c-2.9-2.1-4.4-3.3-6-4.4
		c-0.2,0.2-0.4,0.4-0.6,0.6c1.3,2.1,2.7,4.2,4.4,6.9c-3.2,0-5.6,0-7.9,0c-0.1,0.4-0.3,0.8-0.4,1.2c3.6,1.3,7.2,2.5,10.7,3.8
		c1.5,0.6,3.5,1,4.2,2.1c2.6,4.2,4.6,8.7,7,13.1c1.3,2.3,2.9,4.4,4.7,7.2c0.4-2.1,0.5-3,0.6-3.2c4.7,4.7,9.5,9.5,14.1,14
		c-0.1,0-0.8,0.1-2.9,0.3c3.6,2.9,6.2,5,8.9,7.2c2.8,2.2,6.1,4,8.4,6.7c4.5,5.4,11.2,9.1,13.2,16.5c0.1,0.4,0.7,0.7,1.1,1
		c4.7,3.8,10.1,6.8,14.1,11.5c0.3,0.4,0.9,0.5,1.3,0.8c3.7,3.2,7.4,6.3,11.3,9.6c-7.6,5.3-0.8,11-1.6,16.9c-1.5-2.1-2.4-3.5-3.7-5.4
		c-5.5,9-10.7,17.2-15.5,25.6c-4.9,8.5-9.4,17.3-14,25.9c7.7-1.8,10.1-7.3,11.3-13.6C436,404.4,437.3,400,441.7,398.3z M511.7,375.8
		c2.9-1.6,5.7-3.2,8.9-5c0.6,4.4,1.1,8.2,1.7,13.3c1.4-2.8,2.3-4.4,3.6-6.9c0,7.4-0.3,13.7,0.1,20c0.5,8.3-0.9,17.7,10.2,20.8
		c0.5-0.8,1.1-1.6,1.8-2.7c2.1,6.8,4.1,13.1,6,19.3c0.4-0.1,0.7-0.1,1.1-0.2c0.7-4,1.5-7.9,2.2-11.9c0.3,0,0.7-0.1,1-0.1
		c1.4,4,2.7,7.9,4.1,11.9c0.3-0.1,0.6-0.2,0.9-0.3c0.5-6.2,1-12.3,1.5-19.8c1.9,3.1,3.1,5,3.6,5.9c-0.2-11-0.4-22.5-0.6-34.1
		c0-1.1-0.5-2.3-0.8-3.4c-4.6-16.6-3.7-33.2-0.4-49.9c1.3-6.4,1.8-13.2,1.5-19.7c-0.6-10-1.8-19.9-3.6-29.7
		c-1.1-5.9-2.9-12-5.8-17.3c-3.1-5.7-6.6-10.9-8-17.5c-1.3-6.5-10.5-11-16.8-9.1c-5.2,1.6-8.3,9-6.4,15.6c0.2,0.8,0.6,1.6,0.8,2.4
		c0.9,4.9,2.8,9.8,2.4,14.6c-0.9,11.2-3.1,22.3-4.4,33.6c-1.2,10.5-5.6,19-14,25.5c-1,0.8-2.1,2.3-2.1,3.5c0,3.1,0.4,6.3,1,9.4
		c2.1,10.7,4.5,21.3,0.8,32.3c-0.9,2.5-0.3,5.5-0.5,9.3c3.6-4.5,6.5-8.1,9.4-11.7C511.3,374.9,511.6,375.6,511.7,375.8z
		 M427.4,351.2c-5.4-0.5-9.8,0.1-13.1-1.4c-5.9-2.8-11.7-1.8-17.6-1.6c-4.2,0.1-8.4,1.1-12.5,0.6c-12.9-1.5-24.9-6-30.5-18.3
		c-6.7-14.6-16.4-20.8-32.3-18.4c-5.2,0.8-9.2,2.4-12.1,6.7c-3.1,4.6-6.3,9-9.4,13.5c-11.8,17.4-23.2,35-28.3,55.8
		c-2.7,11-6.2,21.7-9.3,32.6c-1.9,6.4-3.7,12.9-5.6,19.4c0.4,0.1,0.8,0.3,1.2,0.4c1.4-2.6,3-5.1,4.1-7.8c3.9-9.5,7.2-19.3,11.5-28.7
		c7.4-16.5,15-33,23.2-49.2c3.9-7.8,9-15.2,14.1-22.2c9.4-12.8,27.8-10.4,34.3,3.5c7.7,16.3,21.5,24.4,40.2,22.9
		c6.8-0.6,13.6-0.6,20.4-1C413.1,357.6,420,355.4,427.4,351.2z M559.3,384.4c0.7-0.8,0.9-0.9,0.9-1c-0.1-2.1-0.2-4.3-0.4-6.4
		c-1.6-14.7-1.2-29.2,3.4-43.5c1.3-4.1,1.2-8.9,1.1-13.3c-0.2-7.5-1-14.9-1.6-22.4c-0.8-9.1-0.5-18.6-3-27.2
		c-3-10.3-7.8-20.4-13.1-29.8c-3.1-5.5-8.4-9.9-13.2-14.1c-9.6-8.4-26.4-3.2-29.5,9.3c-1.2,4.9-2.3,12,0.2,15.4
		c5.9,7.8,5.6,16.5,7,25c0.3,1.7-0.6,3.8-1.4,5.5c-1.3,2.7-3.6,5.1-4.2,7.8c-1.2,5.4-1.3,11.1-2.4,16.6c-0.5,2.8-1.7,5.8-3.6,7.9
		c-5.4,6.2-5.8,8.8-0.9,16.3c6.3-4.1,11.4-9.4,13.2-16.8c2.5-10.1,4.6-20.5,6-30.8c1.3-9.1,0.6-18.1-2.7-27c-3.3-8.8,2-18.2,9.7-19
		c9.1-1,16.6,4.5,19,13.3c1.1,4.1,2.8,8.2,5.2,11.6c4.5,6.5,7,13.5,7.9,21.3c0.6,4.8,0.9,9.6,1.7,14.4c2.3,13.9,2.9,27.5-0.5,41.5
		C554.5,353.7,555.6,368.9,559.3,384.4z M463.2,434.8c0-8.9,0-16.9,0-26.2c-5.1,4.5-9.5,8.4-13.8,12.4c-3.4,3.3-6.4,7-9.8,10.3
		c-2.6,2.5-5.7,4.5-8.1,7.1c-1.1,1.2-1.3,3.3-1.9,4.9C440.5,438.7,450.5,433.8,463.2,434.8z M420.8,426.5c-0.3-0.3-0.5-0.6-0.8-0.9
		c-1.8,1.6-3.9,2.9-5.4,4.7c-0.8,0.9-0.4,2.7-0.6,4.1c1.5-0.5,3.6-0.7,4.3-1.7C419.6,431,420,428.7,420.8,426.5z"/>
	<path d="M620,264.9c-4.4,0-9.6,0-14.8,0c2.8-24.7,1.5-49.3,1.5-73.9c0-24.4,1.6-48.9-0.8-73.7c5.7,0,12,0,18.4,0
		c0,8.8-0.1,17.5,0.1,26.3c0.1,2.6,0.6,5.3,1.4,7.8c3.6,10.2,7.3,20.4,11,30.5c0.4,1,0.9,2,2,2.9c0-22.5,0-44.9,0-67.6
		c4.8,0,10.2,0,14.9,0c-0.4,6.9-1.1,13.7-1.1,20.4c-0.1,40.5-0.1,81,0,121.5c0,6.8,0.6,13.5,0.9,20.5c-4.8,0-10.2,0-15.6,0
		c3.5-16.2,0.8-32.3,1.1-48.4c0.1-3-1.9-6-2.9-8.9c-5.3-15-10.7-30.1-16.2-45.4C620,206.2,620,235.3,620,264.9z"/>
	<path d="M208.9,117.5c12.5,0,26.2-0.9,39.8,0.2c18.7,1.6,26.5,12.4,22.6,30.9c-2.6,12.7-6.5,25.1-10.5,37.4
		c-6,18.7-12.5,37.2-18.8,55.8c-0.9,2.5-2.1,4.9-3.4,7.2c-7.4,13.8-14.7,17.5-29.9,15.6C210.5,215.5,210.1,166.4,208.9,117.5z
		 M222.6,244.9c0.5,0.1,0.9,0.2,1.4,0.4c2.1-4.3,4.5-8.4,6.1-12.9c5.2-14.7,10.6-29.4,15.1-44.4c4.5-14.8,8.5-29.7,11.8-44.8
		c1.8-8.2-1.5-11.8-9.9-12.6c-6.1-0.6-12.3-0.2-18.4-0.6c-4.7-0.3-6.2,1.2-6.2,6.1c0.2,34.8,0.1,69.6,0.1,104.4
		C222.6,241.9,222.6,243.4,222.6,244.9z"/>
	<path d="M319.5,128.3c-11.1,0.8-20.9,1.6-30.9,2.4c0-3.6,0-8.3,0-13.4c16.5,0,32.7,0,49.8,0c-16.9,44.4-33.7,88.4-50.9,133.6
		c29.2-1.2,57.7,1.7,86.4-1.9c-0.6,3.2-4.2,5.7-7.3,6.8c-4,1.3-5.5,3.1-5.1,7.1c-31.1,0-62,0-93.7,0
		C284.9,218.3,301.8,174.2,319.5,128.3z"/>
	<path d="M386.6,116.9c13.1,0,26.6-0.4,40,0.1c8.7,0.4,13.3,7.7,12.7,18.2c-0.5,9.2-5.2,13.8-14.2,13.8c-7.5,0.1-15,0.1-22.5,0.2
		c-0.3,0-0.6,0.3-1.7,0.8c0.1,37.3-1.2,75,0.5,112.9c0.2,0-0.8,0.1-1.8,0.1c-3,0-6,0-10,0c1-2.5,1.6-4.4,2.5-6.1
		c1.5-2.8,1.6-5.5-1.4-6.8c-3.1-1.4-2.9-3.6-2.9-6.1c0.1-37.1,0.2-74.3,0.2-111.4C388.1,127.5,387.2,122.4,386.6,116.9z
		 M401.2,137.7c7.3,0,14.3,0.2,21.2-0.1c1.7-0.1,3.3-1.9,4.9-3c-1.5-1.7-2.9-4.7-4.6-4.8c-7.1-0.5-14.2-0.2-21.6-0.2
		C401.2,132.2,401.2,134.5,401.2,137.7z"/>
	<path d="M197,249.3c0,5.2,0,10,0,15.3c-20,0-39.9,0-59.3,0c2.1-32.2,0.5-64.6,1-96.9c0.2-12.2,0.3-24.3,0.2-36.5
		c-0.1-4.6-0.9-9.2-1.4-14c5.5,0,11.2,0,17.8,0c-4.8,7.9-3.4,16.1-3.3,24.2c0,34.6,0,69.3,0,103.9c0,2,0,4,0,5.8
		C160.9,253.3,186.8,252.2,197,249.3z"/>
	<path d="M444.5,117.2c13.2,0,26.5-0.2,39.8,0.1c6.3,0.1,10.6,3.7,12,10.1c1.5,6.9,2.2,13.8-3.6,19.1c-1.8,1.6-4.8,2.6-7.2,2.7
		c-8.6,0.3-17.2,0.1-26.5,0.1c0,6.6,0,12.2,0,17.8c0,19.5-0.1,39,0.1,58.5c0,3.4-0.6,5.1-4.4,5.6c-2.8,0.4-5.5,1.9-8.6,3.1
		c0-19.7,0.3-39-0.1-58.3C445.4,156.8,448.1,137.4,444.5,117.2z M459.2,138c7.7,0,15.1,0.2,22.6-0.2c1.2-0.1,3.6-2.5,3.4-3.2
		c-0.6-1.8-2.2-4.4-3.6-4.5c-7.4-0.4-14.8-0.2-22.3-0.2C459.2,133,459.2,135.3,459.2,138z"/>
	<path d="M357.2,138.1c8.6,0,16.7,0,25.1,0c0,5.4,0,10.4,0,14.8c-8.1-0.8-16.2-1.5-24.8-2.3c-0.2,2.6-0.4,4.2-0.4,5.8
		c0,20.8,0.1,41.7-0.1,62.5c-0.1,4.7,1.7,6,5.8,5.4c3.9-0.6,7.8-1.4,11.9-2.2c0,4.5,0,9.3,0,14.6c-10.8,0-21.5,0-31,0
		c0.2-9.3,0.4-18.5,0.5-27.7c0.1-25,0.3-50,0.2-75c0-5.4-0.8-10.8-1.3-16.6c9.5,0,19.7,0,30.2,0c0,4.9,0,9.8,0,14.5
		c-5.3-0.9-10.5-1.8-16.1-2.7C357.2,132.7,357.2,135,357.2,138.1z"/>
	<path d="M164.9,117.1c9.5,0,19.7,0,30.3,0c0,4.9,0,9.8,0,14.7c-5.1-0.9-10.3-1.9-16-3c0,3.6,0,6,0,9c7.9,0,16,0,24.5,0
		c0,5.6,0,10.6,0,15c-7.9-0.7-15.9-1.4-24.4-2.2c0,24.9,0,48.9,0,74.1c5.8-0.9,11.4-1.7,17.3-2.5c0,4.2,0,9.1,0,14.3
		c-10.7,0-21.4,0-31.1,0c0.1-12.3,0.3-24.7,0.4-37.1c0.1-21.7,0.2-43.3,0.1-65C166,128.8,165.3,123,164.9,117.1z"/>
	<path d="M549.7,117.2c5.5,0,11.2,0,17.7,0c-5,8.1-3.3,16.5-3.4,24.7c-0.1,34.5-0.3,68.9-0.4,103.4c0,2,0,4,0,6.6
		c11-0.6,21.8,2.9,32.3-3.1c0,5.7,0,10.6,0,16.3c-10.3,0-20.3,0-30.4-0.1c-0.6,0-1.6-0.7-1.9-1.3c-3-6.2-5.5-12.8-9.1-18.7
		c-5.4-9-3.8-18.6-3.8-28.1c0-28.6,0.3-57.3,0.3-85.9C551.1,126.6,550.2,122.1,549.7,117.2z"/>
	<path d="M544.6,153.1c-9.4-0.7-18.5-1.3-28.6-2.1c0,4.8,0,8.6,0,12.3c0,16.8-0.1,33.6,0.1,50.5c0,3-0.7,4.8-3.6,6.2
		c-3.2,1.6-6,4-9.4,6.3c-1-36.5,0.8-72.7-0.7-109.1c9.5,0,20.1,0,31.1,0c0,4.9,0,9.8,0,14.4c-5.5-0.8-11.2-1.5-17.3-2.4
		c0,3.6,0,6.1,0,9.3c9.4,0,18.7,0,28.4,0C544.6,144.3,544.6,149.2,544.6,153.1z"/>
	<path d="M577.7,117.2c4.7,0,10.1,0,14.6,0c-0.9,39.4-0.6,78.9-0.2,118.7c-4.2,0-9.5,0-14.8,0c3.2-21.4,0.6-42.8,1.3-64.2
		c0.4-12.2,0.4-24.3,0.3-36.5C578.8,129.2,578.1,123.3,577.7,117.2z"/>
	<path d="M263.1,206.4c0-1.2-0.1-1.6,0-1.9c4.8-16.3,5.8-16.9,26.5-14.9c-2,5.4-3.9,10.6-6,15.7c-0.3,0.6-1.6,1.1-2.5,1.1
		C275.1,206.5,269.2,206.4,263.1,206.4z"/>
	<path d="M459.7,263.3c-5.3,0-10.2,0-15.6,0c0.7-3.5,1.4-6.6,2-9.7C454.3,253.3,458.6,256.4,459.7,263.3z"/>
	<path class="st0" d="M431.6,352.1c1.1,3.6,1.9,6.6,3.2,10.9c0.6-0.1,2.5-0.5,4.9-0.9c4.9,6.9,6.4-4,11.4-2.6
		c-0.5,3.8,0.2,8.3-1.6,11.6c-5.9,10.8-12.7,21.2-19.1,31.7c-0.4-0.2-0.9-0.4-1.3-0.5c-0.1-1-0.2-1.9-0.3-3.2c-2.8,0.9-5.4,1.8-9,3
		c1.6-2.4,2.7-4,4.1-6.1c-3.7,1.1-6.8,1.9-10.3,3c0.4-2.1,0.7-3.7,1.1-6c-3.6,2.3-6.7,4.4-10.3,6.7c-0.3-2-0.4-3.1-0.6-4.6
		c-3.2,2.4-6.2,4.7-9.8,7.4c-0.7-2-1-3.1-1.2-3.7c-3.4,2.1-6.6,4.8-10.3,6.3c-3.5,1.5-7.5,1.8-12.6,2.9c2.7-3.9,4.4-6.4,7-10.2
		c-5.5,2.6-9.6,4.6-14.7,7.1c0.9-2.7,1.4-4.2,2.5-7.3c-6.3,3.5-11.4,6.3-17,9.4c0-1.5,0-2.7,0-3.6c-3.9-0.8-6,7.1-10.5,1.5
		c-6.4,7-12.7,14-19.9,21.8c0.3-3.3,0.5-5.2,0.7-7.1c-0.3-0.2-0.6-0.4-0.8-0.5c-4,5.1-8.1,10.2-12.3,15.6c-0.7-1.2-1.2-2.1-2.2-3.7
		c-3,9.8-6.1,19-15.1,24.9c0.8-4.5,1.6-8.7,2.3-12.9c-0.4-0.1-0.7-0.2-1.1-0.4c-4.4,7.6-8.7,15.1-13.1,22.7
		c-0.5-0.3-1.1-0.5-1.6-0.8c0.6-3.4,1.3-6.7,1.9-10.1c-0.3-0.2-0.6-0.4-0.9-0.6c-4.2,6.1-8.4,12.3-12.6,18.4
		c-0.3-0.2-0.5-0.4-0.8-0.6c0.3-4,0.7-8,1-12.1c-0.4-0.1-0.9-0.3-1.3-0.4c-2.4,4.1-4.8,8.3-7.8,13.5c0.3-6.9,0.2-12.5,0.9-18.1
		c0.4-3.2,1.7-6.4,3-9.4c5.5-12.3,11-24.5,16.8-36.7c6-12.4,12.3-24.7,18.4-37.1c2.1-4.2,4.5-8.3,5.7-12.7
		c2.9-10.3,8.8-18.7,15.8-26.3c8.8-9.5,22.3-7.5,28,4.2c8.4,17,26.7,27.7,44.6,24.5c5.4-0.9,11-0.5,16.5-0.6
		C413.1,360.4,422.2,357.7,431.6,352.1z"/>
	<path class="st0" d="M441.7,398.3c-4.4,1.7-5.7,6.1-6.7,10.9c-1.3,6.3-3.7,11.9-11.3,13.6c4.7-8.6,9.2-17.4,14-25.9
		c4.8-8.4,10-16.6,15.5-25.6c1.3,1.9,2.3,3.3,3.7,5.4c0.8-5.9-6-11.6,1.6-16.9c-3.8-3.3-7.5-6.4-11.3-9.6c-0.4-0.3-1-0.4-1.3-0.8
		c-4-4.7-9.4-7.7-14.1-11.5c-0.4-0.3-1-0.6-1.1-1c-2-7.4-8.7-11.1-13.2-16.5c-2.3-2.7-5.6-4.5-8.4-6.7c-2.7-2.1-5.3-4.3-8.9-7.2
		c2.1-0.2,2.7-0.2,2.9-0.3c-4.6-4.5-9.4-9.3-14.1-14c0,0.2-0.2,1.1-0.6,3.2c-1.9-2.9-3.5-5-4.7-7.2c-2.4-4.3-4.5-8.9-7-13.1
		c-0.7-1.1-2.7-1.6-4.2-2.1c-3.5-1.3-7.1-2.5-10.7-3.8c0.1-0.4,0.3-0.8,0.4-1.2c2.3,0,4.7,0,7.9,0c-1.7-2.7-3.1-4.8-4.4-6.9
		c0.2-0.2,0.4-0.4,0.6-0.6c1.6,1.2,3.1,2.3,6,4.4c-0.5-3.1-0.7-4.9-1.1-7.3c1.4,0.9,2.5,1.7,4.5,3c-0.1-2.4-0.2-4.2-0.3-6.7
		c1.9,1.9,3.3,3.5,5.1,5.4c2.6-2.1,5.1-4,7.6-6c0.4,0.7,0.5,0.9,0.5,1c-5.9,9.2-1.9,16,4.8,22.7c4.6,4.7,8.3,10.3,12.7,15.1
		c2,2.2,5.1,3.5,7.6,5.3c2.7,1.8,5.3,3.8,8.1,5.5c3.1,2,6.4,3.9,9.6,5.9c4.3,2.6,8.5,5.2,12.4,7.5c-0.1-0.3-0.6-1.5-1.1-2.9
		c0.7-0.2,1.5-0.5,2.6-0.9c-9.4-0.9-7.8-3.9-5.9-10.7c0.8-2.8,2.2-5.5,3.8-8.1c2.1-3.5,4.1-1.5,5.6,0.7c2.8,3.9,5.4,7.9,8.2,11.7
		c0.8,1.2,2,2.1,3,3.2c1.8-1.4,3.3-2.5,5.2-3.9c-1.4-0.2-2.6-0.3-3.9-0.5c0.2-0.4,0.4-0.6,0.6-0.8c1.3-1.6,2.7-3.1,4-4.8
		c0.4-0.5,0.3-1.3,0.6-1.9c5-11,4.9-21.5-1-32.6c-3.3-6.1-5.1-12.7-12.7-14.6c-2.7-0.7-5.5-1-8.6-1.5c1.2-0.6,2.3-1.1,3.7-1.8
		c-0.8-1.5-1.5-2.7-2.2-4.2c0.4,0,0.8,0.1,1.2,0c3.1-0.9,6.4-1.5,9.4-2.9c3.8-1.7,5.9-0.6,8,2.6c2.9,4.6,5.9,9.2,9.6,13.1
		c6,6.3,8.7,13.2,10,22c1.6,10.6-0.8,20.9,0.4,31.3c0.5,4.5,1.4,8.4,5.6,11c1.2,0.7,2.4,2,2.9,3.3c4,10.9,6.8,22.1,7.9,33.7
		c1.1,11.2-1.5,21.8-3.4,32.6c-0.2,1-0.5,2-0.3,3c1.8,8.8-1.1,16.9-4.3,24.7c-4.3,10.5-9,20.9-13.9,31.1c-0.6,1.3-3,2.1-4.6,2.6
		c-4.4,1.2-8.9,2.1-13.4,2.9c-4.6,0.8-9.2,1.4-13.8,1.7c-5.3,0.4-10.8-0.2-15.9,1c-3,0.7-6.3,3.4-8,6.1c-3.5,5.3-6,11.2-9.2,17.5
		c-4-8,0.4-22.4,7.5-24.8c-1.2,1.5-2.4,2.9-3.6,4.4c0.1,0.2,0.3,0.4,0.4,0.7c3.1-1.8,6-3.9,9.3-5.3c3.1-1.3,6.6-1.8,10.2-2.7
		c-2-4.4,1.2-4.9,5-5c3.5,0,7,0.2,10.4-0.2c1.7-0.2,3.4-1.3,6.2-2.5c-5.2,0.6-9.1,1.4-13,1.4c-1.3,0-3.2-1.6-3.7-3
		c-0.4-1,1-2.8,1.9-3.9c0.7-0.8,2-1.1,3.1-1.3c1.6-0.3,3.3-0.6,5-0.4c5.8,0.5,13.7-6.3,15.7,7.1c0.6-0.7,1.3-1.4,1.9-2.2
		c0-4-0.3-8.1,0.1-12.1c0.3-3.6,1.3-7.1,2.2-11.7c-2.8-3.7-3-15.7,0.8-20.6c3.1-4.1,6.2-8,11.8-9.4c4.9-1.2,8.3-4.8,9.1-10.4
		c-2.3,9.5-12.2,8.1-18,13.2c-2.5-7.8-4.9-15.4-7.8-24.2c-0.4,2.6-1.3,4.4-0.8,5.7c1.6,4.8,3.7,9.4,5.5,14
		c1.9,4.7-1.9,14.2-6.8,17.9c-8,6.1-16.4,11.6-22,20.6c-2.7,4.3-7.8,6.9-11.8,10.4c-1.3,1.1-3.3,2.4-3.4,3.8
		c-0.7,7.2-6.2,10.6-11,14.6c-4,3.3-7.9,6.6-8.7,12.1c-0.1,0.9-0.9,2-1.6,2.4c-5.8,2.9-8.7,8.3-11.1,13.9c-1.7,3.8-9.7,6.9-13,5.1
		c1-9.2,6.9-15.2,12.8-21.6c4.2-4.5,8.9-8.6,11.8-14.8c3.1-6.6,9.1-12.2,16.8-16c-1.4-4.7,2.2-8,5-11.9c2.3-3.2,4.3-6.6,5.9-10.2
		C437.7,408.2,439.7,403.1,441.7,398.3z M446.2,334.9c-6.9-7-13.7-12.9-19.3-19.8c-5.7-6.9-15.7-6.9-20.4-14.8
		c1.5,5.4,5.4,8.2,10,10.5c3.2,1.6,6.6,3.3,9.3,5.7c1.9,1.7,2.7,4.6,4,6.9c-0.5,0.3-0.9,0.6-1.4,0.9c-1.8-0.8-3.7-1.7-5-2.3
		c2,3.1,4.1,6.1,5.8,9.3c2.3,4.3,5.4,6.9,11.2,6c-1.5-0.6-2.9-1.2-4.4-1.8c0.4-0.6,0.8-1.2,1.1-1.8
		C439.6,334.1,442.2,334.4,446.2,334.9z M469.8,321.1c0.1,2,1.1,5.1,0.2,7.3c-1.1,2.7-3.5,5.3-5.9,7c-2.1,1.5-5,1.7-8.4,2.8
		c8.8,0.9,13.1-3.8,16.5-10c2-3.7,4.3-4.3,8.1-2.1c2.3,1.4,5.4,1.4,8.2,2c0-0.2,0.1-0.5,0.1-0.7C481.9,325.3,475.3,323,469.8,321.1z
		 M472.6,301.1c2.7,1.3,5.8,2.7,9.4,4.4c0-2.4,0-4.4,0-6.2c-8.4,3.2-3.7-5.7-6.5-7.4C474.5,295.1,473.5,298.2,472.6,301.1z
		 M479.3,432.5c0.2,0.1,0.3,0.1,0.5,0.2c0.5-1.7,1.3-3.5,1.4-5.2c0.7-8.1,1.2-16.2,1.8-24.3c-0.4,0-0.8-0.1-1.3-0.1
		C481,412.8,480.1,422.6,479.3,432.5z M459.3,400c-6.4,5-13,10.1-19.5,15.2c0.3,0.3,0.6,0.6,0.8,0.9
		C445.8,409.4,457.4,410,459.3,400z M472.9,361.8c-0.2-4.2,0.1-7-0.6-9.5c-0.9-2.9-2.8-5.6-4.4-8.5c0,1.8-0.9,4.9,0.2,6.4
		c1.8,2.5,3.5,4.4,2.8,7.7C470.7,358.7,471.7,359.6,472.9,361.8z M420.2,444.1c-5.2,5.7-9.8,10.7-14.4,15.8c0.5,0.4,1,0.9,1.5,1.3
		C409.1,453.6,419.2,452.8,420.2,444.1z M493.1,353.9c0.2-0.1,0.5-0.1,0.7-0.2c0.7-4.5,1.4-9,2-13.5c-2.1,1.8,0.7,5.9-3.8,5.5
		C492.4,348.4,492.7,351.1,493.1,353.9z"/>
	<path class="st0" d="M511.7,375.8c-0.1-0.2-0.4-0.9-0.9-2c-2.9,3.7-5.8,7.2-9.4,11.7c0.2-3.9-0.3-6.8,0.5-9.3
		c3.8-10.9,1.3-21.5-0.8-32.3c-0.6-3.1-1-6.3-1-9.4c0-1.2,1.1-2.7,2.1-3.5c8.3-6.5,12.8-15,14-25.5c1.2-11.2,3.5-22.3,4.4-33.6
		c0.4-4.8-1.5-9.8-2.4-14.6c-0.1-0.8-0.6-1.6-0.8-2.4c-1.9-6.6,1.1-14,6.4-15.6c6.3-2,15.5,2.5,16.8,9.1c1.3,6.6,4.8,11.8,8,17.5
		c2.9,5.3,4.7,11.3,5.8,17.3c1.8,9.8,3,19.8,3.6,29.7c0.4,6.5-0.2,13.3-1.5,19.7c-3.3,16.7-4.2,33.3,0.4,49.9
		c0.3,1.1,0.7,2.3,0.8,3.4c0.3,11.6,0.4,23.1,0.6,34.1c-0.6-1-1.7-2.8-3.6-5.9c-0.6,7.5-1.1,13.6-1.5,19.8c-0.3,0.1-0.6,0.2-0.9,0.3
		c-1.4-4-2.7-7.9-4.1-11.9c-0.3,0-0.7,0.1-1,0.1c-0.7,4-1.5,7.9-2.2,11.9c-0.4,0.1-0.7,0.1-1.1,0.2c-1.9-6.2-3.9-12.5-6-19.3
		c-0.7,1.1-1.3,1.9-1.8,2.7c-11.2-3.1-9.8-12.5-10.2-20.8c-0.3-6.3-0.1-12.6-0.1-20c-1.3,2.5-2.1,4.1-3.6,6.9
		c-0.7-5.1-1.2-8.9-1.7-13.3C517.3,372.6,514.5,374.2,511.7,375.8z"/>
	<path class="st0" d="M427.4,351.2c-7.4,4.2-14.2,6.4-21.7,6.7c-6.8,0.3-13.7,0.4-20.4,1c-18.7,1.5-32.5-6.5-40.2-22.9
		c-6.5-13.8-24.9-16.3-34.3-3.5c-5.2,7.1-10.2,14.4-14.1,22.2c-8.2,16.2-15.8,32.7-23.2,49.2c-4.2,9.4-7.6,19.2-11.5,28.7
		c-1.1,2.7-2.7,5.2-4.1,7.8c-0.4-0.1-0.8-0.3-1.2-0.4c1.9-6.5,3.7-12.9,5.6-19.4c3.1-10.9,6.6-21.6,9.3-32.6
		c5.2-20.8,16.5-38.4,28.3-55.8c3.1-4.5,6.3-9,9.4-13.5c2.9-4.3,6.9-6,12.1-6.7c15.9-2.4,25.7,3.9,32.3,18.4
		c5.6,12.3,17.6,16.8,30.5,18.3c4.1,0.5,8.3-0.5,12.5-0.6c5.9-0.2,11.7-1.2,17.6,1.6C417.6,351.4,422,350.7,427.4,351.2z"/>
	<path class="st0" d="M559.3,384.4c-3.7-15.6-4.9-30.8-1.2-45.6c3.5-14,2.8-27.6,0.5-41.5c-0.8-4.8-1.1-9.6-1.7-14.4
		c-0.9-7.7-3.4-14.8-7.9-21.3c-2.4-3.4-4.1-7.6-5.2-11.6c-2.4-8.8-9.8-14.3-19-13.3c-7.8,0.9-13,10.2-9.7,19c3.3,8.9,4,17.9,2.7,27
		c-1.4,10.4-3.5,20.7-6,30.8c-1.8,7.3-6.9,12.6-13.2,16.8c-4.9-7.4-4.5-10.1,0.9-16.3c1.8-2.1,3-5.1,3.6-7.9
		c1.1-5.5,1.2-11.2,2.4-16.6c0.6-2.8,2.9-5.2,4.2-7.8c0.8-1.7,1.7-3.8,1.4-5.5c-1.4-8.5-1.1-17.2-7-25c-2.5-3.3-1.4-10.4-0.2-15.4
		c3.1-12.5,19.9-17.7,29.5-9.3c4.9,4.3,10.1,8.7,13.2,14.1c5.3,9.4,10.1,19.4,13.1,29.8c2.5,8.6,2.2,18.1,3,27.2
		c0.7,7.5,1.4,14.9,1.6,22.4c0.1,4.4,0.2,9.2-1.1,13.3c-4.6,14.3-5,28.8-3.4,43.5c0.2,2.1,0.3,4.3,0.4,6.4
		C560.2,383.5,560,383.7,559.3,384.4z"/>
	<path class="st0" d="M463.2,434.8c-12.7-1-22.8,4-33.7,8.6c0.6-1.7,0.8-3.8,1.9-4.9c2.5-2.6,5.6-4.6,8.1-7.1
		c3.4-3.3,6.4-7,9.8-10.3c4.2-4.1,8.7-7.9,13.8-12.4C463.2,417.8,463.2,425.9,463.2,434.8z"/>
	<path class="st0" d="M420.8,426.5c-0.8,2.1-1.2,4.5-2.5,6.2c-0.8,1.1-2.9,1.2-4.3,1.7c0.2-1.4-0.1-3.2,0.6-4.1
		c1.5-1.8,3.6-3.2,5.4-4.7C420.3,425.9,420.6,426.2,420.8,426.5z"/>
	<path class="st0" d="M222.6,244.9c0-1.5,0-3,0-4.4c0-34.8,0.1-69.6-0.1-104.4c0-4.9,1.5-6.5,6.2-6.1c6.1,0.4,12.3,0,18.4,0.6
		c8.4,0.8,11.7,4.5,9.9,12.6c-3.4,15.1-7.3,30-11.8,44.8c-4.5,14.9-9.9,29.6-15.1,44.4c-1.6,4.5-4.1,8.6-6.1,12.9
		C223.6,245.1,223.1,245,222.6,244.9z"/>
	<path class="st0" d="M401.2,137.7c0-3.2,0-5.4,0-8.2c7.4,0,14.5-0.3,21.6,0.2c1.6,0.1,3,3.1,4.6,4.8c-1.6,1-3.2,2.9-4.9,3
		C415.5,137.9,408.5,137.7,401.2,137.7z"/>
	<path class="st0" d="M459.2,138c0-2.7,0-5,0-8c7.5,0,14.9-0.2,22.3,0.2c1.4,0.1,3,2.7,3.6,4.5c0.2,0.6-2.1,3.1-3.4,3.2
		C474.3,138.2,466.9,138,459.2,138z"/>
	<path d="M446.2,334.9c-4-0.5-6.6-0.8-9.2-1.2c-0.4,0.6-0.8,1.2-1.1,1.8c1.5,0.6,2.9,1.2,4.4,1.8c-5.7,0.8-8.9-1.7-11.2-6
		c-1.7-3.2-3.8-6.2-5.8-9.3c1.3,0.6,3.2,1.5,5,2.3c0.5-0.3,0.9-0.6,1.4-0.9c-1.3-2.4-2.1-5.2-4-6.9c-2.7-2.4-6-4-9.3-5.7
		c-4.5-2.3-8.4-5.1-10-10.5c4.7,7.9,14.8,7.9,20.4,14.8C432.4,322,439.2,327.9,446.2,334.9z"/>
	<path d="M469.8,321.1c5.5,1.9,12.1,4.2,18.7,6.4c0,0.2-0.1,0.5-0.1,0.7c-2.8-0.6-5.9-0.6-8.2-2c-3.8-2.3-6.1-1.6-8.1,2.1
		c-3.3,6.2-7.6,10.9-16.5,10c3.3-1,6.3-1.3,8.4-2.8c2.4-1.8,4.8-4.3,5.9-7C470.9,326.2,469.9,323.2,469.8,321.1z"/>
	<path d="M472.6,301.1c0.9-3,1.9-6,2.8-9.2c2.8,1.7-1.9,10.6,6.5,7.4c0,1.8,0,3.7,0,6.2C478.4,303.9,475.3,302.4,472.6,301.1z"/>
	<path d="M479.3,432.5c0.8-9.8,1.6-19.6,2.4-29.5c0.4,0,0.8,0.1,1.3,0.1c-0.6,8.1-1.1,16.2-1.8,24.3c-0.1,1.8-0.9,3.5-1.4,5.2
		C479.7,432.6,479.5,432.5,479.3,432.5z"/>
	<path d="M459.3,400c-1.9,10-13.5,9.4-18.6,16.1c-0.3-0.3-0.6-0.6-0.8-0.9C446.3,410.1,452.8,405,459.3,400z"/>
	<path d="M472.9,361.8c-1.2-2.1-2.2-3.1-2-3.8c0.7-3.3-1-5.3-2.8-7.7c-1.1-1.6-0.2-4.6-0.2-6.4c1.6,3,3.5,5.6,4.4,8.5
		C473.1,354.8,472.7,357.6,472.9,361.8z"/>
	<path d="M420.2,444.1c-1,8.7-11.1,9.6-12.8,17.1c-0.5-0.4-1-0.9-1.5-1.3C410.4,454.8,415,449.7,420.2,444.1z"/>
	<path d="M493.1,353.9c-0.4-2.8-0.7-5.5-1-8.2c4.5,0.4,1.7-3.6,3.8-5.5c-0.7,4.5-1.4,9-2,13.5C493.5,353.8,493.3,353.8,493.1,353.9z
		"/>
</g>
</svg>
