<?xml version="1.0" encoding="utf-8"?>
<!-- Generator: Adobe Illustrator 25.3.1, SVG Export Plug-In . SVG Version: 6.00 Build 0)  -->
<svg version="1.1" id="typelayout_1_" xmlns="http://www.w3.org/2000/svg" xmlns:xlink="http://www.w3.org/1999/xlink" x="0px"
	 y="0px" viewBox="0 0 800 600" style="enable-background:new 0 0 800 600;" xml:space="preserve">
<style type="text/css">
	.st0{fill:none;}
</style>
<path id="love" d="M496.2,347v135.2h-34.7V347H496.2z M584.6,410.3v27.1c0,10-0.5,17.3-1.5,21.9c-1,4.6-3.1,9-6.4,13
	c-3.3,4-7.5,7-12.6,8.9c-5.1,1.9-11.1,2.9-17.7,2.9c-7.5,0-13.8-0.8-19-2.5c-5.2-1.6-9.2-4.1-12.1-7.4c-2.9-3.3-4.9-7.3-6.1-12
	c-1.2-4.7-1.8-11.8-1.8-21.2v-28.4c0-10.3,1.1-18.3,3.3-24.1c2.2-5.8,6.2-10.4,12-13.9c5.8-3.5,13.2-5.3,22.2-5.3
	c7.6,0,14.1,1.1,19.5,3.4c5.4,2.3,9.6,5.2,12.6,8.8c3,3.6,5,7.3,6.1,11.2C584.1,396.6,584.6,402.4,584.6,410.3z M550.9,401.9
	c0-5.7-0.3-9.3-0.9-10.7S548,389,546,389s-3.3,0.7-4,2.2s-1,5.1-1,10.7v50c0,5.2,0.3,8.6,1,10.2c0.7,1.6,2,2.4,3.9,2.4
	c2,0,3.3-0.7,4-2.2c0.6-1.4,1-4.6,1-9.4V401.9z M665.5,371.4l-15.8,110.8h-44.1l-16.9-110.8h30.1l9.5,80.9c0.7-6,2-20.4,3.8-43.5
	c1-12.9,2-25.3,3.3-37.4H665.5z M746.8,428.7h-43.7v24c0,5,0.4,8.2,1.1,9.7c0.7,1.4,2.1,2.2,4.2,2.2c2.6,0,4.3-1,5.1-2.9
	c0.9-1.9,1.3-5.6,1.3-11.1v-14.6h32v8.2c0,6.8-0.4,12.1-1.3,15.8c-0.9,3.7-2.9,7.6-6.1,11.8c-3.2,4.2-7.2,7.3-12.1,9.4
	c-4.9,2.1-11,3.1-18.3,3.1c-7.1,0-13.4-1-18.9-3.1c-5.5-2.1-9.7-4.9-12.7-8.5c-3-3.6-5.1-7.5-6.3-11.9c-1.2-4.3-1.8-10.6-1.8-18.8
	v-32.3c0-9.7,1.3-17.3,3.9-22.9c2.6-5.6,6.9-9.9,12.9-12.9c6-3,12.8-4.5,20.5-4.5c9.5,0,17.3,1.8,23.4,5.4
	c6.2,3.6,10.5,8.3,12.9,14.3c2.5,5.9,3.7,14.3,3.7,25V428.7z M713,410.7v-8.1c0-5.7-0.3-9.4-0.9-11.1s-1.9-2.5-3.8-2.5
	c-2.3,0-3.8,0.7-4.3,2.1c-0.6,1.4-0.8,5.2-0.8,11.5v8.1H713z"/>
<path id="lotta_1_" d="M532.8,503.8v64h-16.5v-64H532.8z M574.7,533.8v12.9c0,4.7-0.2,8.2-0.7,10.4c-0.5,2.2-1.5,4.3-3,6.2
	c-1.6,1.9-3.6,3.3-6,4.2c-2.4,0.9-5.2,1.4-8.4,1.4c-3.5,0-6.5-0.4-9-1.2c-2.5-0.8-4.4-2-5.7-3.5c-1.4-1.6-2.3-3.5-2.9-5.7
	c-0.6-2.2-0.9-5.6-0.9-10v-13.4c0-4.9,0.5-8.7,1.6-11.4c1.1-2.7,3-4.9,5.7-6.6c2.7-1.7,6.2-2.5,10.5-2.5c3.6,0,6.7,0.5,9.2,1.6
	c2.6,1.1,4.6,2.5,6,4.2c1.4,1.7,2.4,3.5,2.9,5.3C574.4,527.3,574.7,530.1,574.7,533.8z M558.7,529.8c0-2.7-0.1-4.4-0.4-5.1
	c-0.3-0.7-0.9-1-1.9-1s-1.6,0.3-1.9,1c-0.3,0.7-0.5,2.4-0.5,5.1v23.7c0,2.5,0.2,4.1,0.5,4.8c0.3,0.8,0.9,1.1,1.9,1.1
	c0.9,0,1.6-0.3,1.9-1c0.3-0.7,0.5-2.2,0.5-4.4V529.8z M596.8,508.4v8.3h4.3v8.3h-4.3V553c0,3.5,0.2,5.4,0.5,5.8
	c0.4,0.4,1.8,0.6,4.4,0.6v8.5h-6.4c-3.6,0-6.2-0.2-7.8-0.5c-1.6-0.3-2.9-1-4.1-2.1c-1.2-1.1-1.9-2.3-2.2-3.8
	c-0.3-1.4-0.4-4.7-0.4-9.9v-26.7h-3.4v-8.3h3.4v-8.3H596.8z M621.5,508.4v8.3h4.3v8.3h-4.3V553c0,3.5,0.2,5.4,0.5,5.8
	c0.4,0.4,1.8,0.6,4.4,0.6v8.5H620c-3.6,0-6.2-0.2-7.8-0.5c-1.6-0.3-2.9-1-4.1-2.1c-1.2-1.1-1.9-2.3-2.2-3.8
	c-0.3-1.4-0.4-4.7-0.4-9.9v-26.7H602v-8.3h3.4v-8.3H621.5z M643.6,535.7h-15v-3.5c0-4.1,0.5-7.2,1.4-9.4c0.9-2.2,2.8-4.1,5.6-5.8
	s6.5-2.5,11-2.5c5.4,0,9.5,1,12.2,2.9c2.7,1.9,4.4,4.3,4.9,7c0.6,2.8,0.8,8.5,0.8,17.2v26.3h-15.5v-4.7c-1,1.9-2.2,3.3-3.8,4.2
	c-1.5,0.9-3.4,1.4-5.5,1.4c-2.8,0-5.4-0.8-7.7-2.4c-2.3-1.6-3.5-5-3.5-10.3v-4.3c0-3.9,0.6-6.6,1.9-8c1.2-1.4,4.3-3.1,9.2-5
	c5.2-2.1,8.1-3.4,8.4-4.2s0.6-2.2,0.6-4.4c0-2.7-0.2-4.5-0.6-5.4c-0.4-0.8-1.1-1.2-2-1.2c-1.1,0-1.8,0.3-2,1
	c-0.3,0.7-0.4,2.5-0.4,5.4V535.7z M648.6,542.9c-2.6,1.9-4,3.4-4.4,4.7c-0.4,1.3-0.6,3.1-0.6,5.5c0,2.7,0.2,4.5,0.5,5.3
	s1.1,1.2,2.1,1.2c1,0,1.7-0.3,2-0.9c0.3-0.6,0.5-2.2,0.5-4.9V542.9z"/>
<path id="whole_1_" d="M327.6,503.1l-6.8,55.7h-18.4c-1-6.8-2.2-15.8-3.5-26.9c-0.5,4.9-1.1,9.8-1.9,14.8l-1.9,12.1h-18.5l-7.2-55.7
	h14.6c0.1,1.5,1.3,12.1,3.7,31.9c0.2-2,1.5-12.7,3.8-31.9h14l3.4,31.9c0.5-9.3,1.8-20,3.9-31.9H327.6z M347.3,490.8v15.3
	c1.5-1.3,3-2.4,4.7-3c1.7-0.7,3.5-1,5.4-1c3,0,5.5,0.8,7.6,2.3c2.1,1.5,3.4,3.3,3.8,5.2s0.7,5.6,0.7,10.8v38.4h-17v-39.2
	c0-3.2-0.2-5.3-0.5-6.3c-0.3-0.9-1-1.4-2.2-1.4c-1,0-1.7,0.5-2.1,1.4c-0.4,1-0.5,2.8-0.5,5.7v39.8h-17v-68H347.3z M413.8,522.6v13.6
	c0,5-0.3,8.7-0.8,11c-0.5,2.3-1.6,4.5-3.2,6.6c-1.7,2-3.8,3.5-6.4,4.5c-2.6,1-5.6,1.4-8.9,1.4c-3.8,0-6.9-0.4-9.5-1.2
	s-4.6-2.1-6.1-3.7c-1.4-1.7-2.5-3.7-3.1-6c-0.6-2.4-0.9-5.9-0.9-10.6v-14.3c0-5.2,0.6-9.2,1.7-12.1c1.1-2.9,3.1-5.2,6-7
	c2.9-1.8,6.6-2.6,11.2-2.6c3.8,0,7.1,0.6,9.8,1.7c2.7,1.1,4.8,2.6,6.3,4.4c1.5,1.8,2.5,3.7,3,5.6S413.8,518.7,413.8,522.6z
	 M396.8,518.4c0-2.9-0.2-4.7-0.5-5.4c-0.3-0.7-1-1.1-2-1.1s-1.7,0.4-2,1.1c-0.3,0.7-0.5,2.5-0.5,5.4v25.2c0,2.6,0.2,4.3,0.5,5.1
	s1,1.2,2,1.2c1,0,1.7-0.4,2-1.1c0.3-0.7,0.5-2.3,0.5-4.7V518.4z M436.8,490.8v68h-17.5v-68H436.8z M481.3,531.9h-22V544
	c0,2.5,0.2,4.1,0.5,4.9c0.4,0.7,1.1,1.1,2.1,1.1c1.3,0,2.1-0.5,2.6-1.4c0.4-1,0.7-2.8,0.7-5.6v-7.3h16.1v4.1c0,3.4-0.2,6.1-0.7,7.9
	c-0.4,1.8-1.4,3.8-3,5.9s-3.6,3.7-6.1,4.7c-2.5,1-5.5,1.6-9.2,1.6c-3.6,0-6.7-0.5-9.5-1.6c-2.7-1-4.9-2.5-6.4-4.3
	c-1.5-1.8-2.6-3.8-3.2-6c-0.6-2.2-0.9-5.3-0.9-9.5v-16.3c0-4.9,0.7-8.7,2-11.5c1.3-2.8,3.5-5,6.5-6.5c3-1.5,6.4-2.2,10.3-2.2
	c4.8,0,8.7,0.9,11.8,2.7c3.1,1.8,5.3,4.2,6.5,7.2c1.2,3,1.9,7.2,1.9,12.6V531.9z M464.3,522.8v-4.1c0-2.9-0.2-4.7-0.5-5.6
	c-0.3-0.8-0.9-1.3-1.9-1.3c-1.2,0-1.9,0.4-2.2,1.1c-0.3,0.7-0.4,2.6-0.4,5.8v4.1H464.3z"/>
<path id="wanna_1_" d="M69.3,490l-7,57.7H43.2c-1-7-2.2-16.3-3.6-27.9c-0.5,5.1-1.1,10.2-2,15.3l-1.9,12.5H16.6L9.1,490h15.1
	c0.1,1.5,1.4,12.5,3.8,33c0.2-2.1,1.5-13.1,3.9-33h14.5l3.6,33c0.6-9.6,1.9-20.7,4-33H69.3z M87.8,512.3H71.3v-3.9
	c0-4.5,0.5-7.9,1.5-10.3c1-2.4,3.1-4.6,6.2-6.4c3.1-1.9,7.1-2.8,12.1-2.8c5.9,0,10.4,1.1,13.4,3.2c3,2.1,4.8,4.7,5.4,7.7
	s0.9,9.4,0.9,18.9v28.9H93.8v-5.1c-1.1,2.1-2.5,3.6-4.2,4.6c-1.7,1-3.7,1.5-6.1,1.5c-3.1,0-5.9-0.9-8.5-2.6
	c-2.6-1.7-3.8-5.5-3.8-11.3V530c0-4.3,0.7-7.3,2-8.8c1.4-1.6,4.7-3.4,10.1-5.5c5.8-2.3,8.9-3.8,9.3-4.6c0.4-0.8,0.6-2.4,0.6-4.8
	c0-3-0.2-5-0.7-5.9c-0.4-0.9-1.2-1.4-2.2-1.4c-1.2,0-1.9,0.4-2.2,1.2c-0.3,0.8-0.4,2.8-0.4,6V512.3z M93.3,520.2
	c-2.8,2.1-4.4,3.8-4.9,5.2s-0.7,3.4-0.7,6c0,3,0.2,4.9,0.6,5.8c0.4,0.9,1.2,1.3,2.3,1.3c1.1,0,1.8-0.3,2.2-1
	c0.3-0.7,0.5-2.5,0.5-5.4V520.2z M134.8,490l-0.3,5.3c1.3-2.1,2.8-3.7,4.7-4.8c1.8-1.1,4-1.6,6.4-1.6c3,0,5.5,0.7,7.4,2.1
	c1.9,1.4,3.1,3.2,3.7,5.4c0.5,2.2,0.8,5.8,0.8,10.8v40.4h-17.6v-39.9c0-4-0.1-6.4-0.4-7.3s-1-1.3-2.2-1.3c-1.2,0-2,0.5-2.3,1.5
	c-0.3,1-0.5,3.7-0.5,8v39h-17.6V490H134.8z M181.3,490l-0.3,5.3c1.3-2.1,2.8-3.7,4.7-4.8c1.8-1.1,4-1.6,6.4-1.6c3,0,5.5,0.7,7.4,2.1
	c1.9,1.4,3.1,3.2,3.7,5.4c0.5,2.2,0.8,5.8,0.8,10.8v40.4h-17.6v-39.9c0-4-0.1-6.4-0.4-7.3s-1-1.3-2.2-1.3c-1.2,0-2,0.5-2.3,1.5
	c-0.3,1-0.5,3.7-0.5,8v39h-17.6V490H181.3z M225.7,512.3h-16.5v-3.9c0-4.5,0.5-7.9,1.5-10.3c1-2.4,3.1-4.6,6.2-6.4
	c3.1-1.9,7.1-2.8,12.1-2.8c5.9,0,10.4,1.1,13.4,3.2c3,2.1,4.8,4.7,5.4,7.7s0.9,9.4,0.9,18.9v28.9h-17.1v-5.1
	c-1.1,2.1-2.5,3.6-4.2,4.6c-1.7,1-3.7,1.5-6.1,1.5c-3.1,0-5.9-0.9-8.5-2.6c-2.6-1.7-3.8-5.5-3.8-11.3V530c0-4.3,0.7-7.3,2-8.8
	c1.4-1.6,4.7-3.4,10.1-5.5c5.8-2.3,8.9-3.8,9.3-4.6c0.4-0.8,0.6-2.4,0.6-4.8c0-3-0.2-5-0.7-5.9c-0.4-0.9-1.2-1.4-2.2-1.4
	c-1.2,0-1.9,0.4-2.2,1.2c-0.3,0.8-0.4,2.8-0.4,6V512.3z M231.3,520.2c-2.8,2.1-4.4,3.8-4.9,5.2s-0.7,3.4-0.7,6c0,3,0.2,4.9,0.6,5.8
	c0.4,0.9,1.2,1.3,2.3,1.3c1.1,0,1.8-0.3,2.2-1c0.3-0.7,0.5-2.5,0.5-5.4V520.2z"/>
<path id="love_2_" d="M269.5,374.2v64H253v-64H269.5z M311.4,404.1V417c0,4.7-0.2,8.2-0.7,10.4c-0.5,2.2-1.5,4.3-3,6.2
	c-1.6,1.9-3.6,3.3-6,4.2c-2.4,0.9-5.2,1.4-8.4,1.4c-3.5,0-6.5-0.4-9-1.2c-2.5-0.8-4.4-2-5.7-3.5c-1.4-1.6-2.3-3.5-2.9-5.7
	c-0.6-2.2-0.9-5.6-0.9-10v-13.4c0-4.9,0.5-8.7,1.6-11.4c1.1-2.7,3-4.9,5.7-6.6c2.7-1.7,6.2-2.5,10.5-2.5c3.6,0,6.7,0.5,9.2,1.6
	c2.6,1.1,4.6,2.5,6,4.2s2.4,3.5,2.9,5.3C311.1,397.7,311.4,400.4,311.4,404.1z M295.4,400.2c0-2.7-0.1-4.4-0.4-5.1
	c-0.3-0.7-0.9-1-1.9-1s-1.6,0.3-1.9,1c-0.3,0.7-0.5,2.4-0.5,5.1v23.7c0,2.5,0.2,4.1,0.5,4.8c0.3,0.8,0.9,1.1,1.9,1.1
	c0.9,0,1.6-0.3,1.9-1s0.5-2.2,0.5-4.4V400.2z M349.7,385.7l-7.5,52.5h-20.9l-8-52.5h14.3l4.5,38.3c0.4-2.8,1-9.7,1.8-20.6
	c0.5-6.1,1-12,1.5-17.7H349.7z M388.2,412.9h-20.7v11.4c0,2.4,0.2,3.9,0.5,4.6s1,1,2,1c1.2,0,2-0.5,2.4-1.4c0.4-0.9,0.6-2.7,0.6-5.3
	v-6.9h15.1v3.9c0,3.2-0.2,5.7-0.6,7.5c-0.4,1.7-1.4,3.6-2.9,5.6c-1.5,2-3.4,3.5-5.7,4.4c-2.3,1-5.2,1.5-8.7,1.5
	c-3.4,0-6.4-0.5-8.9-1.5c-2.6-1-4.6-2.3-6-4c-1.4-1.7-2.4-3.6-3-5.6c-0.6-2-0.8-5-0.8-8.9v-15.3c0-4.6,0.6-8.2,1.9-10.9
	c1.2-2.6,3.3-4.7,6.1-6.1c2.8-1.4,6.1-2.1,9.7-2.1c4.5,0,8.2,0.8,11.1,2.6c2.9,1.7,5,4,6.1,6.8c1.2,2.8,1.8,6.8,1.8,11.8V412.9z
	 M372.2,404.3v-3.8c0-2.7-0.1-4.5-0.4-5.3c-0.3-0.8-0.9-1.2-1.8-1.2c-1.1,0-1.8,0.3-2.1,1c-0.3,0.7-0.4,2.5-0.4,5.4v3.8H372.2z"/>
<path id="my_1_" d="M346,446.5l-0.2,3.4c0.8-1.3,1.8-2.4,3-3c1.2-0.7,2.5-1,4-1c2.9,0,5.2,1.3,6.8,4c0.9-1.3,1.9-2.4,3.1-3
	c1.1-0.7,2.4-1,3.8-1c1.8,0,3.4,0.4,4.6,1.3c1.2,0.9,2,2,2.3,3.3c0.3,1.3,0.5,3.4,0.5,6.3v25.3h-10.5v-23.2c0-3-0.1-4.9-0.3-5.7
	c-0.2-0.7-0.7-1.1-1.4-1.1c-0.8,0-1.3,0.4-1.5,1.1c-0.2,0.7-0.3,2.6-0.3,5.7v23.2h-10.5v-22.6c0-3.5-0.1-5.6-0.3-6.3
	c-0.2-0.7-0.6-1-1.4-1c-0.5,0-0.9,0.2-1.2,0.6c-0.3,0.4-0.5,0.8-0.6,1.3c0,0.5-0.1,1.7-0.1,3.4v24.7h-10.5v-35.6H346z M400.4,446.5
	l-3.1,25.8c-0.5,4.1-0.9,6.9-1.2,8.4c-0.3,1.5-0.9,2.7-1.7,3.7s-1.8,1.7-3.2,2.1c-1.4,0.5-3.6,0.7-6.6,0.7H378v-5.7
	c1.7,0,2.8-0.1,3.3-0.3c0.5-0.2,0.7-0.6,0.7-1.1c0-0.3-0.2-1.5-0.7-3.7l-5.9-29.8h9.8l3.6,24.1l1.7-24.1H400.4z"/>
<path id="you_1_" d="M268.3,443.6l-2.8,23c-0.4,3.6-0.8,6.1-1.1,7.4c-0.3,1.3-0.8,2.4-1.5,3.3s-1.6,1.5-2.9,1.9
	c-1.2,0.4-3.2,0.6-5.8,0.6h-5.9v-5.1c1.5,0,2.5-0.1,2.9-0.2c0.4-0.2,0.6-0.5,0.6-1c0-0.3-0.2-1.4-0.6-3.3l-5.3-26.6h8.8l3.2,21.4
	l1.5-21.4H268.3z M291.9,454.8v7.8c0,2.9-0.1,4.9-0.4,6.3c-0.3,1.3-0.9,2.6-1.8,3.7c-0.9,1.2-2.1,2-3.6,2.6
	c-1.5,0.5-3.2,0.8-5.1,0.8c-2.1,0-3.9-0.2-5.4-0.7c-1.5-0.5-2.6-1.2-3.5-2.1c-0.8-0.9-1.4-2.1-1.8-3.4c-0.4-1.3-0.5-3.4-0.5-6.1
	v-8.1c0-3,0.3-5.3,1-6.9c0.6-1.7,1.8-3,3.4-4c1.7-1,3.8-1.5,6.4-1.5c2.2,0,4,0.3,5.6,1c1.6,0.6,2.8,1.5,3.6,2.5
	c0.8,1,1.4,2.1,1.7,3.2C291.7,450.9,291.9,452.5,291.9,454.8z M282.2,452.4c0-1.6-0.1-2.7-0.3-3.1c-0.2-0.4-0.6-0.6-1.1-0.6
	s-1,0.2-1.1,0.6c-0.2,0.4-0.3,1.4-0.3,3.1v14.3c0,1.5,0.1,2.5,0.3,2.9c0.2,0.5,0.6,0.7,1.1,0.7c0.6,0,1-0.2,1.1-0.6
	c0.2-0.4,0.3-1.3,0.3-2.7V452.4z M317.2,443.6v31.7h-9.8l0.2-2.6c-0.7,1.1-1.5,1.9-2.5,2.4c-1,0.5-2.1,0.8-3.4,0.8
	c-1.5,0-2.7-0.3-3.6-0.8c-1-0.5-1.7-1.2-2.1-2c-0.5-0.8-0.7-1.7-0.8-2.6c-0.1-0.9-0.2-2.7-0.2-5.5v-21.4h9.7v21.6
	c0,2.5,0.1,3.9,0.2,4.4c0.2,0.5,0.6,0.7,1.2,0.7c0.7,0,1.1-0.2,1.3-0.7c0.1-0.5,0.2-2,0.2-4.6v-21.4H317.2z"/>
<path id="give_1_" d="M418.4,381l-21,0.1c-2.8,0-4.7-0.1-5.5-0.2c-0.8-0.1-1.7-0.6-2.6-1.4c-0.9-0.8-1.6-1.9-2.1-3.3
	s-0.7-3.2-0.7-5.3c0-2.6,0.4-4.8,1.3-6.4s2.6-2.4,5.3-2.5l0,8c-1.2,0-1.8,0.4-1.8,1.3c0,0.6,0.2,1,0.6,1.2s1.1,0.3,2.3,0.3l2.1,0
	c-0.6-0.7-1.1-1.5-1.5-2.2c-0.3-0.8-0.5-1.6-0.5-2.5c0-1.5,0.3-2.7,0.9-3.7c0.6-1,1.4-1.6,2.4-2s2.4-0.5,4.2-0.5l9.9,0
	c2.6,0,4.4,0.5,5.6,1.4s1.7,2.3,1.7,4.2c0,1-0.2,2-0.6,2.8c-0.4,0.9-1.1,1.6-1.9,2.3l2.1,0.6L418.4,381z M411.2,372.7
	c1.2,0,2-0.1,2.4-0.2c0.3-0.1,0.5-0.5,0.5-1c0-0.5-0.2-0.8-0.6-1c-0.4-0.2-1.2-0.3-2.3-0.3l-9.1,0c-1.2,0-2,0.1-2.4,0.2
	c-0.4,0.2-0.5,0.5-0.5,0.9c0,0.5,0.2,0.9,0.7,1.1c0.4,0.2,1.4,0.2,3,0.2L411.2,372.7z M418.5,392.4l-27.2,0.1l0-8.5l27.2-0.1
	L418.5,392.4z M424.4,392.4l-4.3,0l0-8.5l4.3,0L424.4,392.4z M418.5,412.6l-27.2-3.8l0-10.8l27.2-4.2l0,7.4l-19.9,2.4
	c1.5,0.2,5,0.5,10.7,0.9c3.2,0.2,6.2,0.5,9.2,0.8L418.5,412.6z M404.5,432.6l0-10.7l-5.9,0c-1.2,0-2,0.1-2.4,0.3s-0.5,0.5-0.5,1
	c0,0.6,0.2,1,0.7,1.3s1.4,0.3,2.7,0.3l3.6,0l0,7.9l-2,0c-1.7,0-3-0.1-3.9-0.3c-0.9-0.2-1.9-0.7-2.9-1.5c-1-0.8-1.8-1.8-2.3-3
	c-0.5-1.2-0.8-2.7-0.8-4.5c0-1.8,0.2-3.3,0.7-4.6s1.2-2.4,2.1-3.1c0.9-0.7,1.8-1.3,2.9-1.6c1.1-0.3,2.6-0.4,4.6-0.4l7.9,0
	c2.4,0,4.3,0.3,5.6,1c1.4,0.6,2.4,1.7,3.2,3.2c0.7,1.5,1.1,3.1,1.1,5c0,2.3-0.4,4.2-1.3,5.8c-0.9,1.5-2,2.6-3.5,3.2
	c-1.5,0.6-3.5,0.9-6.1,0.9L404.5,432.6z M408.9,424.3l2,0c1.4,0,2.3-0.1,2.7-0.2c0.4-0.2,0.6-0.5,0.6-0.9c0-0.6-0.2-0.9-0.5-1.1
	s-1.3-0.2-2.8-0.2l-2,0L408.9,424.3z"/>
<path id="gonna2_1_" d="M302.1,346v20c0,2.7-0.1,4.4-0.2,5.2c-0.1,0.8-0.6,1.6-1.3,2.5c-0.8,0.9-1.8,1.5-3.2,2s-3,0.7-5.1,0.7
	c-2.5,0-4.5-0.4-6.1-1.3s-2.3-2.5-2.4-5h7.7c0,1.1,0.4,1.7,1.2,1.7c0.6,0,1-0.2,1.2-0.5c0.2-0.4,0.3-1.1,0.3-2.2v-2
	c-0.7,0.6-1.4,1.1-2.1,1.4c-0.7,0.3-1.5,0.5-2.4,0.5c-1.4,0-2.6-0.3-3.5-0.9s-1.5-1.3-1.9-2.3c-0.3-0.9-0.5-2.3-0.5-4v-9.4
	c0-2.5,0.4-4.2,1.3-5.3c0.9-1.1,2.2-1.6,4-1.6c1,0,1.9,0.2,2.7,0.6c0.8,0.4,1.5,1,2.2,1.8l0.6-2H302.1z M294.2,352.9
	c0-1.2-0.1-1.9-0.2-2.3s-0.4-0.5-0.9-0.5c-0.5,0-0.8,0.2-1,0.6c-0.2,0.4-0.3,1.1-0.3,2.2v8.7c0,1.2,0.1,1.9,0.2,2.3
	c0.1,0.3,0.4,0.5,0.9,0.5c0.5,0,0.9-0.2,1-0.6s0.2-1.4,0.2-2.8V352.9z M322.8,355.1v6.3c0,2.3-0.1,4-0.4,5.1s-0.7,2.1-1.5,3
	c-0.8,0.9-1.8,1.6-3,2.1c-1.2,0.4-2.6,0.7-4.2,0.7c-1.7,0-3.2-0.2-4.4-0.6s-2.2-1-2.8-1.7c-0.7-0.8-1.1-1.7-1.4-2.8
	c-0.3-1.1-0.4-2.8-0.4-5v-6.6c0-2.4,0.3-4.3,0.8-5.6c0.5-1.4,1.5-2.4,2.8-3.3c1.4-0.8,3.1-1.2,5.2-1.2c1.8,0,3.3,0.3,4.6,0.8
	s2.2,1.2,2.9,2.1c0.7,0.8,1.2,1.7,1.4,2.6S322.8,353.3,322.8,355.1z M314.9,353.2c0-1.3-0.1-2.2-0.2-2.5c-0.1-0.3-0.4-0.5-0.9-0.5
	s-0.8,0.2-0.9,0.5s-0.2,1.2-0.2,2.5v11.7c0,1.2,0.1,2,0.2,2.4s0.5,0.6,0.9,0.6c0.5,0,0.8-0.2,0.9-0.5c0.1-0.3,0.2-1.1,0.2-2.2V353.2
	z M333.4,346l-0.1,2.4c0.6-1,1.3-1.7,2.1-2.1c0.8-0.5,1.8-0.7,2.9-0.7c1.4,0,2.5,0.3,3.3,1s1.4,1.4,1.7,2.4c0.2,1,0.4,2.6,0.4,4.9
	v18.2h-7.9V354c0-1.8-0.1-2.9-0.2-3.3s-0.4-0.6-1-0.6c-0.6,0-0.9,0.2-1.1,0.7c-0.1,0.4-0.2,1.7-0.2,3.6v17.5h-7.9V346H333.4z
	 M354.3,346l-0.1,2.4c0.6-1,1.3-1.7,2.1-2.1c0.8-0.5,1.8-0.7,2.9-0.7c1.4,0,2.5,0.3,3.3,1s1.4,1.4,1.7,2.4c0.2,1,0.4,2.6,0.4,4.9
	v18.2h-7.9V354c0-1.8-0.1-2.9-0.2-3.3s-0.4-0.6-1-0.6c-0.6,0-0.9,0.2-1.1,0.7c-0.1,0.4-0.2,1.7-0.2,3.6v17.5h-7.9V346H354.3z
	 M374.3,356h-7.4v-1.7c0-2,0.2-3.6,0.7-4.6c0.5-1.1,1.4-2,2.8-2.9c1.4-0.8,3.2-1.2,5.4-1.2c2.7,0,4.7,0.5,6,1.4
	c1.4,0.9,2.2,2.1,2.4,3.5s0.4,4.2,0.4,8.5v13H377v-2.3c-0.5,0.9-1.1,1.6-1.9,2.1s-1.7,0.7-2.7,0.7c-1.4,0-2.6-0.4-3.8-1.2
	s-1.7-2.5-1.7-5.1V364c0-1.9,0.3-3.3,0.9-4c0.6-0.7,2.1-1.5,4.6-2.5c2.6-1,4-1.7,4.2-2.1c0.2-0.4,0.3-1.1,0.3-2.1
	c0-1.4-0.1-2.2-0.3-2.6c-0.2-0.4-0.5-0.6-1-0.6c-0.5,0-0.9,0.2-1,0.5c-0.1,0.3-0.2,1.2-0.2,2.7V356z M376.8,359.6
	c-1.3,0.9-2,1.7-2.2,2.3c-0.2,0.6-0.3,1.5-0.3,2.7c0,1.3,0.1,2.2,0.3,2.6s0.5,0.6,1,0.6c0.5,0,0.8-0.2,1-0.5
	c0.1-0.3,0.2-1.1,0.2-2.4V359.6z"/>
<path id="im3_1_" class="st0" d="M202.8,416.3l43.5-0.1l0,11.3l-43.5,0.1L202.8,416.3z M202.8,405.8l3.9,0c2,0,3.7,0.2,5,0.7
	c1.3,0.5,2.4,1.3,3.3,2.5c0.9,1.2,1.5,2.5,1.8,4l-3.1,0c-0.6-1.1-1.4-1.7-2.4-1.8l0,1.8l-8.5,0L202.8,405.8z M210.6,392.1l3.4,0.2
	c-1.3-0.8-2.4-1.8-3-3c-0.7-1.2-1-2.5-1-4c0-2.9,1.3-5.2,4-6.9c-1.3-0.9-2.4-1.9-3-3.1c-0.7-1.1-1-2.4-1-3.8c0-1.8,0.4-3.4,1.3-4.6
	c0.9-1.2,2-2,3.3-2.3c1.3-0.3,3.4-0.5,6.3-0.5l25.3-0.1l0,10.5l-23.2,0.1c-3,0-4.9,0.1-5.7,0.3c-0.7,0.2-1.1,0.7-1.1,1.4
	c0,0.8,0.4,1.3,1.1,1.5s2.6,0.3,5.7,0.3l23.2-0.1l0,10.5l-22.6,0.1c-3.5,0-5.6,0.1-6.3,0.3s-1,0.6-1,1.4c0,0.5,0.2,0.9,0.6,1.2
	c0.4,0.3,0.8,0.5,1.3,0.6c0.5,0,1.7,0,3.4,0l24.7-0.1l0,10.5l-35.6,0.1L210.6,392.1z"/>
<path id="it_1_" d="M314.9,89.4v9.3h-18.3v-9.3H314.9z M314.9,102.2v58.3h-18.3v-58.3H314.9z M340,94.5v9.2h4.8v9.2H340v31.2
	c0,3.8,0.2,6,0.6,6.4c0.4,0.4,2,0.7,4.9,0.7v9.4h-7.2c-4,0-6.9-0.2-8.7-0.5c-1.7-0.3-3.3-1.1-4.6-2.3c-1.3-1.2-2.1-2.6-2.5-4.2
	c-0.3-1.6-0.5-5.3-0.5-11.1v-29.6h-3.8v-9.2h3.8v-9.2H340z"/>
<path id="need2_1_" d="M362.6,12.9l-2.8,1.8c1.5-0.1,2.9,0.1,4.1,0.6c1.2,0.5,2.2,1.4,3.1,2.6c1.1,1.5,1.6,3,1.6,4.5
	s-0.5,2.7-1.4,3.8c-0.9,1.1-2.6,2.5-5.1,4.3L341.7,45l-6.3-8.8l20.1-14.3c2-1.4,3.2-2.4,3.5-2.8c0.3-0.4,0.3-1-0.1-1.6
	c-0.4-0.6-1-0.8-1.6-0.6c-0.6,0.2-2,1.1-4.2,2.6l-19.6,14l-6.3-8.8l29-20.7L362.6,12.9z M372.1,58.1L364,46.6l-6.3,4.5
	c-1.3,0.9-2.1,1.6-2.3,2.1c-0.2,0.5-0.2,1,0.2,1.5c0.5,0.7,1,0.9,1.7,0.8c0.7-0.1,1.7-0.7,3.2-1.7l3.8-2.7l6,8.4l-2.1,1.5
	c-1.8,1.3-3.2,2.2-4.4,2.6c-1.1,0.5-2.5,0.7-4.2,0.6c-1.7,0-3.3-0.5-4.7-1.4s-2.9-2.3-4.2-4.2c-1.3-1.9-2.2-3.7-2.7-5.5
	s-0.5-3.5-0.2-4.9c0.4-1.5,1-2.8,1.9-3.9c0.9-1.1,2.4-2.4,4.6-4l8.5-6c2.5-1.8,4.8-2.9,6.7-3.3c2-0.4,3.9,0,5.8,1
	c1.9,1,3.6,2.5,5,4.5c1.8,2.5,2.8,4.9,3,7.1c0.2,2.3-0.2,4.3-1.3,6.1c-1.1,1.8-3,3.6-5.9,5.6L372.1,58.1z M370.5,45.8l2.1-1.5
	c1.5-1.1,2.4-1.8,2.7-2.3c0.3-0.5,0.3-1,0-1.5c-0.4-0.6-0.9-0.9-1.4-0.7c-0.5,0.1-1.5,0.8-3.2,1.9l-2.1,1.5L370.5,45.8z M388.5,80.9
	l-8.2-11.4L374,74c-1.3,0.9-2.1,1.6-2.3,2.1c-0.2,0.5-0.2,1,0.2,1.5c0.5,0.7,1.1,0.9,1.7,0.8c0.7-0.1,1.7-0.7,3.2-1.7l3.8-2.7l6,8.4
	l-2.1,1.5c-1.8,1.3-3.2,2.2-4.4,2.6c-1.1,0.5-2.5,0.7-4.2,0.6c-1.7,0-3.3-0.5-4.7-1.4c-1.5-0.9-2.9-2.3-4.2-4.2
	c-1.3-1.9-2.2-3.7-2.7-5.5c-0.5-1.8-0.5-3.5-0.2-4.9c0.4-1.5,1-2.8,1.9-3.9c0.9-1.1,2.4-2.4,4.6-4l8.5-6c2.5-1.8,4.8-2.9,6.7-3.3
	c2-0.4,3.9,0,5.8,1c1.9,1,3.6,2.5,5,4.5c1.8,2.5,2.8,4.9,3,7.1c0.2,2.3-0.2,4.3-1.3,6.1c-1.1,1.8-3,3.6-5.9,5.6L388.5,80.9z
	 M386.9,68.7l2.1-1.5c1.5-1.1,2.4-1.8,2.7-2.3c0.3-0.5,0.3-1,0-1.5c-0.4-0.6-0.9-0.9-1.4-0.7c-0.5,0.1-1.5,0.8-3.2,1.9l-2.1,1.5
	L386.9,68.7z M426.3,88.6l-35.4,25.3l-6.3-8.8l2.1-1.5c-1.5-0.2-2.8-0.6-3.9-1.3c-1.1-0.6-2-1.4-2.7-2.5c-1-1.4-1.5-2.8-1.5-4.3
	c0-1.5,0.4-2.8,1.1-3.7c0.7-1,2.2-2.2,4.3-3.7l13.6-9.7c2.2-1.6,3.9-2.6,5-3c1.1-0.4,2.4-0.3,3.9,0.2s2.7,1.5,3.7,2.9
	c0.8,1.1,1.3,2.2,1.6,3.4c0.3,1.2,0.3,2.4,0,3.7l8.2-5.9L426.3,88.6z M406.3,89.6c1.1-0.8,1.7-1.4,1.9-1.8c0.2-0.4,0.2-0.9-0.2-1.5
	c-0.4-0.5-0.8-0.8-1.2-0.7c-0.5,0.1-1.3,0.5-2.4,1.3L390.1,97c-1.2,0.8-1.9,1.5-2.1,1.9c-0.2,0.4-0.2,0.9,0.2,1.4
	c0.4,0.6,0.9,0.8,1.4,0.7c0.6-0.1,1.6-0.7,3.3-1.9L406.3,89.6z"/>
<path id="you2_1_" d="M352,70.4l-13.7,7.5c-2.2,1.2-3.7,2-4.5,2.3c-0.8,0.4-1.6,0.5-2.4,0.5c-0.7,0-1.5-0.3-2.2-0.8
	c-0.7-0.5-1.6-1.5-2.6-3l-2.3-3.2l2.8-2c0.6,0.8,1,1.3,1.3,1.5c0.3,0.2,0.5,0.2,0.8,0c0.1-0.1,0.7-0.6,1.6-1.6l12.5-13.3l3.4,4.8
	l-10.5,10.1l12.4-7.5L352,70.4z M355.1,87.7l-4.3,3c-1.6,1.1-2.8,1.9-3.6,2.2c-0.8,0.4-1.8,0.5-2.8,0.5c-1-0.1-1.9-0.4-2.8-1
	S340,91,339.2,90c-0.8-1.2-1.4-2.3-1.7-3.3c-0.3-1-0.4-1.9-0.2-2.7c0.2-0.8,0.6-1.6,1.2-2.3c0.6-0.7,1.6-1.6,3.1-2.7l4.5-3.2
	c1.6-1.2,3-1.9,4.2-2.2c1.2-0.3,2.3-0.2,3.5,0.3c1.2,0.5,2.3,1.5,3.3,2.9c0.8,1.2,1.4,2.3,1.7,3.4c0.3,1.1,0.3,2.1,0,3
	c-0.2,0.9-0.6,1.6-1.1,2.2S356.4,86.8,355.1,87.7z M352.7,81.5c0.9-0.6,1.4-1.1,1.6-1.3c0.2-0.3,0.1-0.6-0.1-0.9
	c-0.2-0.3-0.5-0.4-0.8-0.4c-0.3,0.1-0.9,0.4-1.8,1l-7.9,5.6c-0.8,0.6-1.3,1-1.5,1.3c-0.2,0.3-0.2,0.6,0.1,0.9
	c0.2,0.3,0.5,0.4,0.8,0.4c0.3-0.1,0.8-0.4,1.6-0.9L352.7,81.5z M371.1,97.2l-17.4,12.4l-3.8-5.4l1.5-0.9c-0.8,0.1-1.6-0.1-2.3-0.4
	c-0.7-0.3-1.3-0.8-1.8-1.5c-0.6-0.8-0.9-1.6-1-2.3c-0.1-0.7,0-1.4,0.3-2c0.3-0.6,0.7-1.1,1.1-1.5s1.4-1.2,2.9-2.2l11.7-8.4l3.8,5.3
	l-11.8,8.5c-1.4,1-2.1,1.6-2.3,1.8c-0.2,0.3-0.2,0.6,0.1,0.9c0.3,0.4,0.6,0.5,0.9,0.4c0.3-0.1,1.2-0.7,2.6-1.7l11.7-8.4L371.1,97.2z
	"/>
<path id="honey" d="M274.9,87.7l2.4,3.3l-6.3,4.5l-2.4-3.3L274.9,87.7z M274,73.6l3.1,4.3c0.1-0.7,0.4-1.3,0.7-1.8
	c0.3-0.5,0.8-1,1.3-1.4c0.8-0.6,1.7-0.9,2.6-0.9c0.9,0,1.6,0.2,2.1,0.7c0.5,0.5,1.3,1.4,2.4,2.9l7.8,10.9l-4.8,3.4l-7.9-11.1
	c-0.7-0.9-1.1-1.5-1.4-1.7c-0.3-0.2-0.6-0.2-0.9,0c-0.3,0.2-0.4,0.5-0.3,0.8c0.1,0.3,0.4,0.9,1,1.7l8.1,11.3l-4.8,3.4L269.2,77
	L274,73.6z M299.3,69.2l2.8,3.9c1,1.4,1.7,2.5,2,3.3c0.3,0.8,0.5,1.6,0.4,2.5c-0.1,0.9-0.4,1.8-0.9,2.6c-0.5,0.8-1.3,1.5-2.2,2.2
	c-1.1,0.8-2.1,1.3-3,1.6c-0.9,0.3-1.7,0.3-2.5,0.2c-0.7-0.2-1.4-0.5-2.1-1.1c-0.7-0.5-1.5-1.5-2.4-2.8l-2.9-4.1
	c-1.1-1.5-1.7-2.7-2-3.8c-0.3-1.1-0.2-2.1,0.3-3.2s1.3-2.1,2.6-3c1.1-0.8,2.1-1.3,3.1-1.5c1-0.2,1.9-0.2,2.7,0c0.8,0.2,1.5,0.5,2,1
	C297.9,67.3,298.5,68,299.3,69.2z M293.7,71.4c-0.6-0.8-1-1.3-1.2-1.4c-0.2-0.1-0.5-0.1-0.8,0.1s-0.4,0.4-0.3,0.7
	c0.1,0.3,0.4,0.8,1,1.6l5.1,7.1c0.5,0.7,0.9,1.2,1.2,1.4c0.3,0.2,0.5,0.1,0.8-0.1c0.3-0.2,0.4-0.4,0.3-0.7s-0.3-0.7-0.8-1.4
	L293.7,71.4z M301.9,59l1,1.5c-0.1-0.8,0.1-1.6,0.3-2.2s0.8-1.2,1.4-1.7c0.8-0.6,1.6-0.9,2.4-0.9c0.8,0,1.5,0.3,2.1,0.7
	c0.6,0.5,1.4,1.4,2.3,2.8l7.9,11.1l-4.8,3.4l-7.8-11c-0.8-1.1-1.3-1.7-1.5-1.9c-0.2-0.2-0.5-0.2-0.9,0.1c-0.3,0.2-0.5,0.5-0.3,0.9
	c0.1,0.3,0.6,1.1,1.4,2.3l7.6,10.7l-4.8,3.4L297,62.5L301.9,59z M326.5,53.8l-6.2,4.5l2.4,3.4c0.5,0.7,0.9,1.1,1.1,1.3
	c0.3,0.1,0.5,0.1,0.8-0.1c0.4-0.3,0.5-0.6,0.4-0.9c-0.1-0.4-0.4-0.9-1-1.7l-1.5-2.1l4.6-3.3l0.8,1.2c0.7,1,1.2,1.8,1.4,2.4
	c0.3,0.6,0.4,1.4,0.3,2.3c0,0.9-0.3,1.8-0.8,2.6c-0.5,0.8-1.2,1.6-2.3,2.3c-1,0.7-2,1.2-3,1.5c-1,0.3-1.9,0.3-2.7,0.1
	c-0.8-0.2-1.5-0.6-2.1-1s-1.3-1.3-2.2-2.5l-3.3-4.6c-1-1.4-1.6-2.6-1.8-3.7c-0.2-1.1,0-2.1,0.5-3.1c0.5-1,1.4-1.9,2.5-2.7
	c1.4-1,2.6-1.5,3.9-1.6s2.3,0.1,3.3,0.7c1,0.6,2,1.7,3.1,3.2L326.5,53.8z M319.8,54.6l-0.8-1.2c-0.6-0.8-1-1.3-1.3-1.5
	s-0.5-0.2-0.8,0c-0.3,0.2-0.5,0.5-0.4,0.7c0.1,0.3,0.4,0.8,1.1,1.7l0.8,1.2L319.8,54.6z M332.3,37.2l6.8,12.4c1.1,2,1.8,3.3,2.1,4.1
	s0.5,1.5,0.4,2.2c0,0.7-0.3,1.3-0.7,2c-0.5,0.6-1.4,1.4-2.7,2.4l-2.9,2.1l-1.8-2.5c0.7-0.5,1.2-0.9,1.4-1.1s0.1-0.5,0-0.7
	c-0.1-0.1-0.6-0.6-1.5-1.4l-12.1-11.4l4.4-3.1l9.2,9.6l-6.9-11.2L332.3,37.2z"/>
<path id="a2" d="M259.8,98.3l-4.5,3.2l-0.8-1.1c-0.9-1.2-1.4-2.3-1.6-3.1c-0.2-0.9,0-1.9,0.4-3c0.5-1.1,1.4-2.2,2.8-3.1
	c1.6-1.2,3.1-1.8,4.3-1.8c1.2,0,2.2,0.3,3,1.1c0.8,0.7,2.1,2.4,3.9,5l5.7,7.9l-4.7,3.3l-1-1.4c0.1,0.8,0,1.5-0.2,2.1
	s-0.7,1.2-1.4,1.6c-0.8,0.6-1.8,0.9-2.8,0.9c-1,0-2.1-0.8-3.3-2.4l-0.9-1.3c-0.8-1.2-1.2-2.1-1.2-2.8c0.1-0.7,0.6-1.9,1.7-3.5
	c1.1-1.7,1.7-2.8,1.6-3.1c0-0.3-0.3-0.8-0.8-1.4c-0.6-0.8-1-1.3-1.3-1.5s-0.6-0.1-0.9,0.1c-0.3,0.2-0.5,0.5-0.4,0.8
	c0.1,0.3,0.4,0.8,1.1,1.7L259.8,98.3z M262.9,99.3c-0.4,1.1-0.5,1.9-0.3,2.4c0.1,0.5,0.5,1.1,1,1.8c0.6,0.8,1,1.3,1.3,1.5
	c0.3,0.2,0.6,0.1,0.9-0.1c0.3-0.2,0.4-0.4,0.4-0.7c0-0.3-0.3-0.8-0.9-1.6L262.9,99.3z"/>
<path id="inside_1_" d="M119.2,331.7L100.5,355l-7.3-5.8l18.7-23.2L119.2,331.7z M123.3,326.6l-3,3.7l-7.3-5.8l3-3.7L123.3,326.6z
	 M128.9,339.5l-1.8,2c1.2-0.4,2.3-0.6,3.4-0.4c1.1,0.2,2.1,0.6,3.1,1.4c1.2,1,2,2.1,2.3,3.2c0.3,1.2,0.2,2.3-0.2,3.4
	c-0.5,1-1.5,2.6-3.2,4.6l-13.1,16.3l-7.1-5.7l12.9-16.1c1.3-1.6,2-2.6,2.2-3.1c0.2-0.4,0-0.8-0.5-1.2c-0.5-0.4-1-0.5-1.4-0.2
	s-1.4,1.3-2.8,3.1l-12.6,15.7L103,357l18.7-23.2L128.9,339.5z M148.9,367.8l-6.3-5l1-1.3c0.9-1.1,1.3-1.8,1.5-2.2s-0.1-0.8-0.6-1.2
	c-0.4-0.3-0.8-0.4-1.2-0.3c-0.4,0.1-0.8,0.4-1.2,0.9c-0.6,0.7-0.9,1.3-1.1,1.7c-0.2,0.4-0.2,1,0,1.8c0.2,0.8,0.7,2.2,1.7,4.2
	c1.2,2.7,1.8,4.7,1.8,6.1c-0.1,1.4-0.8,3-2.1,4.6c-1.5,1.9-2.9,3.1-4.2,3.7s-2.7,0.7-4.2,0.2c-1.6-0.4-3.2-1.3-4.8-2.6
	c-1.8-1.4-3.1-3-3.9-4.5s-1.1-3.1-0.8-4.4c0.3-1.3,1.2-3,2.8-4.9l0.9-1.1l6.3,5l-1.2,1.5c-1,1.2-1.6,2.1-1.7,2.6
	c-0.1,0.5,0,0.9,0.5,1.3c0.5,0.4,1,0.6,1.4,0.5c0.4-0.1,0.9-0.5,1.6-1.3c0.9-1.1,1.3-1.9,1.3-2.4c0-0.5-0.8-2.4-2.1-5.8
	c-1.1-2.8-1.6-4.9-1.2-6.2c0.3-1.3,1-2.6,2-3.9c1.5-1.9,2.8-3,4-3.5c1.2-0.5,2.6-0.5,4.1,0c1.6,0.5,3.1,1.3,4.7,2.6
	c1.5,1.2,2.7,2.5,3.5,3.7c0.8,1.3,1.2,2.4,1.2,3.5c0.1,1.1-0.1,2-0.4,2.6c-0.3,0.6-0.9,1.6-1.9,2.7L148.9,367.8z M164.6,368.2
	L146,391.4l-7.3-5.8l18.7-23.2L164.6,368.2z M168.7,363.1l-3,3.7l-7.3-5.8l3-3.7L168.7,363.1z M187.4,378l-22.8,28.4l-7.1-5.7
	l1.4-1.7c-1.2,0.2-2.4,0.1-3.4-0.1c-1-0.2-2-0.7-2.8-1.4c-1.1-0.9-1.8-1.9-2.2-3.2c-0.3-1.2-0.3-2.3,0.1-3.2c0.4-0.9,1.3-2.3,2.6-4
	l8.7-10.9c1.4-1.8,2.6-3,3.4-3.5c0.8-0.6,1.9-0.8,3.1-0.7c1.3,0.1,2.5,0.6,3.6,1.5c0.9,0.7,1.6,1.5,2,2.4c0.5,0.9,0.8,1.9,0.8,3
	l5.3-6.6L187.4,378z M171.5,383.3c0.7-0.9,1.1-1.5,1.2-1.9c0.1-0.4-0.1-0.8-0.5-1.1c-0.4-0.3-0.8-0.4-1.2-0.3
	c-0.4,0.1-0.9,0.7-1.6,1.6l-9.1,11.4c-0.8,0.9-1.2,1.6-1.3,2c-0.1,0.4,0.1,0.8,0.4,1.1c0.5,0.4,0.9,0.4,1.3,0.2
	c0.4-0.2,1.1-1,2.2-2.3L171.5,383.3z M192.2,410.1l-9.2-7.4l-4,5c-0.8,1.1-1.3,1.8-1.4,2.2c-0.1,0.4,0.1,0.8,0.5,1.2
	c0.5,0.4,1.1,0.5,1.6,0.3c0.5-0.3,1.2-1,2.1-2.1l2.5-3.1l6.7,5.4l-1.4,1.7c-1.2,1.4-2.1,2.5-2.9,3.1c-0.8,0.6-1.9,1.1-3.3,1.5
	c-1.4,0.3-2.7,0.3-4.1-0.1c-1.4-0.4-2.8-1.2-4.4-2.4c-1.5-1.2-2.6-2.5-3.4-3.8c-0.8-1.4-1.2-2.7-1.2-3.9c0-1.3,0.2-2.4,0.7-3.5
	c0.5-1.1,1.4-2.5,2.8-4.2l5.4-6.8c1.6-2,3.2-3.4,4.7-4.1c1.5-0.7,3.1-0.9,4.9-0.5c1.8,0.4,3.4,1.2,5.1,2.5c2,1.6,3.3,3.3,4,5.1
	c0.7,1.8,0.8,3.5,0.3,5.2c-0.5,1.7-1.6,3.6-3.4,5.9L192.2,410.1z M188.1,400.6l1.4-1.7c1-1.2,1.5-2,1.7-2.5c0.2-0.5,0-0.8-0.4-1.2
	c-0.5-0.4-0.9-0.5-1.3-0.3c-0.4,0.2-1.1,1-2.1,2.3l-1.4,1.7L188.1,400.6z"/>
<path id="down_1_" d="M48.6,369.6v26.1h-6.5v-1.6c-0.6,0.6-1.3,1.1-2,1.5c-0.7,0.3-1.4,0.5-2.2,0.5c-1,0-1.9-0.3-2.6-0.8
	c-0.7-0.5-1.2-1.1-1.4-1.8c-0.2-0.7-0.3-1.8-0.3-3.4v-10c0-1.6,0.1-2.8,0.3-3.5c0.2-0.7,0.7-1.3,1.4-1.8c0.8-0.5,1.6-0.8,2.7-0.8
	c0.8,0,1.5,0.1,2.2,0.4c0.7,0.3,1.3,0.7,1.8,1.3v-6.1H48.6z M42.1,379.7c0-0.8-0.1-1.3-0.2-1.6s-0.4-0.4-0.8-0.4
	c-0.4,0-0.6,0.1-0.8,0.4c-0.1,0.2-0.2,0.8-0.2,1.6v10.5c0,0.9,0.1,1.4,0.2,1.7c0.1,0.3,0.4,0.4,0.7,0.4c0.4,0,0.7-0.2,0.8-0.5
	c0.1-0.3,0.2-1.1,0.2-2.2V379.7z M65.7,381.8v5.2c0,1.9-0.1,3.3-0.3,4.2c-0.2,0.9-0.6,1.7-1.2,2.5c-0.6,0.8-1.4,1.4-2.4,1.7
	c-1,0.4-2.1,0.6-3.4,0.6c-1.4,0-2.7-0.2-3.7-0.5s-1.8-0.8-2.3-1.4c-0.6-0.6-0.9-1.4-1.2-2.3c-0.2-0.9-0.4-2.3-0.4-4.1v-5.5
	c0-2,0.2-3.5,0.6-4.7s1.2-2,2.3-2.7s2.5-1,4.3-1c1.5,0,2.7,0.2,3.8,0.7c1,0.4,1.9,1,2.4,1.7s1,1.4,1.2,2.2
	C65.6,379.2,65.7,380.3,65.7,381.8z M59.2,380.2c0-1.1-0.1-1.8-0.2-2.1c-0.1-0.3-0.4-0.4-0.8-0.4s-0.6,0.1-0.8,0.4
	c-0.1,0.3-0.2,1-0.2,2.1v9.7c0,1,0.1,1.7,0.2,2c0.1,0.3,0.4,0.5,0.8,0.5c0.4,0,0.6-0.1,0.8-0.4s0.2-0.9,0.2-1.8V380.2z M88.9,374.3
	l-2.6,21.4h-7.1c-0.4-2.6-0.8-6.1-1.3-10.3c-0.2,1.9-0.4,3.8-0.7,5.7l-0.7,4.6h-7.1l-2.8-21.4h5.6c0,0.6,0.5,4.6,1.4,12.2
	c0.1-0.8,0.6-4.9,1.5-12.2h5.4l1.3,12.2c0.2-3.6,0.7-7.7,1.5-12.2H88.9z M96.5,374.3l-0.1,2c0.5-0.8,1-1.4,1.7-1.8
	c0.7-0.4,1.5-0.6,2.4-0.6c1.1,0,2,0.3,2.7,0.8s1.2,1.2,1.4,2c0.2,0.8,0.3,2.1,0.3,4v15h-6.5v-14.8c0-1.5,0-2.4-0.1-2.7
	s-0.4-0.5-0.8-0.5c-0.5,0-0.8,0.2-0.9,0.6c-0.1,0.4-0.2,1.4-0.2,3v14.5h-6.5v-21.4H96.5z"/>
<path id="way" d="M47.3,344.5v3.5h-6.7v-3.5H47.3z M65.2,337.9l-2,16.8h-5.6c-0.3-2.1-0.7-4.8-1.1-8.1c-0.1,1.5-0.3,3-0.6,4.5
	l-0.6,3.7h-5.6l-2.2-16.8h4.4c0,0.4,0.4,3.7,1.1,9.6c0.1-0.6,0.4-3.8,1.2-9.6h4.2l1,9.6c0.2-2.8,0.6-6,1.2-9.6H65.2z M70.6,344.4
	h-4.8v-1.1c0-1.3,0.2-2.3,0.5-3c0.3-0.7,0.9-1.3,1.8-1.9c0.9-0.5,2.1-0.8,3.5-0.8c1.7,0,3,0.3,3.9,0.9c0.9,0.6,1.4,1.4,1.6,2.3
	c0.2,0.9,0.3,2.7,0.3,5.5v8.5h-5v-1.5c-0.3,0.6-0.7,1.1-1.2,1.4c-0.5,0.3-1.1,0.5-1.8,0.5c-0.9,0-1.7-0.3-2.5-0.8
	c-0.7-0.5-1.1-1.6-1.1-3.3v-1.4c0-1.3,0.2-2.1,0.6-2.6s1.4-1,3-1.6c1.7-0.7,2.6-1.1,2.7-1.3s0.2-0.7,0.2-1.4c0-0.9-0.1-1.5-0.2-1.7
	s-0.3-0.4-0.7-0.4c-0.3,0-0.6,0.1-0.6,0.3c-0.1,0.2-0.1,0.8-0.1,1.7V344.4z M72.3,346.7c-0.8,0.6-1.3,1.1-1.4,1.5s-0.2,1-0.2,1.8
	c0,0.9,0.1,1.4,0.2,1.7s0.3,0.4,0.7,0.4c0.3,0,0.5-0.1,0.6-0.3c0.1-0.2,0.1-0.7,0.1-1.6V346.7z M89.9,337.9L88.4,350
	c-0.2,1.9-0.4,3.2-0.6,3.9c-0.2,0.7-0.4,1.3-0.8,1.7s-0.9,0.8-1.5,1s-1.7,0.3-3.1,0.3h-3.1v-2.7c0.8,0,1.3,0,1.5-0.1
	c0.2-0.1,0.3-0.3,0.3-0.5c0-0.1-0.1-0.7-0.3-1.8l-2.8-14.1h4.7l1.7,11.4l0.8-11.4H89.9z"/>
<path id="a_1_" d="M30.6,344.1h-4.8v-1.1c0-1.3,0.2-2.3,0.5-3c0.3-0.7,0.9-1.3,1.8-1.9c0.9-0.5,2.1-0.8,3.5-0.8c1.7,0,3,0.3,3.9,0.9
	c0.9,0.6,1.4,1.4,1.6,2.3c0.2,0.9,0.3,2.7,0.3,5.5v8.5h-5v-1.5c-0.3,0.6-0.7,1.1-1.2,1.4s-1.1,0.5-1.8,0.5c-0.9,0-1.7-0.3-2.5-0.8
	c-0.7-0.5-1.1-1.6-1.1-3.3v-1.4c0-1.3,0.2-2.1,0.6-2.6s1.4-1,3-1.6c1.7-0.7,2.6-1.1,2.7-1.3s0.2-0.7,0.2-1.4c0-0.9-0.1-1.5-0.2-1.7
	s-0.3-0.4-0.7-0.4c-0.3,0-0.6,0.1-0.6,0.3c-0.1,0.2-0.1,0.8-0.1,1.7V344.1z M32.2,346.4c-0.8,0.6-1.3,1.1-1.4,1.5s-0.2,1-0.2,1.8
	c0,0.9,0.1,1.4,0.2,1.7s0.3,0.4,0.7,0.4c0.3,0,0.5-0.1,0.6-0.3c0.1-0.2,0.1-0.7,0.1-1.6V346.4z"/>
<path id="schooling_1_" d="M370.6,259.1l-9.9-3.4l0.7-2c0.6-1.7,0.8-2.8,0.8-3.3c0-0.5-0.4-0.9-1.2-1.2c-0.6-0.2-1.2-0.2-1.6,0.1
	c-0.5,0.3-0.8,0.9-1.1,1.7c-0.4,1.1-0.6,2-0.6,2.6c0,0.6,0.3,1.3,0.8,2.2c0.6,0.9,1.9,2.4,3.9,4.4c2.7,2.7,4.3,4.9,4.9,6.7
	s0.4,4-0.6,6.6c-1,3-2.2,5.1-3.5,6.4c-1.3,1.3-3,2-5.1,2.2c-2.1,0.2-4.4-0.1-7-1c-2.8-1-5.1-2.2-6.9-3.8c-1.7-1.6-2.7-3.3-2.9-5
	c-0.2-1.8,0.2-4.2,1.2-7.3l0.6-1.8l9.9,3.4l-0.8,2.3c-0.7,2-1,3.3-0.9,4s0.4,1.1,1.2,1.4c0.8,0.3,1.4,0.3,1.9,0s0.9-1.1,1.3-2.3
	c0.6-1.8,0.8-2.9,0.5-3.5c-0.3-0.6-2-2.6-5.2-6.2c-2.7-3-4.1-5.3-4.3-7.1c-0.2-1.8,0-3.7,0.7-5.7c1-2.9,2.1-5,3.4-6.1
	c1.3-1.1,2.9-1.8,5.1-1.9c2.1-0.1,4.4,0.2,6.9,1.1c2.4,0.8,4.4,1.8,5.9,3c1.5,1.2,2.5,2.5,3.1,3.8c0.6,1.3,0.8,2.5,0.7,3.4
	c-0.1,0.9-0.5,2.3-1.1,4.2L370.6,259.1z M398.5,271l-10.6-3.6l1.4-4.2c0.5-1.5,0.7-2.5,0.7-3.1s-0.4-1-1.1-1.2
	c-0.6-0.2-1.2-0.1-1.5,0.2c-0.4,0.4-0.8,1.4-1.4,3l-5.9,17.4c-0.4,1.3-0.6,2.4-0.5,3.1c0.1,0.8,0.5,1.3,1.1,1.5
	c0.8,0.3,1.4,0.1,1.9-0.5c0.5-0.6,1.1-1.8,1.7-3.7l1.5-4.4l10,3.4c-1,2.9-1.9,5.1-2.6,6.5c-0.7,1.4-1.8,2.7-3.4,3.9
	s-3.3,1.9-5.3,2.1c-2,0.2-4.2-0.1-6.6-0.9c-3.2-1.1-5.5-2.5-7-4.2c-1.5-1.7-2.3-3.7-2.4-5.9c-0.1-2.2,0.5-5.1,1.7-8.7l3.6-10.5
	c1.1-3.1,2.2-5.4,3.3-6.8s3-2.3,5.5-2.9c2.5-0.6,5.2-0.3,8.1,0.7c2.9,1,5.2,2.5,6.9,4.4c1.6,1.9,2.5,4,2.5,6.1
	C400.3,264.8,399.7,267.5,398.5,271z M420.5,254l-3.4,10.1c1.3-0.6,2.5-0.9,3.8-0.9c1.3-0.1,2.5,0.1,3.8,0.6c2,0.7,3.5,1.7,4.5,3.2
	c1,1.5,1.5,2.9,1.3,4.3c-0.1,1.4-0.8,3.8-2,7.3l-8.6,25.4l-11.2-3.8l8.8-25.9c0.7-2.1,1.1-3.6,1.1-4.2c0-0.7-0.4-1.2-1.1-1.4
	c-0.7-0.2-1.3-0.1-1.7,0.5s-1,1.8-1.6,3.6l-8.9,26.3l-11.2-3.8l15.3-44.9L420.5,254z M457.3,289.9l-3.1,9c-1.1,3.3-2.1,5.7-3,7.1
	s-2.1,2.6-3.6,3.6c-1.5,1-3.3,1.5-5.2,1.5c-1.9,0.1-4-0.3-6.2-1c-2.5-0.8-4.5-1.8-6-3c-1.5-1.1-2.6-2.4-3.2-3.8
	c-0.6-1.4-0.8-3-0.7-4.7c0.1-1.7,0.7-4.1,1.8-7.2l3.2-9.4c1.2-3.4,2.4-6,3.8-7.6c1.4-1.7,3.2-2.8,5.6-3.3c2.3-0.5,5-0.3,8,0.8
	c2.5,0.9,4.5,2,6.1,3.3c1.5,1.4,2.6,2.8,3.2,4.3c0.6,1.5,0.8,3,0.7,4.4C458.7,285.3,458.2,287.3,457.3,289.9z M447,283.3
	c0.6-1.9,0.9-3.1,0.9-3.7c0-0.6-0.4-1-1.1-1.2c-0.7-0.2-1.2-0.1-1.6,0.3c-0.4,0.4-0.9,1.6-1.5,3.5l-5.7,16.6
	c-0.6,1.7-0.9,2.9-0.8,3.5s0.4,1,1,1.2c0.7,0.2,1.2,0.1,1.6-0.3c0.4-0.4,0.8-1.4,1.4-3L447,283.3z M486.3,299.8l-3.1,9
	c-1.1,3.3-2.1,5.7-3,7.1c-0.9,1.4-2.1,2.6-3.6,3.6s-3.3,1.5-5.2,1.5c-1.9,0.1-4-0.3-6.2-1c-2.5-0.8-4.5-1.8-6-3s-2.6-2.4-3.2-3.8
	c-0.6-1.4-0.8-3-0.7-4.7c0.1-1.7,0.7-4.1,1.8-7.2l3.2-9.4c1.2-3.4,2.4-6,3.8-7.6c1.4-1.7,3.2-2.8,5.6-3.3c2.3-0.5,5-0.3,8,0.8
	c2.5,0.9,4.5,2,6.1,3.3s2.6,2.8,3.2,4.3c0.6,1.5,0.8,3,0.7,4.4C487.7,295.2,487.2,297.2,486.3,299.8z M476.1,293.2
	c0.6-1.9,0.9-3.1,0.9-3.7c0-0.6-0.4-1-1.1-1.2c-0.7-0.2-1.2-0.1-1.6,0.3c-0.4,0.4-0.9,1.6-1.5,3.5l-5.7,16.6
	c-0.6,1.7-0.9,2.9-0.8,3.5c0,0.6,0.4,1,1,1.2c0.7,0.2,1.2,0.1,1.6-0.3c0.4-0.4,0.8-1.4,1.4-3L476.1,293.2z M508.7,283.9l-15.3,44.9
	l-11.5-3.9l15.3-44.9L508.7,283.9z M521.5,297.3L509,334.1l-11.5-3.9l12.5-36.8L521.5,297.3z M524.3,289.2l-2,5.9l-11.5-3.9l2-5.9
	L524.3,289.2z M536.9,302.6l-1.3,3.3c1.3-1.1,2.6-1.8,4-2s2.9-0.2,4.4,0.4c1.9,0.7,3.3,1.6,4.3,3c0.9,1.3,1.3,2.7,1.2,4.2
	s-0.7,3.9-1.8,7.1l-8.8,25.8l-11.2-3.8l8.7-25.5c0.9-2.5,1.3-4.1,1.3-4.7c0-0.6-0.3-1-1.1-1.3c-0.8-0.3-1.4-0.1-1.8,0.4
	c-0.4,0.6-1.1,2.2-2,5l-8.5,24.9l-11.2-3.8l12.5-36.8L536.9,302.6z M580.7,317.5l-9.6,28.3c-1.3,3.8-2.2,6.3-2.8,7.3s-1.6,2-3.1,2.9
	s-3.3,1.3-5.5,1.3c-2.1,0-4.7-0.5-7.6-1.5c-3.6-1.2-6.2-2.8-8-4.7c-1.8-1.9-2.1-4.7-0.9-8.3l10.9,3.7c-0.6,1.6-0.2,2.6,0.9,3
	c0.9,0.3,1.5,0.2,1.9-0.2c0.4-0.4,0.9-1.4,1.5-3l0.9-2.8c-1.3,0.5-2.5,0.9-3.7,0.9c-1.2,0.1-2.4-0.1-3.6-0.5c-2-0.7-3.5-1.7-4.6-2.9
	s-1.6-2.6-1.6-4.1s0.4-3.4,1.2-5.9l4.5-13.4c1.2-3.5,2.7-5.8,4.5-6.9c1.8-1.1,4-1.2,6.5-0.3c1.4,0.5,2.6,1.2,3.5,2.2
	c1,1,1.7,2.2,2.2,3.6l1.8-2.5L580.7,317.5z M566.2,323.4c0.6-1.7,0.8-2.8,0.8-3.3s-0.4-0.9-1.1-1.1c-0.6-0.2-1.2-0.1-1.6,0.3
	s-0.9,1.4-1.5,3l-4.2,12.4c-0.6,1.6-0.8,2.7-0.8,3.3c0,0.6,0.4,0.9,1,1.2c0.7,0.3,1.3,0.1,1.7-0.4c0.4-0.5,1-1.8,1.7-3.9
	L566.2,323.4z"/>
<path id="to_1_" d="M436.2,224.9v4.5h2.3v4.5h-2.3v15.3c0,1.9,0.1,2.9,0.3,3.1s1,0.3,2.4,0.3v4.6h-3.5c-2,0-3.4-0.1-4.2-0.2
	c-0.8-0.2-1.6-0.5-2.2-1.1c-0.6-0.6-1-1.3-1.2-2c-0.2-0.8-0.2-2.6-0.2-5.4v-14.5h-1.9v-4.5h1.9v-4.5H436.2z M460.1,238.7v7
	c0,2.6-0.1,4.4-0.4,5.6c-0.3,1.2-0.8,2.3-1.7,3.4c-0.8,1-1.9,1.8-3.3,2.3c-1.3,0.5-2.8,0.7-4.6,0.7c-1.9,0-3.5-0.2-4.9-0.6
	s-2.4-1.1-3.1-1.9c-0.7-0.9-1.3-1.9-1.6-3.1c-0.3-1.2-0.5-3-0.5-5.4v-7.3c0-2.6,0.3-4.7,0.9-6.2c0.6-1.5,1.6-2.7,3.1-3.6
	c1.5-0.9,3.4-1.4,5.7-1.4c1.9,0,3.6,0.3,5,0.9s2.5,1.3,3.2,2.3c0.8,0.9,1.3,1.9,1.6,2.9S460.1,236.7,460.1,238.7z M451.4,236.6
	c0-1.5-0.1-2.4-0.2-2.8c-0.2-0.4-0.5-0.6-1-0.6s-0.9,0.2-1,0.6c-0.2,0.4-0.3,1.3-0.3,2.8v12.9c0,1.3,0.1,2.2,0.3,2.6s0.5,0.6,1,0.6
	c0.5,0,0.9-0.2,1-0.6c0.2-0.4,0.2-1.2,0.2-2.4V236.6z"/>
<path id="back_1_" d="M359.2,204.9v6.4c0.6-0.6,1.2-1.1,1.9-1.4c0.7-0.3,1.4-0.5,2.2-0.5c0.9,0,1.7,0.1,2.4,0.4
	c0.7,0.3,1.2,0.7,1.5,1.2c0.4,0.5,0.6,1,0.6,1.5c0.1,0.5,0.1,1.6,0.1,3.2v9.9c0,1.6-0.1,2.8-0.3,3.6c-0.2,0.8-0.7,1.5-1.5,2.1
	s-1.7,0.9-2.8,0.9c-0.8,0-1.5-0.2-2.2-0.5s-1.3-0.9-1.9-1.5l-0.4,1.7h-6.3v-26.9H359.2z M361.3,216c0-1.1-0.1-1.9-0.2-2.2
	c-0.1-0.3-0.4-0.5-0.8-0.5c-0.4,0-0.7,0.2-0.8,0.5c-0.1,0.3-0.2,1.1-0.2,2.3v9.5c0,1.2,0.1,1.9,0.2,2.3c0.1,0.3,0.4,0.5,0.8,0.5
	c0.4,0,0.7-0.2,0.8-0.5c0.1-0.3,0.2-1.2,0.2-2.5V216z M376.2,218.3h-6.3v-1.5c0-1.7,0.2-3,0.6-3.9c0.4-0.9,1.2-1.7,2.4-2.4
	c1.2-0.7,2.7-1.1,4.6-1.1c2.3,0,4,0.4,5.1,1.2c1.2,0.8,1.8,1.8,2.1,3c0.2,1.2,0.3,3.6,0.3,7.2v11.1h-6.5v-2
	c-0.4,0.8-0.9,1.4-1.6,1.8s-1.4,0.6-2.3,0.6c-1.2,0-2.2-0.3-3.2-1s-1.5-2.1-1.5-4.3V225c0-1.6,0.3-2.8,0.8-3.4
	c0.5-0.6,1.8-1.3,3.9-2.1c2.2-0.9,3.4-1.4,3.5-1.7c0.2-0.3,0.2-0.9,0.2-1.8c0-1.2-0.1-1.9-0.3-2.2c-0.2-0.3-0.5-0.5-0.9-0.5
	c-0.5,0-0.7,0.1-0.8,0.4c-0.1,0.3-0.2,1.1-0.2,2.3V218.3z M378.3,221.3c-1.1,0.8-1.7,1.4-1.9,2c-0.2,0.5-0.3,1.3-0.3,2.3
	c0,1.1,0.1,1.9,0.2,2.2s0.4,0.5,0.9,0.5c0.4,0,0.7-0.1,0.8-0.4c0.1-0.3,0.2-0.9,0.2-2.1V221.3z M402.1,218h-6.3v-2.5
	c0-0.9-0.1-1.5-0.2-1.8c-0.1-0.3-0.4-0.5-0.8-0.5c-0.4,0-0.6,0.1-0.8,0.4c-0.1,0.3-0.2,0.9-0.2,1.9v10.4c0,0.8,0.1,1.4,0.3,1.8
	c0.2,0.4,0.5,0.6,0.9,0.6c0.5,0,0.8-0.2,0.9-0.6c0.2-0.4,0.2-1.2,0.2-2.3v-2.6h6c0,1.8-0.1,3.1-0.2,4s-0.5,1.8-1.1,2.7
	c-0.6,0.9-1.4,1.6-2.4,2.1c-1,0.5-2.3,0.7-3.7,0.7c-1.9,0-3.4-0.3-4.5-1c-1.1-0.6-1.9-1.6-2.3-2.7c-0.5-1.2-0.7-2.8-0.7-5v-6.3
	c0-1.9,0.2-3.3,0.6-4.2c0.4-1,1.2-1.8,2.4-2.5s2.7-1.1,4.5-1.1c1.7,0,3.2,0.4,4.5,1.1c1.2,0.7,2.1,1.7,2.5,2.8S402.1,216,402.1,218z
	 M418.6,209.7l-2.7,8.8l3.5,13.3h-6.4l-2.1-9.6l0,9.6h-6.7v-26.9h6.7l0,11.3l2.1-6.4H418.6z"/>
<path id="ya_1_" d="M297,233.7l-3.4,28.1c-0.5,4.5-1,7.5-1.3,9.1c-0.4,1.6-1,3-1.8,4c-0.8,1.1-2,1.8-3.5,2.3s-3.9,0.7-7.2,0.7h-7.2
	v-6.2c1.8,0,3-0.1,3.6-0.3c0.5-0.2,0.8-0.6,0.8-1.2c0-0.3-0.2-1.7-0.7-4.1l-6.5-32.5h10.7l3.9,26.2l1.9-26.2H297z M309.7,248.8
	h-11.1v-2.6c0-3,0.3-5.3,1-7c0.7-1.6,2.1-3.1,4.2-4.3c2.1-1.2,4.8-1.9,8.1-1.9c4,0,7,0.7,9.1,2.1c2,1.4,3.3,3.2,3.7,5.2
	c0.4,2.1,0.6,6.3,0.6,12.7v19.5h-11.5v-3.5c-0.7,1.4-1.7,2.4-2.8,3.1s-2.5,1-4.1,1c-2.1,0-4-0.6-5.7-1.7s-2.6-3.7-2.6-7.6v-3.2
	c0-2.9,0.5-4.9,1.4-5.9s3.2-2.3,6.8-3.7c3.9-1.5,6-2.5,6.2-3.1s0.4-1.6,0.4-3.2c0-2-0.2-3.4-0.5-4s-0.8-0.9-1.5-0.9
	c-0.8,0-1.3,0.3-1.5,0.8c-0.2,0.5-0.3,1.9-0.3,4V248.8z M313.4,254.1c-1.9,1.4-3,2.5-3.3,3.5s-0.5,2.3-0.5,4c0,2,0.1,3.3,0.4,3.9
	s0.8,0.9,1.6,0.9c0.7,0,1.2-0.2,1.5-0.7c0.2-0.5,0.3-1.7,0.3-3.6V254.1z"/>
<path id="send_1_" d="M252.1,254l0-8.9l1.8,0c1.5,0,2.5-0.1,2.9-0.3c0.4-0.2,0.6-0.6,0.6-1.3c0-0.6-0.2-1-0.6-1.3
	c-0.4-0.3-0.9-0.4-1.7-0.4c-1,0-1.8,0.1-2.2,0.2c-0.5,0.1-1,0.6-1.6,1.3c-0.6,0.7-1.4,2.2-2.5,4.4c-1.4,2.9-2.8,4.8-4,5.8
	c-1.3,0.9-3.1,1.4-5.5,1.4c-2.7,0-4.7-0.3-6.1-1c-1.4-0.7-2.4-1.9-3.2-3.5c-0.7-1.6-1.1-3.6-1.1-5.9c0-2.6,0.4-4.7,1.2-6.6
	c0.8-1.8,1.9-3.1,3.2-3.8c1.4-0.7,3.4-1,6.2-1l1.6,0l0,8.9l-2.1,0c-1.8,0-2.9,0.1-3.5,0.3c-0.5,0.2-0.8,0.7-0.8,1.3
	c0,0.7,0.2,1.2,0.5,1.5c0.4,0.3,1.1,0.4,2.3,0.4c1.6,0,2.6-0.2,3-0.6c0.4-0.4,1.6-2.3,3.5-5.9c1.7-3,3.2-4.8,4.5-5.4
	c1.4-0.7,3-1,4.8-1c2.6,0,4.6,0.3,5.8,1c1.3,0.7,2.2,1.9,2.9,3.5s1,3.6,1,5.8c0,2.2-0.3,4.1-0.8,5.6c-0.6,1.5-1.3,2.7-2.2,3.5
	c-0.9,0.8-1.8,1.3-2.5,1.5c-0.8,0.2-2,0.3-3.7,0.3L252.1,254z M245.6,280.3l0-13l-7.1,0c-1.5,0-2.5,0.1-2.9,0.3
	c-0.4,0.2-0.6,0.6-0.6,1.2c0,0.8,0.3,1.3,0.9,1.5c0.6,0.3,1.7,0.4,3.3,0.4l4.4,0l0,9.5l-2.4,0c-2,0-3.6-0.1-4.7-0.4
	s-2.3-0.9-3.5-1.8c-1.2-0.9-2.2-2.1-2.8-3.6c-0.6-1.5-0.9-3.3-0.9-5.5c0-2.1,0.3-4,0.9-5.6c0.6-1.6,1.4-2.9,2.5-3.8
	c1.1-0.9,2.2-1.5,3.5-1.9c1.3-0.4,3.2-0.5,5.6-0.5l9.6,0c2.9,0,5.2,0.4,6.8,1.2c1.7,0.8,3,2.1,3.8,3.8c0.9,1.8,1.3,3.8,1.3,6.1
	c0,2.8-0.5,5.2-1.6,7c-1.1,1.8-2.5,3.1-4.2,3.9c-1.8,0.7-4.3,1.1-7.5,1.1L245.6,280.3z M251,270.2l2.4,0c1.7,0,2.8-0.1,3.3-0.3
	c0.5-0.2,0.7-0.6,0.7-1.1c0-0.7-0.2-1.1-0.6-1.3c-0.4-0.2-1.6-0.2-3.4-0.2l-2.4,0L251,270.2z M262.8,293.8l-3-0.2
	c1.2,0.7,2.1,1.6,2.7,2.7c0.6,1.1,0.9,2.3,0.9,3.6c0,1.7-0.4,3.1-1.2,4.2c-0.8,1.1-1.8,1.8-3.1,2.1c-1.2,0.3-3.3,0.5-6.2,0.5
	l-23.2,0.1l0-10.1l22.9-0.1c2.3,0,3.7-0.1,4.2-0.2c0.5-0.1,0.7-0.6,0.7-1.2c0-0.7-0.3-1.2-0.9-1.3c-0.6-0.2-2.1-0.3-4.6-0.3
	l-22.3,0.1l0-10.1l33-0.1L262.8,293.8z M270.2,333.1l-40.3,0.1l0-10.1l2.4,0c-1-1-1.8-2-2.3-3c-0.5-1.1-0.8-2.2-0.8-3.3
	c0-1.6,0.4-2.9,1.2-4.1c0.8-1.1,1.8-1.9,2.8-2.2c1.1-0.3,2.8-0.5,5.3-0.5l15.5,0c2.5,0,4.3,0.2,5.4,0.5c1.1,0.3,2,1.1,2.8,2.2
	c0.8,1.2,1.2,2.5,1.2,4.2c0,1.2-0.2,2.4-0.7,3.4c-0.4,1-1.1,2-2,2.8l9.4,0L270.2,333.1z M254.5,323.1c1.2,0,2-0.1,2.4-0.3
	c0.4-0.2,0.6-0.6,0.6-1.2c0-0.6-0.2-1-0.6-1.2c-0.4-0.2-1.2-0.3-2.5-0.3l-16.2,0c-1.3,0-2.2,0.1-2.7,0.3c-0.4,0.2-0.6,0.6-0.6,1.1
	c0,0.6,0.2,1.1,0.7,1.3c0.5,0.2,1.6,0.3,3.5,0.3L254.5,323.1z"/>
<path id="gonna_1_" d="M138,277.8v21.5c0,2.9-0.1,4.8-0.2,5.6c-0.1,0.8-0.6,1.7-1.4,2.7c-0.8,0.9-1.9,1.7-3.4,2.2
	c-1.4,0.5-3.3,0.7-5.5,0.7c-2.7,0-4.9-0.5-6.5-1.4c-1.6-0.9-2.5-2.7-2.5-5.4h8.2c0,1.2,0.4,1.8,1.3,1.8c0.6,0,1.1-0.2,1.3-0.6
	c0.2-0.4,0.3-1.2,0.3-2.4v-2.1c-0.7,0.7-1.5,1.2-2.3,1.5c-0.8,0.3-1.6,0.5-2.5,0.5c-1.5,0-2.8-0.3-3.8-0.9c-1-0.6-1.7-1.4-2-2.4
	c-0.4-1-0.5-2.4-0.5-4.3v-10.1c0-2.6,0.5-4.5,1.4-5.7c1-1.2,2.4-1.7,4.3-1.7c1.1,0,2,0.2,2.9,0.7s1.7,1.1,2.3,2l0.6-2.1H138z
	 M129.5,285.2c0-1.3-0.1-2.1-0.2-2.4c-0.1-0.3-0.5-0.5-1-0.5c-0.5,0-0.8,0.2-1,0.6c-0.2,0.4-0.3,1.2-0.3,2.4v9.4
	c0,1.2,0.1,2.1,0.2,2.4c0.2,0.4,0.5,0.6,1,0.6c0.6,0,0.9-0.2,1.1-0.7c0.2-0.4,0.3-1.5,0.3-3V285.2z M160.2,287.6v6.8
	c0,2.5-0.1,4.3-0.4,5.5c-0.3,1.2-0.8,2.3-1.6,3.3c-0.8,1-1.9,1.8-3.2,2.2c-1.3,0.5-2.8,0.7-4.5,0.7c-1.9,0-3.5-0.2-4.8-0.6
	c-1.3-0.4-2.3-1-3-1.9s-1.2-1.8-1.5-3c-0.3-1.2-0.5-3-0.5-5.3v-7.1c0-2.6,0.3-4.6,0.8-6.1c0.6-1.5,1.6-2.6,3-3.5s3.3-1.3,5.6-1.3
	c1.9,0,3.5,0.3,4.9,0.9c1.4,0.6,2.4,1.3,3.2,2.2c0.7,0.9,1.2,1.8,1.5,2.8C160.1,284.2,160.2,285.7,160.2,287.6z M151.7,285.5
	c0-1.4-0.1-2.3-0.2-2.7c-0.2-0.4-0.5-0.6-1-0.6s-0.8,0.2-1,0.6c-0.2,0.4-0.3,1.3-0.3,2.7v12.6c0,1.3,0.1,2.2,0.3,2.6
	c0.2,0.4,0.5,0.6,1,0.6c0.5,0,0.8-0.2,1-0.5c0.2-0.4,0.2-1.1,0.2-2.4V285.5z M171.7,277.8l-0.1,2.6c0.6-1,1.4-1.8,2.3-2.3
	s1.9-0.8,3.1-0.8c1.5,0,2.6,0.3,3.6,1c0.9,0.7,1.5,1.6,1.8,2.6c0.3,1,0.4,2.8,0.4,5.2v19.5h-8.5v-19.3c0-1.9-0.1-3.1-0.2-3.5
	c-0.1-0.4-0.5-0.6-1-0.6c-0.6,0-1,0.2-1.1,0.7c-0.2,0.5-0.2,1.8-0.2,3.9v18.8H163v-27.9H171.7z M194.1,277.8l-0.1,2.6
	c0.6-1,1.4-1.8,2.3-2.3s1.9-0.8,3.1-0.8c1.5,0,2.6,0.3,3.6,1c0.9,0.7,1.5,1.6,1.8,2.6c0.3,1,0.4,2.8,0.4,5.2v19.5h-8.5v-19.3
	c0-1.9-0.1-3.1-0.2-3.5c-0.1-0.4-0.5-0.6-1-0.6c-0.6,0-1,0.2-1.1,0.7c-0.2,0.5-0.2,1.8-0.2,3.9v18.8h-8.5v-27.9H194.1z M215.6,288.6
	h-8v-1.9c0-2.2,0.2-3.8,0.7-5c0.5-1.2,1.5-2.2,3-3.1c1.5-0.9,3.4-1.3,5.8-1.3c2.9,0,5,0.5,6.5,1.5c1.5,1,2.3,2.3,2.6,3.7
	c0.3,1.5,0.4,4.5,0.4,9.1v14h-8.3v-2.5c-0.5,1-1.2,1.7-2,2.2c-0.8,0.5-1.8,0.7-2.9,0.7c-1.5,0-2.8-0.4-4.1-1.2
	c-1.2-0.8-1.9-2.7-1.9-5.5v-2.3c0-2.1,0.3-3.5,1-4.3c0.7-0.8,2.3-1.6,4.9-2.6c2.8-1.1,4.3-1.8,4.5-2.2c0.2-0.4,0.3-1.1,0.3-2.3
	c0-1.5-0.1-2.4-0.3-2.8c-0.2-0.4-0.6-0.7-1.1-0.7c-0.6,0-0.9,0.2-1.1,0.6c-0.1,0.4-0.2,1.3-0.2,2.9V288.6z M218.3,292.5
	c-1.4,1-2.1,1.8-2.4,2.5c-0.2,0.7-0.3,1.6-0.3,2.9c0,1.4,0.1,2.4,0.3,2.8c0.2,0.4,0.6,0.6,1.1,0.6c0.5,0,0.9-0.2,1-0.5
	c0.2-0.3,0.2-1.2,0.2-2.6V292.5z"/>
<path id="im2_1_" d="M128.2,209.3l0.2,63.2l-16.4,0l-0.2-63.2L128.2,209.3z M143.5,209.3l0,5.7c0,2.9-0.3,5.4-1,7.3
	c-0.7,1.9-1.9,3.5-3.6,4.9c-1.7,1.3-3.7,2.2-5.9,2.7l0-4.6c1.6-0.9,2.4-2,2.6-3.5l-2.7,0l0-12.4L143.5,209.3z M163.4,220.6l-0.3,4.9
	c1.2-2,2.7-3.4,4.4-4.4c1.7-1,3.6-1.5,5.8-1.5c4.2,0,7.5,1.9,10,5.8c1.3-2,2.8-3.4,4.5-4.4c1.7-1,3.5-1.5,5.5-1.5
	c2.7,0,4.9,0.6,6.7,1.9c1.8,1.3,2.9,2.9,3.4,4.8c0.5,1.9,0.8,5,0.8,9.2l0.1,36.8l-15.3,0l-0.1-33.8c0-4.4-0.2-7.2-0.5-8.2
	c-0.3-1.1-1-1.6-2.1-1.6c-1.1,0-1.8,0.5-2.2,1.6c-0.3,1-0.5,3.8-0.5,8.2l0.1,33.8l-15.3,0l-0.1-32.9c0-5.1-0.1-8.1-0.4-9.1
	c-0.3-1-0.9-1.5-2.1-1.5c-0.7,0-1.3,0.3-1.8,0.8c-0.5,0.5-0.8,1.2-0.8,2c-0.1,0.8-0.1,2.4-0.1,4.9l0.1,35.9l-15.3,0l-0.1-51.8
	L163.4,220.6z"/>
<path id="fooling_1_" d="M693.8,45.3l-7.8,0c0-3.2-0.2-5-0.5-5.6c-0.3-0.6-1.1-0.9-2.5-0.9l-1.6,0l0,6.5l-8,0l0-3.7l-41.3,0.1
	l0-15.4l41.3-0.1l0-3.2l8,0l0,3.2c3.3,0,5.5,0.1,6.7,0.3s2.1,0.8,3,1.7c0.9,0.9,1.5,2.2,2,3.8s0.7,4.2,0.7,7.6L693.8,45.3z
	 M665,83.1l-12.4,0c-4.5,0-7.9-0.2-10-0.7s-4.1-1.4-5.9-2.9c-1.8-1.5-3.2-3.4-4.1-5.8s-1.3-5-1.3-8.1c0-3.4,0.4-6.3,1.1-8.6
	c0.7-2.4,1.9-4.2,3.4-5.5c1.5-1.3,3.3-2.2,5.5-2.8c2.1-0.6,5.4-0.9,9.7-0.9l12.9,0c4.7,0,8.4,0.5,11,1.5c2.6,1,4.8,2.8,6.4,5.5
	s2.4,6,2.4,10.1c0,3.5-0.5,6.4-1.5,8.9c-1,2.5-2.4,4.4-4,5.7c-1.6,1.3-3.3,2.3-5.1,2.8C671.3,82.8,668.6,83.1,665,83.1z M668.8,67.7
	c2.6,0,4.2-0.2,4.9-0.4c0.7-0.3,1-0.9,1-1.8s-0.3-1.5-1-1.8c-0.7-0.3-2.3-0.5-4.9-0.4L646,63.3c-2.4,0-3.9,0.2-4.7,0.5
	s-1.1,0.9-1.1,1.8c0,0.9,0.3,1.5,1,1.8c0.7,0.3,2.1,0.4,4.3,0.4L668.8,67.7z M665.1,123l-12.4,0c-4.5,0-7.9-0.2-10-0.7
	c-2.1-0.5-4.1-1.4-5.9-2.9c-1.8-1.5-3.2-3.4-4.1-5.8s-1.3-5-1.3-8.1c0-3.4,0.4-6.3,1.1-8.6c0.7-2.4,1.9-4.2,3.4-5.5
	c1.5-1.3,3.3-2.2,5.5-2.8c2.1-0.6,5.4-0.9,9.7-0.9l12.9,0c4.7,0,8.4,0.5,11,1.5c2.6,1,4.8,2.8,6.4,5.5c1.6,2.6,2.4,6,2.4,10.1
	c0,3.5-0.5,6.4-1.5,8.9c-1,2.5-2.4,4.4-4,5.7s-3.3,2.3-5.1,2.8C671.4,122.7,668.7,123,665.1,123z M668.9,107.6
	c2.6,0,4.2-0.2,4.9-0.4c0.7-0.3,1-0.9,1-1.8c0-0.9-0.3-1.5-1-1.8c-0.7-0.3-2.3-0.5-4.9-0.4l-22.8,0.1c-2.4,0-3.9,0.2-4.7,0.5
	c-0.7,0.3-1.1,0.9-1.1,1.8c0,0.9,0.3,1.5,1,1.8c0.7,0.3,2.1,0.4,4.3,0.4L668.9,107.6z M694,143.8l-61.7,0.1l0-15.8L694,128
	L694,143.8z M683,165.2l-50.5,0.1l0-15.8l50.5-0.1L683,165.2z M694.1,165.2l-8,0l0-15.8l8,0L694.1,165.2z M683,186.4l-4.7-0.3
	c1.9,1.1,3.3,2.5,4.2,4.1c0.9,1.6,1.4,3.5,1.4,5.6c0,2.6-0.6,4.8-1.8,6.5c-1.2,1.7-2.8,2.8-4.7,3.2c-1.9,0.5-5,0.7-9.5,0.7
	l-35.4,0.1l0-15.4l35-0.1c3.5,0,5.6-0.1,6.4-0.4c0.8-0.2,1.1-0.9,1.1-1.9c0-1.1-0.4-1.8-1.3-2.1c-0.9-0.3-3.2-0.4-7-0.4l-34.2,0.1
	l0-15.4l50.5-0.1L683,186.4z M683.2,246.5l-38.9,0.1c-5.3,0-8.7-0.1-10.2-0.3c-1.5-0.2-3.2-1.1-4.9-2.6c-1.7-1.5-3-3.5-3.9-6.1
	c-0.9-2.6-1.4-5.9-1.4-9.9c0-4.9,0.8-8.8,2.5-11.8c1.7-3,4.9-4.5,9.8-4.6l0,14.9c-2.2,0-3.3,0.8-3.3,2.4c0,1.2,0.3,1.9,1,2.3
	s2.1,0.6,4.3,0.6l3.8,0c-1.2-1.3-2.1-2.7-2.7-4.2c-0.6-1.5-0.9-3-0.9-4.6c0-2.8,0.5-5,1.7-6.8c1.1-1.8,2.6-3,4.4-3.7
	c1.8-0.7,4.4-1,7.7-1l18.4,0c4.8,0,8.3,0.8,10.4,2.6s3.2,4.3,3.2,7.9c0,1.9-0.4,3.7-1.2,5.3s-2,3-3.5,4.3l3.8,1.1L683.2,246.5z
	 M669.7,231.1c2.3,0,3.8-0.1,4.4-0.4c0.6-0.3,0.9-0.9,0.9-1.8c0-0.9-0.4-1.5-1.1-1.9c-0.7-0.4-2.2-0.5-4.3-0.5l-17,0
	c-2.3,0-3.7,0.1-4.4,0.4c-0.7,0.3-1,0.9-1,1.8c0,1,0.4,1.7,1.2,2c0.8,0.3,2.7,0.5,5.5,0.4L669.7,231.1z"/>
<path id="not_1_" d="M531,98.5l-0.3,5.2c1.2-2.1,2.8-3.6,4.6-4.7s3.9-1.6,6.2-1.6c2.9,0,5.4,0.7,7.2,2.1c1.9,1.4,3.1,3.1,3.6,5.2
	c0.5,2.1,0.8,5.6,0.8,10.6v39.5h-17.2v-39c0-3.9-0.1-6.2-0.4-7.1c-0.3-0.8-1-1.3-2.1-1.3c-1.2,0-2,0.5-2.3,1.5
	c-0.3,1-0.5,3.6-0.5,7.8v38.1h-17.2V98.5H531z M597.8,118.3v13.8c0,5.1-0.3,8.8-0.8,11.2s-1.6,4.6-3.3,6.6s-3.8,3.6-6.4,4.5
	c-2.6,1-5.6,1.5-9,1.5c-3.8,0-7-0.4-9.6-1.3c-2.6-0.8-4.7-2.1-6.1-3.8c-1.5-1.7-2.5-3.7-3.1-6.1c-0.6-2.4-0.9-6-0.9-10.8v-14.4
	c0-5.2,0.6-9.3,1.7-12.3c1.1-2.9,3.2-5.3,6.1-7.1s6.7-2.7,11.3-2.7c3.9,0,7.2,0.6,9.9,1.7c2.8,1.1,4.9,2.6,6.4,4.5
	c1.5,1.8,2.5,3.7,3.1,5.7C597.6,111.3,597.8,114.3,597.8,118.3z M580.7,114c0-2.9-0.2-4.7-0.5-5.5s-1-1.1-2-1.1s-1.7,0.4-2,1.1
	s-0.5,2.6-0.5,5.5v25.4c0,2.7,0.2,4.4,0.5,5.2c0.3,0.8,1,1.2,2,1.2c1,0,1.7-0.4,2-1.1c0.3-0.7,0.5-2.3,0.5-4.8V114z M621.6,91v8.9
	h4.6v8.9h-4.6v30.2c0,3.7,0.2,5.8,0.6,6.2c0.4,0.4,2,0.6,4.8,0.6v9.1H620c-3.9,0-6.7-0.2-8.4-0.5s-3.1-1.1-4.4-2.3
	c-1.3-1.2-2.1-2.5-2.4-4s-0.5-5.1-0.5-10.7v-28.6h-3.7v-8.9h3.7V91H621.6z"/>
<path id="im_1_" d="M481.3,50.5l0.1,37.9l-9.9,0l-0.1-37.9L481.3,50.5z M490.5,50.5l0,3.4c0,1.8-0.2,3.2-0.6,4.4
	c-0.4,1.1-1.1,2.1-2.2,2.9c-1,0.8-2.2,1.3-3.5,1.6l0-2.7c0.9-0.5,1.5-1.2,1.6-2.1l-1.6,0l0-7.4L490.5,50.5z M502.5,57.3l-0.2,3
	c0.7-1.2,1.6-2.1,2.6-2.6c1-0.6,2.2-0.9,3.5-0.9c2.5,0,4.5,1.2,6,3.5c0.8-1.2,1.7-2.1,2.7-2.6c1-0.6,2.1-0.9,3.3-0.9
	c1.6,0,2.9,0.4,4,1.2s1.7,1.7,2,2.9s0.5,3,0.5,5.5l0.1,22.1l-9.2,0l0-20.3c0-2.7-0.1-4.3-0.3-4.9c-0.2-0.6-0.6-0.9-1.3-0.9
	c-0.7,0-1.1,0.3-1.3,0.9c-0.2,0.6-0.3,2.3-0.3,4.9l0,20.3l-9.2,0l0-19.8c0-3-0.1-4.9-0.2-5.5s-0.6-0.9-1.2-0.9
	c-0.4,0-0.8,0.2-1.1,0.5c-0.3,0.3-0.5,0.7-0.5,1.2s0,1.4,0,2.9l0.1,21.6l-9.2,0l-0.1-31.1L502.5,57.3z"/>
<path id="baby_1_" d="M463.7,183.9l9.7,0c-1-0.8-1.7-1.8-2.2-2.8c-0.5-1-0.7-2.2-0.7-3.4c0-1.4,0.2-2.6,0.7-3.7
	c0.4-1,1.1-1.8,1.8-2.4c0.8-0.5,1.6-0.9,2.3-1c0.8-0.1,2.4-0.2,4.9-0.2l15.2,0c2.5,0,4.3,0.2,5.5,0.5s2.3,1.1,3.2,2.3
	c0.9,1.2,1.3,2.7,1.3,4.3c0,1.2-0.3,2.3-0.8,3.4s-1.3,2-2.4,2.9l2.5,0.7l0,9.6l-41.1,0.1L463.7,183.9z M480.7,180.8
	c-1.7,0-2.9,0.1-3.4,0.3c-0.5,0.2-0.8,0.7-0.8,1.3c0,0.6,0.2,1,0.7,1.2c0.5,0.2,1.6,0.3,3.5,0.3l14.5,0c1.8,0,3-0.1,3.5-0.3
	c0.5-0.2,0.8-0.6,0.8-1.3c0-0.6-0.3-1.1-0.8-1.3s-1.8-0.3-3.8-0.3L480.7,180.8z M484.1,158l0,9.6l-2.3,0c-2.6,0-4.6-0.3-6-0.9
	c-1.4-0.6-2.7-1.8-3.8-3.6s-1.6-4.2-1.6-7.1c0-3.5,0.6-6.1,1.8-7.9c1.2-1.8,2.7-2.8,4.5-3.2s5.5-0.5,11-0.6l16.9,0l0,10l-3,0
	c1.2,0.6,2.1,1.4,2.7,2.4s0.9,2.2,0.9,3.5c0,1.8-0.5,3.4-1.5,4.9c-1,1.5-3.2,2.3-6.6,2.3l-2.8,0c-2.5,0-4.2-0.4-5.2-1.2
	s-2-2.8-3.2-5.9c-1.3-3.4-2.2-5.2-2.7-5.4c-0.5-0.2-1.4-0.4-2.8-0.3c-1.8,0-2.9,0.1-3.4,0.4c-0.5,0.3-0.8,0.7-0.8,1.3
	c0,0.7,0.2,1.1,0.7,1.3c0.4,0.2,1.6,0.2,3.5,0.2L484.1,158z M488.7,154.7c1.2,1.6,2.2,2.6,3,2.8c0.8,0.3,2,0.4,3.5,0.4
	c1.7,0,2.9-0.1,3.4-0.4c0.5-0.2,0.8-0.7,0.8-1.4c0-0.6-0.2-1.1-0.6-1.3c-0.4-0.2-1.4-0.3-3.1-0.3L488.7,154.7z M463.6,130.7l9.7,0
	c-1-0.8-1.7-1.8-2.2-2.8c-0.5-1-0.7-2.2-0.7-3.4c0-1.4,0.2-2.6,0.7-3.7c0.4-1,1.1-1.8,1.8-2.4c0.8-0.5,1.6-0.9,2.3-1
	c0.8-0.1,2.4-0.2,4.9-0.2l15.2,0c2.5,0,4.3,0.2,5.5,0.5c1.2,0.3,2.3,1.1,3.2,2.3c0.9,1.2,1.3,2.7,1.3,4.3c0,1.2-0.3,2.3-0.8,3.4
	c-0.5,1-1.3,2-2.4,2.9l2.5,0.7l0,9.6l-41.1,0.1L463.6,130.7z M480.6,127.5c-1.7,0-2.9,0.1-3.4,0.3c-0.5,0.2-0.8,0.7-0.8,1.3
	c0,0.6,0.2,1,0.7,1.2c0.5,0.2,1.6,0.3,3.5,0.3l14.5,0c1.8,0,3-0.1,3.5-0.3c0.5-0.2,0.8-0.6,0.8-1.3c0-0.6-0.3-1.1-0.8-1.3
	c-0.5-0.2-1.8-0.3-3.8-0.3L480.6,127.5z M470.9,92.5l24.4,2.9c3.9,0.5,6.5,0.8,7.9,1.1c1.4,0.3,2.6,0.8,3.5,1.6c0.9,0.7,1.6,1.7,2,3
	s0.7,3.4,0.7,6.2l0,6.2l-5.4,0c0-1.6-0.1-2.6-0.2-3.1c-0.2-0.5-0.5-0.7-1.1-0.7c-0.3,0-1.4,0.2-3.5,0.6l-28.2,5.7l0-9.3l22.7-3.4
	l-22.8-1.6L470.9,92.5z"/>
<path id="cooling_1_" d="M167.9,48.9l-8-11.2l4.5-3.2c1.6-1.1,2.5-2,2.9-2.7c0.4-0.7,0.3-1.3-0.2-2c-0.5-0.7-1.1-1-1.7-0.9
	s-1.8,0.8-3.5,2l-18.4,13.1c-1.4,1-2.3,1.9-2.8,2.8c-0.4,0.9-0.4,1.6,0.1,2.3c0.6,0.8,1.3,1.1,2.3,0.9s2.4-1.1,4.4-2.5l4.6-3.3
	l7.6,10.6c-3.1,2.2-5.5,3.8-7.3,4.7s-3.8,1.4-6.2,1.5c-2.4,0.1-4.7-0.5-6.8-1.7s-4.1-3.1-6-5.7c-2.4-3.4-3.7-6.4-4-9.2
	c-0.3-2.8,0.4-5.3,1.9-7.6c1.5-2.3,4.1-4.8,7.9-7.5l11.1-7.9c3.3-2.4,6.1-3.8,8.2-4.4s4.7-0.2,7.6,1c2.9,1.2,5.4,3.4,7.7,6.5
	c2.2,3.1,3.4,6.2,3.7,9.3c0.3,3.1-0.4,5.8-1.8,7.9C174.2,43.9,171.6,46.3,167.9,48.9z M190.7,78.6l-9.6,6.8c-3.5,2.5-6.2,4.2-8.1,5
	c-1.9,0.8-4,1.2-6.2,1c-2.2-0.1-4.4-0.9-6.3-2.2c-2-1.3-3.8-3.2-5.5-5.5c-1.9-2.6-3.2-5.1-3.9-7.3s-0.9-4.3-0.4-6.1
	c0.4-1.8,1.3-3.6,2.7-5.2c1.3-1.6,3.7-3.6,7-6l10-7.1c3.6-2.6,6.7-4.2,9.3-4.9c2.6-0.7,5.2-0.4,7.9,0.7c2.7,1.2,5.2,3.3,7.4,6.5
	c1.9,2.7,3.1,5.2,3.7,7.7s0.6,4.7,0.1,6.6c-0.5,1.9-1.3,3.6-2.4,4.9C195.3,74.9,193.4,76.6,190.7,78.6z M185.1,64.6
	c2-1.4,3.2-2.4,3.5-3c0.4-0.6,0.3-1.2-0.2-1.9c-0.5-0.7-1.1-1-1.8-0.9c-0.7,0.1-2,0.9-4,2.3L165,73.7c-1.8,1.3-3,2.3-3.4,2.9
	c-0.4,0.6-0.3,1.3,0.1,2c0.5,0.7,1.1,1,1.8,0.9c0.7-0.1,1.8-0.8,3.5-2L185.1,64.6z M212.6,109.4l-9.6,6.8c-3.5,2.5-6.2,4.2-8.1,5
	c-1.9,0.8-4,1.2-6.2,1c-2.2-0.1-4.4-0.9-6.3-2.2s-3.8-3.2-5.5-5.5c-1.9-2.6-3.2-5.1-3.9-7.3s-0.9-4.3-0.4-6.1
	c0.4-1.8,1.3-3.6,2.7-5.2c1.3-1.6,3.7-3.6,7-6l10-7.1c3.6-2.6,6.7-4.2,9.3-4.9c2.6-0.7,5.2-0.4,7.9,0.7c2.7,1.2,5.2,3.3,7.4,6.5
	c1.9,2.7,3.1,5.2,3.7,7.7s0.6,4.7,0.1,6.6c-0.5,1.9-1.3,3.6-2.4,4.9C217.3,105.7,215.4,107.4,212.6,109.4z M207.1,95.4
	c2-1.4,3.2-2.4,3.5-3c0.4-0.6,0.3-1.2-0.2-1.9c-0.5-0.7-1.1-1-1.8-0.9c-0.7,0.1-2,0.9-4,2.3L187,104.5c-1.8,1.3-3,2.3-3.4,2.9
	c-0.4,0.6-0.3,1.3,0.1,2c0.5,0.7,1.1,1,1.8,0.9c0.7-0.1,1.8-0.8,3.5-2L207.1,95.4z M246.5,109.6l-47.6,34l-8.7-12.2l47.6-34
	L246.5,109.6z M249.6,132.2l-39,27.9l-8.7-12.2l39-27.9L249.6,132.2z M258.2,126.1l-6.2,4.4l-8.7-12.2l6.2-4.4L258.2,126.1z
	 M261.3,148.6l-3.7,2.4c2-0.2,3.9,0.1,5.5,0.9c1.6,0.7,3,1.9,4.2,3.5c1.5,2,2.2,4,2.1,6c0,2-0.7,3.7-1.8,5.1
	c-1.2,1.4-3.5,3.3-6.9,5.8l-27.3,19.5l-8.5-11.9l27-19.3c2.7-1.9,4.3-3.2,4.7-3.8c0.5-0.6,0.4-1.3-0.2-2.1c-0.6-0.8-1.3-1.1-2.1-0.9
	c-0.8,0.3-2.7,1.5-5.7,3.5l-26.4,18.8l-8.5-11.9l39-27.9L261.3,148.6z M294.5,195l-30.1,21.5c-4.1,2.9-6.7,4.7-8.1,5.3
	s-3,0.9-5.2,0.7c-2.1-0.2-4.3-1.1-6.4-2.6c-2.1-1.5-4.3-3.8-6.5-6.9c-2.7-3.8-4.2-7.3-4.6-10.5c-0.4-3.2,1.3-6.2,5-9l8.2,11.5
	c-1.7,1.2-2.1,2.5-1.2,3.7c0.6,0.9,1.3,1.3,2.1,1.2c0.7-0.1,2-0.7,3.6-1.9l2.9-2.1c-1.7-0.4-3.1-0.9-4.4-1.7c-1.3-0.8-2.4-1.8-3.2-3
	c-1.5-2.1-2.4-4.2-2.5-6.2c-0.1-2,0.3-3.8,1.4-5.3c1-1.5,2.9-3.2,5.4-5l14.2-10.1c3.7-2.6,6.8-3.9,9.4-3.7c2.6,0.2,4.8,1.6,6.8,4.3
	c1.1,1.5,1.7,3.1,2,4.7c0.3,1.7,0.1,3.4-0.4,5.2l3.6-1.3L294.5,195z M275.6,190.4c1.8-1.3,2.8-2.2,3.2-2.7c0.3-0.6,0.3-1.2-0.2-1.9
	c-0.5-0.7-1.1-1-1.9-0.9c-0.8,0.1-2,0.8-3.6,1.9l-13.1,9.4c-1.7,1.2-2.8,2.2-3.2,2.7c-0.4,0.6-0.3,1.2,0.2,1.9
	c0.6,0.8,1.2,1.1,2,0.9c0.8-0.2,2.3-1.1,4.5-2.7L275.6,190.4z"/>
<path id="need_1_" d="M89,142.3l-0.2,3.2c0.8-1.3,1.7-2.2,2.8-2.8c1.1-0.6,2.4-0.9,3.8-0.9c1.8,0,3.3,0.4,4.4,1.3
	c1.1,0.8,1.9,1.9,2.2,3.2c0.3,1.3,0.5,3.4,0.5,6.4v24.1H92v-23.8c0-2.4-0.1-3.8-0.2-4.3s-0.6-0.8-1.3-0.8c-0.7,0-1.2,0.3-1.4,0.9
	c-0.2,0.6-0.3,2.2-0.3,4.8v23.2H78.3v-34.3H89z M129.7,160.1h-13.5v7.4c0,1.6,0.1,2.6,0.3,3c0.2,0.4,0.7,0.7,1.3,0.7
	c0.8,0,1.3-0.3,1.6-0.9c0.3-0.6,0.4-1.7,0.4-3.5v-4.5h9.9v2.5c0,2.1-0.1,3.8-0.4,4.9c-0.3,1.1-0.9,2.4-1.9,3.6s-2.2,2.3-3.7,2.9
	c-1.5,0.6-3.4,1-5.7,1c-2.2,0-4.2-0.3-5.8-1c-1.7-0.6-3-1.5-3.9-2.6c-0.9-1.1-1.6-2.3-2-3.7s-0.5-3.3-0.5-5.8v-10
	c0-3,0.4-5.4,1.2-7.1c0.8-1.7,2.1-3.1,4-4c1.8-0.9,4-1.4,6.4-1.4c2.9,0,5.4,0.6,7.3,1.7c1.9,1.1,3.2,2.6,4,4.4
	c0.8,1.8,1.2,4.4,1.2,7.8V160.1z M119.3,154.5V152c0-1.8-0.1-2.9-0.3-3.4c-0.2-0.5-0.6-0.8-1.2-0.8c-0.7,0-1.2,0.2-1.3,0.7
	c-0.2,0.4-0.3,1.6-0.3,3.6v2.5H119.3z M156.8,160.1h-13.5v7.4c0,1.6,0.1,2.6,0.3,3c0.2,0.4,0.7,0.7,1.3,0.7c0.8,0,1.3-0.3,1.6-0.9
	c0.3-0.6,0.4-1.7,0.4-3.5v-4.5h9.9v2.5c0,2.1-0.1,3.8-0.4,4.9c-0.3,1.1-0.9,2.4-1.9,3.6s-2.2,2.3-3.7,2.9c-1.5,0.6-3.4,1-5.7,1
	c-2.2,0-4.2-0.3-5.8-1c-1.7-0.6-3-1.5-3.9-2.6c-0.9-1.1-1.6-2.3-2-3.7s-0.5-3.3-0.5-5.8v-10c0-3,0.4-5.4,1.2-7.1
	c0.8-1.7,2.1-3.1,4-4c1.8-0.9,4-1.4,6.4-1.4c2.9,0,5.4,0.6,7.3,1.7c1.9,1.1,3.2,2.6,4,4.4c0.8,1.8,1.2,4.4,1.2,7.8V160.1z
	 M146.3,154.5V152c0-1.8-0.1-2.9-0.3-3.4c-0.2-0.5-0.6-0.8-1.2-0.8c-0.7,0-1.2,0.2-1.3,0.7c-0.2,0.4-0.3,1.6-0.3,3.6v2.5H146.3z
	 M184,134.8v41.9h-10.5v-2.5c-1,1-2.1,1.8-3.2,2.3c-1.1,0.5-2.3,0.8-3.5,0.8c-1.6,0-3-0.4-4.2-1.3c-1.2-0.9-2-1.8-2.3-3
	c-0.3-1.1-0.5-3-0.5-5.5v-16.1c0-2.6,0.2-4.5,0.5-5.6c0.3-1.1,1.1-2.1,2.3-2.9c1.2-0.8,2.6-1.3,4.3-1.3c1.3,0,2.5,0.2,3.6,0.7
	c1.1,0.5,2.1,1.2,2.9,2.1v-9.7H184z M173.6,151c0-1.3-0.1-2.1-0.3-2.5c-0.2-0.4-0.6-0.6-1.3-0.6c-0.6,0-1,0.2-1.3,0.6
	c-0.2,0.4-0.3,1.3-0.3,2.6v16.8c0,1.4,0.1,2.3,0.3,2.8c0.2,0.4,0.6,0.7,1.2,0.7c0.7,0,1.1-0.2,1.3-0.7c0.2-0.5,0.3-1.7,0.3-3.6V151z
	"/>
<path id="you" d="M79.3,70.8l-11.1,32.8v18.6H54.1v-18.6L43.4,70.8h14c2.2,10,3.4,16.8,3.7,20.2c0.8-5.5,2.3-12.2,4.2-20.2H79.3z
	 M111.1,94.9v10.3c0,3.8-0.2,6.6-0.6,8.3c-0.4,1.8-1.4,3.4-2.8,5c-1.4,1.5-3.2,2.7-5.5,3.4c-2.2,0.7-4.8,1.1-7.7,1.1
	c-3.2,0-6-0.3-8.2-0.9c-2.2-0.6-4-1.6-5.2-2.8c-1.2-1.3-2.1-2.8-2.7-4.6c-0.5-1.8-0.8-4.5-0.8-8V95.8c0-3.9,0.5-7,1.4-9.2
	c1-2.2,2.7-4,5.2-5.3c2.5-1.3,5.7-2,9.6-2c3.3,0,6.1,0.4,8.4,1.3c2.3,0.9,4.2,2,5.4,3.3c1.3,1.4,2.1,2.8,2.6,4.3
	C110.8,89.7,111.1,91.9,111.1,94.9z M96.5,91.7c0-2.2-0.1-3.5-0.4-4.1c-0.3-0.6-0.8-0.8-1.7-0.8s-1.4,0.3-1.7,0.8
	c-0.3,0.6-0.4,1.9-0.4,4.1v19c0,2,0.1,3.3,0.4,3.9c0.3,0.6,0.9,0.9,1.7,0.9c0.9,0,1.4-0.3,1.7-0.8c0.3-0.5,0.4-1.7,0.4-3.6V91.7z
	 M149.2,80.1v42.1h-14.8l0.3-3.5c-1,1.4-2.3,2.5-3.7,3.2c-1.5,0.7-3.2,1.1-5.1,1.1c-2.2,0-4-0.3-5.4-1c-1.4-0.7-2.5-1.6-3.2-2.7
	c-0.7-1.1-1.1-2.3-1.3-3.5c-0.2-1.2-0.3-3.6-0.3-7.3V80.1h14.6v28.7c0,3.3,0.1,5.2,0.3,5.8c0.2,0.6,0.8,0.9,1.9,0.9
	c1.1,0,1.7-0.3,1.9-1c0.2-0.6,0.3-2.7,0.3-6.1V80.1H149.2z"/>
</svg>
