<svg id="typelayout" xmlns="http://www.w3.org/2000/svg" width="737.7" height="564.86" viewBox="0 0 737.7 564.86">
  <g id="love">
    <g>
      <path d="M496.17,347V482.15H461.44V347Z" transform="translate(-9.13 -3.93)" style="fill: #231f20"/>
      <path d="M584.59,410.26V437.4q0,15-1.5,21.92a30.62,30.62,0,0,1-6.43,13A29,29,0,0,1,564,481.28a50.58,50.58,0,0,1-17.74,2.88,63.31,63.31,0,0,1-18.95-2.46,25.86,25.86,0,0,1-12.07-7.44,29.33,29.33,0,0,1-6.14-12q-1.83-7-1.83-21.17V412.69q0-15.45,3.34-24.14a27.75,27.75,0,0,1,12-13.94q8.68-5.26,22.21-5.26,11.35,0,19.5,3.38a30.6,30.6,0,0,1,18.62,20Q584.59,398.49,584.59,410.26Zm-33.73-8.35c0-5.67-.31-9.25-.92-10.72S548,389,546,389s-3.34.74-4,2.22-1,5.05-1,10.72v50q0,7.85,1,10.23a3.86,3.86,0,0,0,3.92,2.38c2,0,3.33-.73,4-2.17s1-4.57,1-9.36Z" transform="translate(-9.13 -3.93)" style="fill: #231f20"/>
      <path d="M665.5,371.36,649.72,482.15H605.63L588.69,371.36h30.12l9.49,80.9q1.13-8.92,3.81-43.48,1.42-19.3,3.27-37.42Z" transform="translate(-9.13 -3.93)" style="fill: #231f20"/>
      <path d="M746.83,428.72H703.16v24q0,7.51,1.08,9.69c.73,1.44,2.12,2.17,4.18,2.17q3.84,0,5.13-2.88t1.3-11.15V435.9h32v8.18a73.34,73.34,0,0,1-1.3,15.78,32,32,0,0,1-6,11.77,29.47,29.47,0,0,1-12.07,9.4q-7.3,3.12-18.32,3.13a53.18,53.18,0,0,1-18.87-3.09,30.26,30.26,0,0,1-12.74-8.48,30.68,30.68,0,0,1-6.3-11.85q-1.75-6.48-1.75-18.83V409.6q0-14.53,3.92-22.92a26.94,26.94,0,0,1,12.86-12.86,45.28,45.28,0,0,1,20.54-4.47q14.19,0,23.42,5.39A29.65,29.65,0,0,1,743.11,389q3.72,8.89,3.72,25Zm-33.82-18v-8.1q0-8.59-.92-11.1a3.63,3.63,0,0,0-3.76-2.51q-3.5,0-4.34,2.13t-.83,11.48v8.1Z" transform="translate(-9.13 -3.93)" style="fill: #231f20"/>
    </g>
  </g>
  <g id="lotta">
    <g>
      <path d="M532.8,503.81v64H516.35v-64Z" transform="translate(-9.13 -3.93)" style="fill: #231f20"/>
      <path d="M574.69,533.79v12.85A54.63,54.63,0,0,1,574,557a14.6,14.6,0,0,1-3.05,6.17,13.78,13.78,0,0,1-6,4.23,24,24,0,0,1-8.41,1.37,29.85,29.85,0,0,1-9-1.17,12.23,12.23,0,0,1-5.72-3.52,13.92,13.92,0,0,1-2.91-5.69,42.85,42.85,0,0,1-.87-10V534.93c0-4.88.53-8.68,1.59-11.43a13.12,13.12,0,0,1,5.69-6.6,20.05,20.05,0,0,1,10.52-2.49,24,24,0,0,1,9.24,1.6,14.48,14.48,0,0,1,8.82,9.47A33.19,33.19,0,0,1,574.69,533.79Zm-16-4a17.36,17.36,0,0,0-.44-5.08,1.79,1.79,0,0,0-1.85-1,1.87,1.87,0,0,0-1.9,1,15.86,15.86,0,0,0-.48,5.08v23.69a15.21,15.21,0,0,0,.48,4.85,1.81,1.81,0,0,0,1.86,1.12,1.83,1.83,0,0,0,1.87-1,13.22,13.22,0,0,0,.46-4.43Z" transform="translate(-9.13 -3.93)" style="fill: #231f20"/>
      <path d="M596.8,508.35v8.27h4.31v8.31H596.8V553c0,3.45.17,5.38.53,5.77s1.84.6,4.45.6v8.46h-6.45a45.23,45.23,0,0,1-7.79-.46,8.29,8.29,0,0,1-4.11-2.09,7,7,0,0,1-2.22-3.76,67,67,0,0,1-.43-9.95V524.93h-3.44v-8.31h3.44v-8.27Z" transform="translate(-9.13 -3.93)" style="fill: #231f20"/>
      <path d="M621.48,508.35v8.27h4.31v8.31h-4.31V553c0,3.45.17,5.38.53,5.77s1.84.6,4.45.6v8.46H620a45.23,45.23,0,0,1-7.79-.46,8.29,8.29,0,0,1-4.11-2.09,7,7,0,0,1-2.22-3.76,67,67,0,0,1-.43-9.95V524.93H602v-8.31h3.44v-8.27Z" transform="translate(-9.13 -3.93)" style="fill: #231f20"/>
      <path d="M643.58,535.68h-15v-3.52a24.71,24.71,0,0,1,1.41-9.39,13,13,0,0,1,5.63-5.83q4.25-2.54,11-2.53,8.11,0,12.22,2.86a11.19,11.19,0,0,1,4.94,7q.84,4.19.83,17.19v26.34H649.08v-4.68a9.77,9.77,0,0,1-9.29,5.63,13.52,13.52,0,0,1-7.7-2.36q-3.5-2.34-3.5-10.3v-4.31c0-3.93.62-6.6,1.86-8s4.31-3.08,9.22-5q7.88-3.09,8.42-4.15a11,11,0,0,0,.56-4.35c0-2.75-.21-4.53-.61-5.36a2.12,2.12,0,0,0-2-1.25c-1.08,0-1.76.35-2,1a21.4,21.4,0,0,0-.4,5.44Zm5.07,7.2q-3.84,2.8-4.45,4.71a18.56,18.56,0,0,0-.62,5.46,15.75,15.75,0,0,0,.54,5.26,2.08,2.08,0,0,0,2.11,1.18,2,2,0,0,0,2-.93c.31-.61.46-2.24.46-4.88Z" transform="translate(-9.13 -3.93)" style="fill: #231f20"/>
    </g>
  </g>
  <g id="whole">
    <g>
      <path d="M327.6,503.06l-6.77,55.73H302.42q-1.51-10.21-3.52-26.92-.69,7.35-1.91,14.82l-1.86,12.1H276.67l-7.19-55.73H284.1q.18,2.19,3.71,31.92.29-3.06,3.81-31.92h14.05L309.1,535A293.65,293.65,0,0,1,313,503.06Z" transform="translate(-9.13 -3.93)" style="fill: #231f20"/>
      <path d="M347.29,490.8v15.3a15.11,15.11,0,0,1,4.73-3,14.45,14.45,0,0,1,5.44-1,12.6,12.6,0,0,1,7.58,2.26,9.11,9.11,0,0,1,3.82,5.23,55.88,55.88,0,0,1,.69,10.81v38.43h-17V519.57a24.37,24.37,0,0,0-.49-6.26,2.31,2.31,0,0,0-4.26,0,19,19,0,0,0-.55,5.67v39.77h-17v-68Z" transform="translate(-9.13 -3.93)" style="fill: #231f20"/>
      <path d="M413.77,522.63v13.65a57,57,0,0,1-.76,11,15.43,15.43,0,0,1-3.23,6.55,14.63,14.63,0,0,1-6.36,4.5,25.62,25.62,0,0,1-8.93,1.44,32.06,32.06,0,0,1-9.53-1.23,13.14,13.14,0,0,1-6.07-3.74,14.72,14.72,0,0,1-3.08-6.05,45.1,45.1,0,0,1-.93-10.64V523.85q0-7.77,1.68-12.14a14,14,0,0,1,6.05-7,21.33,21.33,0,0,1,11.17-2.64,25.32,25.32,0,0,1,9.8,1.7,15.34,15.34,0,0,1,9.37,10A34.82,34.82,0,0,1,413.77,522.63Zm-17-4.2a18.43,18.43,0,0,0-.46-5.39,1.89,1.89,0,0,0-2-1.12,2,2,0,0,0-2,1.12c-.33.74-.5,2.54-.5,5.39v25.16a16.5,16.5,0,0,0,.5,5.14,2.29,2.29,0,0,0,4,.1,14.25,14.25,0,0,0,.48-4.7Z" transform="translate(-9.13 -3.93)" style="fill: #231f20"/>
      <path d="M436.82,490.8v68H419.35v-68Z" transform="translate(-9.13 -3.93)" style="fill: #231f20"/>
      <path d="M481.33,531.91h-22V544c0,2.52.18,4.15.55,4.87a2.12,2.12,0,0,0,2.1,1.1,2.56,2.56,0,0,0,2.58-1.45,16,16,0,0,0,.65-5.61v-7.35h16.08v4.12a36.55,36.55,0,0,1-.65,7.94,16.22,16.22,0,0,1-3,5.92,14.84,14.84,0,0,1-6.07,4.72,23.49,23.49,0,0,1-9.22,1.57,26.72,26.72,0,0,1-9.49-1.55,15.16,15.16,0,0,1-6.4-4.26,15.39,15.39,0,0,1-3.17-6,38.44,38.44,0,0,1-.88-9.47V522.3q0-7.32,2-11.53a13.59,13.59,0,0,1,6.47-6.47,22.76,22.76,0,0,1,10.33-2.24,23.18,23.18,0,0,1,11.78,2.7,14.89,14.89,0,0,1,6.5,7.18q1.88,4.48,1.87,12.58Zm-17-9.07v-4.07a21,21,0,0,0-.46-5.59,1.83,1.83,0,0,0-1.89-1.26c-1.18,0-1.91.36-2.19,1.07a22.36,22.36,0,0,0-.42,5.78v4.07Z" transform="translate(-9.13 -3.93)" style="fill: #231f20"/>
    </g>
  </g>
  <g id="wanna">
    <g>
      <path d="M69.27,490l-7,57.67h-19q-1.56-10.57-3.64-27.86-.72,7.61-2,15.34l-1.93,12.52H16.57L9.13,490H24.26q.18,2.25,3.84,33,.28-3.16,3.94-33H46.58l3.55,33a301.46,301.46,0,0,1,4-33Z" transform="translate(-9.13 -3.93)" style="fill: #231f20"/>
      <path d="M87.78,512.29H71.31v-3.86q0-6.69,1.55-10.32t6.19-6.41q4.65-2.79,12.08-2.78,8.91,0,13.43,3.15A12.3,12.3,0,0,1,110,499.8q.92,4.59.91,18.88v29H93.82v-5.14a10.73,10.73,0,0,1-10.21,6.18,14.77,14.77,0,0,1-8.45-2.59q-3.84-2.58-3.85-11.32V530q0-6.48,2-8.83t10.12-5.47q8.65-3.39,9.26-4.56a12.29,12.29,0,0,0,.61-4.79q0-4.51-.68-5.88a2.29,2.29,0,0,0-2.23-1.37c-1.19,0-1.93.38-2.22,1.15a23.27,23.27,0,0,0-.44,6Zm5.57,7.91q-4.21,3.09-4.89,5.18a20.45,20.45,0,0,0-.68,6c0,3,.2,4.91.59,5.78a2.3,2.3,0,0,0,2.33,1.31,2.16,2.16,0,0,0,2.15-1c.33-.69.5-2.47.5-5.37Z" transform="translate(-9.13 -3.93)" style="fill: #231f20"/>
      <path d="M134.8,490l-.3,5.31a13.12,13.12,0,0,1,4.67-4.77,12.62,12.62,0,0,1,6.37-1.58,12.16,12.16,0,0,1,7.39,2.12,9.47,9.47,0,0,1,3.69,5.37,49.06,49.06,0,0,1,.83,10.8v40.42H139.89V507.69a37.29,37.29,0,0,0-.39-7.26c-.26-.87-1-1.3-2.17-1.3a2.17,2.17,0,0,0-2.35,1.5q-.48,1.5-.48,8v39H116.94V490Z" transform="translate(-9.13 -3.93)" style="fill: #231f20"/>
      <path d="M181.35,490l-.31,5.31a13.2,13.2,0,0,1,4.67-4.77,12.65,12.65,0,0,1,6.37-1.58,12.14,12.14,0,0,1,7.39,2.12,9.47,9.47,0,0,1,3.69,5.37,49.06,49.06,0,0,1,.83,10.8v40.42H186.43V507.69a37.29,37.29,0,0,0-.39-7.26c-.26-.87-1-1.3-2.17-1.3a2.17,2.17,0,0,0-2.35,1.5q-.48,1.5-.48,8v39H163.49V490Z" transform="translate(-9.13 -3.93)" style="fill: #231f20"/>
      <path d="M225.72,512.29H209.25v-3.86q0-6.69,1.54-10.32T217,491.7q4.65-2.79,12.08-2.78,8.91,0,13.43,3.15a12.3,12.3,0,0,1,5.43,7.73q.92,4.59.92,18.88v29H231.76v-5.14a10.73,10.73,0,0,1-10.22,6.18,14.8,14.8,0,0,1-8.45-2.59q-3.84-2.58-3.84-11.32V530q0-6.48,2-8.83t10.12-5.47q8.66-3.39,9.26-4.56a12.1,12.1,0,0,0,.61-4.79c0-3-.23-5-.67-5.88a2.31,2.31,0,0,0-2.24-1.37c-1.19,0-1.93.38-2.22,1.15a23.46,23.46,0,0,0-.43,6Zm5.56,7.91q-4.22,3.09-4.89,5.18a20.5,20.5,0,0,0-.67,6c0,3,.19,4.91.58,5.78a2.3,2.3,0,0,0,2.33,1.31,2.15,2.15,0,0,0,2.15-1c.33-.69.5-2.47.5-5.37Z" transform="translate(-9.13 -3.93)" style="fill: #231f20"/>
    </g>
  </g>
  <g id="love-2" data-name="love">
    <g>
      <path d="M269.5,374.17v64H253v-64Z" transform="translate(-9.13 -3.93)" style="fill: #231f20"/>
      <path d="M311.38,404.15V417a54.63,54.63,0,0,1-.71,10.38,14.6,14.6,0,0,1-3.05,6.17,13.72,13.72,0,0,1-6,4.23,23.94,23.94,0,0,1-8.4,1.37,29.88,29.88,0,0,1-9-1.17,12.28,12.28,0,0,1-5.72-3.52,13.85,13.85,0,0,1-2.9-5.69,42.85,42.85,0,0,1-.87-10V405.29q0-7.31,1.58-11.43a13.12,13.12,0,0,1,5.69-6.6,20.05,20.05,0,0,1,10.52-2.49,24,24,0,0,1,9.24,1.6,14.48,14.48,0,0,1,8.82,9.47A33.19,33.19,0,0,1,311.38,404.15Zm-16-4a17.49,17.49,0,0,0-.43-5.08,1.79,1.79,0,0,0-1.86-1.05,1.87,1.87,0,0,0-1.9,1.05,15.86,15.86,0,0,0-.48,5.08v23.69a15.21,15.21,0,0,0,.48,4.85,1.81,1.81,0,0,0,1.86,1.12,1.85,1.85,0,0,0,1.88-1,13.59,13.59,0,0,0,.45-4.43Z" transform="translate(-9.13 -3.93)" style="fill: #231f20"/>
      <path d="M349.7,385.72l-7.47,52.48H321.35l-8-52.48h14.27L332.08,424q.54-4.23,1.81-20.6.67-9.13,1.55-17.72Z" transform="translate(-9.13 -3.93)" style="fill: #231f20"/>
      <path d="M388.23,412.89H367.54v11.35a12.44,12.44,0,0,0,.52,4.59,2,2,0,0,0,2,1,2.4,2.4,0,0,0,2.44-1.36,15.16,15.16,0,0,0,.61-5.28v-6.92h15.15v3.87a34.55,34.55,0,0,1-.62,7.48,15.28,15.28,0,0,1-2.86,5.58,14.08,14.08,0,0,1-5.72,4.45,22.29,22.29,0,0,1-8.68,1.48,25.32,25.32,0,0,1-8.94-1.46,13.93,13.93,0,0,1-9-9.64,36.36,36.36,0,0,1-.83-8.91V403.83q0-6.88,1.86-10.86a12.77,12.77,0,0,1,6.09-6.09,21.49,21.49,0,0,1,9.73-2.11,21.81,21.81,0,0,1,11.1,2.55,14.06,14.06,0,0,1,6.13,6.76q1.75,4.21,1.76,11.85Zm-16-8.55v-3.83a19.24,19.24,0,0,0-.44-5.26,1.72,1.72,0,0,0-1.78-1.19c-1.1,0-1.79.34-2.05,1a20.59,20.59,0,0,0-.4,5.44v3.83Z" transform="translate(-9.13 -3.93)" style="fill: #231f20"/>
    </g>
  </g>
  <g id="my">
    <g>
      <path d="M346,446.52l-.19,3.39a8.64,8.64,0,0,1,3-3,8,8,0,0,1,10.82,3,9.65,9.65,0,0,1,3.09-3,7.38,7.38,0,0,1,3.81-1,7.53,7.53,0,0,1,4.58,1.34,5.94,5.94,0,0,1,2.32,3.29,27.75,27.75,0,0,1,.51,6.33v25.32H363.41V458.92a29.76,29.76,0,0,0-.31-5.65,1.38,1.38,0,0,0-1.44-1.09,1.42,1.42,0,0,0-1.49,1.08,27,27,0,0,0-.34,5.66v23.23H349.31V459.51a41.15,41.15,0,0,0-.26-6.28,1.29,1.29,0,0,0-1.41-1.05,1.64,1.64,0,0,0-1.23.55,2.18,2.18,0,0,0-.57,1.35c0,.52,0,1.65,0,3.37v24.7H335.26V446.52Z" transform="translate(-9.13 -3.93)" style="fill: #231f20"/>
      <path d="M400.38,446.52l-3.1,25.78q-.73,6.12-1.23,8.35a9.18,9.18,0,0,1-1.65,3.68,6.6,6.6,0,0,1-3.21,2.13,22.51,22.51,0,0,1-6.57.69H378v-5.69a12.53,12.53,0,0,0,3.26-.26,1.08,1.08,0,0,0,.72-1.14c0-.29-.22-1.53-.67-3.73l-5.94-29.81h9.85l3.56,24.06,1.74-24.06Z" transform="translate(-9.13 -3.93)" style="fill: #231f20"/>
    </g>
  </g>
  <g id="you3">
    <g>
      <path d="M268.29,443.63l-2.76,23q-.66,5.44-1.1,7.44a8.08,8.08,0,0,1-1.47,3.27,5.94,5.94,0,0,1-2.86,1.91,20.43,20.43,0,0,1-5.85.61h-5.86v-5.08a11.38,11.38,0,0,0,2.9-.22,1,1,0,0,0,.64-1c0-.26-.2-1.36-.59-3.33L246,443.63h8.78L258,465.06l1.55-21.43Z" transform="translate(-9.13 -3.93)" style="fill: #231f20"/>
      <path d="M291.88,454.78v7.77a32.53,32.53,0,0,1-.43,6.28,8.71,8.71,0,0,1-1.84,3.73,8.3,8.3,0,0,1-3.62,2.56,14.53,14.53,0,0,1-5.09.83,18.11,18.11,0,0,1-5.43-.71,7.53,7.53,0,0,1-3.46-2.12,8.42,8.42,0,0,1-1.75-3.45,25.41,25.41,0,0,1-.53-6.07v-8.13a19.79,19.79,0,0,1,1-6.91,7.88,7.88,0,0,1,3.44-4,12.09,12.09,0,0,1,6.37-1.51,14.62,14.62,0,0,1,5.58,1,8.91,8.91,0,0,1,3.6,2.53,8.79,8.79,0,0,1,1.74,3.2A20.09,20.09,0,0,1,291.88,454.78Zm-9.66-2.4a10.78,10.78,0,0,0-.26-3.07,1.11,1.11,0,0,0-1.13-.64,1.15,1.15,0,0,0-1.15.64,9.82,9.82,0,0,0-.28,3.07v14.33a9.49,9.49,0,0,0,.28,2.94,1.31,1.31,0,0,0,2.26.06,7.92,7.92,0,0,0,.28-2.68Z" transform="translate(-9.13 -3.93)" style="fill: #231f20"/>
      <path d="M317.2,443.63v31.75h-9.84l.17-2.64a6.77,6.77,0,0,1-2.47,2.41,7,7,0,0,1-3.39.8,7.48,7.48,0,0,1-3.61-.77,4.91,4.91,0,0,1-2.12-2,7.49,7.49,0,0,1-.85-2.64c-.11-.92-.17-2.74-.17-5.47V443.63h9.67v21.6a21.68,21.68,0,0,0,.23,4.4c.15.47.56.7,1.23.7s1.14-.24,1.28-.72a28.45,28.45,0,0,0,.2-4.62V443.63Z" transform="translate(-9.13 -3.93)" style="fill: #231f20"/>
    </g>
  </g>
  <g id="give">
    <g>
      <path d="M418.43,381l-21,.05a45.05,45.05,0,0,1-5.48-.18,5.47,5.47,0,0,1-2.63-1.38,7.36,7.36,0,0,1-2.12-3.31,16.48,16.48,0,0,1-.74-5.34,13,13,0,0,1,1.32-6.36c.9-1.6,2.65-2.43,5.28-2.49l0,8c-1.2,0-1.81.44-1.8,1.32a1.28,1.28,0,0,0,.55,1.24,5.53,5.53,0,0,0,2.32.31h2.06a7.73,7.73,0,0,1-1.47-2.24,6.34,6.34,0,0,1-.5-2.47,6.85,6.85,0,0,1,.9-3.68,4.6,4.6,0,0,1,2.36-2,12.6,12.6,0,0,1,4.17-.54l9.89,0q3.87,0,5.58,1.39a5.16,5.16,0,0,1,1.71,4.24,6.36,6.36,0,0,1-.63,2.84,6.81,6.81,0,0,1-1.9,2.29l2.05.59Zm-7.24-8.29a7.91,7.91,0,0,0,2.38-.22.91.91,0,0,0,.51-.95,1.06,1.06,0,0,0-.59-1,6.06,6.06,0,0,0-2.3-.29l-9.15,0a8,8,0,0,0-2.37.23.93.93,0,0,0-.54.95,1,1,0,0,0,.66,1.06,10.28,10.28,0,0,0,3,.24Z" transform="translate(-9.13 -3.93)" style="fill: #231f20"/>
      <path d="M418.46,392.44l-27.21.07,0-8.53,27.22-.07Zm6,0h-4.33l0-8.53h4.33Z" transform="translate(-9.13 -3.93)" style="fill: #231f20"/>
      <path d="M418.51,412.56l-27.22-3.81,0-10.83,27.2-4.22,0,7.39-19.87,2.38c1.47.18,5,.49,10.69.91q4.74.35,9.19.78Z" transform="translate(-9.13 -3.93)" style="fill: #231f20"/>
      <path d="M404.47,432.57l0-10.72h-5.88a6.45,6.45,0,0,0-2.38.27,1,1,0,0,0-.53,1,1.24,1.24,0,0,0,.71,1.26,7.82,7.82,0,0,0,2.74.31h3.59v7.86h-2a18.15,18.15,0,0,1-3.87-.31,7.9,7.9,0,0,1-2.9-1.48,7.17,7.17,0,0,1-2.31-3,11.28,11.28,0,0,1-.78-4.5,12.74,12.74,0,0,1,.75-4.63,7.34,7.34,0,0,1,2.07-3.13,7.5,7.5,0,0,1,2.91-1.56,18.56,18.56,0,0,1,4.62-.44l7.94,0a13.44,13.44,0,0,1,5.63.95,6.68,6.68,0,0,1,3.17,3.15,11.13,11.13,0,0,1,1.1,5,11.34,11.34,0,0,1-1.3,5.76,7.29,7.29,0,0,1-3.5,3.18,16.19,16.19,0,0,1-6.14.93Zm4.41-8.32h2a10,10,0,0,0,2.72-.23.9.9,0,0,0,.62-.93c0-.57-.18-.93-.53-1.06a10.85,10.85,0,0,0-2.82-.2h-2Z" transform="translate(-9.13 -3.93)" style="fill: #231f20"/>
    </g>
  </g>
  <g id="gonna2">
    <g>
      <path d="M302.12,346v20a42.45,42.45,0,0,1-.19,5.23,5.19,5.19,0,0,1-1.31,2.5,7.07,7.07,0,0,1-3.16,2,16,16,0,0,1-5.09.69,12.27,12.27,0,0,1-6.05-1.28q-2.28-1.28-2.36-5h7.65c0,1.15.42,1.72,1.25,1.72a1.23,1.23,0,0,0,1.19-.52,5.25,5.25,0,0,0,.3-2.21v-2a7.54,7.54,0,0,1-2.14,1.39,6.13,6.13,0,0,1-2.36.47,6.44,6.44,0,0,1-3.5-.86,4.38,4.38,0,0,1-1.89-2.25,12.15,12.15,0,0,1-.5-4v-9.41q0-3.69,1.32-5.31a4.92,4.92,0,0,1,4.05-1.63,6,6,0,0,1,2.7.61,6.32,6.32,0,0,1,2.18,1.82l.57-2Zm-7.91,6.88a7.36,7.36,0,0,0-.21-2.27.87.87,0,0,0-.9-.49,1,1,0,0,0-1,.56,5.57,5.57,0,0,0-.28,2.2v8.71a7.38,7.38,0,0,0,.21,2.25.86.86,0,0,0,.9.52,1,1,0,0,0,1-.62,10.65,10.65,0,0,0,.23-2.83Z" transform="translate(-9.13 -3.93)" style="fill: #231f20"/>
      <path d="M322.78,355.1v6.35a26.42,26.42,0,0,1-.35,5.13,7.15,7.15,0,0,1-1.5,3.05,6.87,6.87,0,0,1-3,2.09,11.85,11.85,0,0,1-4.15.67,14.56,14.56,0,0,1-4.43-.58,6,6,0,0,1-2.83-1.73,6.85,6.85,0,0,1-1.43-2.82,20.94,20.94,0,0,1-.43-4.95v-6.64a16.22,16.22,0,0,1,.78-5.64,6.49,6.49,0,0,1,2.81-3.27,9.93,9.93,0,0,1,5.2-1.23,11.81,11.81,0,0,1,4.56.8,7.21,7.21,0,0,1,2.94,2.06A7.12,7.12,0,0,1,322.4,351,16,16,0,0,1,322.78,355.1Zm-7.89-2a8.82,8.82,0,0,0-.21-2.51.9.9,0,0,0-.92-.52.94.94,0,0,0-.94.52,8.19,8.19,0,0,0-.23,2.51v11.7a7.82,7.82,0,0,0,.23,2.39,1.07,1.07,0,0,0,1.85.05,6.68,6.68,0,0,0,.22-2.19Z" transform="translate(-9.13 -3.93)" style="fill: #231f20"/>
      <path d="M333.41,346l-.14,2.39a5.83,5.83,0,0,1,2.1-2.14,5.6,5.6,0,0,1,2.86-.72,5.4,5.4,0,0,1,3.32,1,4.22,4.22,0,0,1,1.66,2.41,22,22,0,0,1,.37,4.86v18.16h-7.89V354a16.66,16.66,0,0,0-.17-3.26c-.12-.39-.44-.59-1-.59a1,1,0,0,0-1.05.68,16.31,16.31,0,0,0-.22,3.6v17.52h-7.89V346Z" transform="translate(-9.13 -3.93)" style="fill: #231f20"/>
      <path d="M354.33,346l-.14,2.39a5.83,5.83,0,0,1,2.1-2.14,5.6,5.6,0,0,1,2.86-.72,5.42,5.42,0,0,1,3.32,1,4.27,4.27,0,0,1,1.66,2.41,22,22,0,0,1,.37,4.86v18.16h-7.89V354a17.57,17.57,0,0,0-.17-3.26.9.9,0,0,0-1-.59,1,1,0,0,0-1.06.68,17.31,17.31,0,0,0-.21,3.6v17.52H346.3V346Z" transform="translate(-9.13 -3.93)" style="fill: #231f20"/>
      <path d="M374.27,356h-7.4V354.3a12.26,12.26,0,0,1,.69-4.63,6.47,6.47,0,0,1,2.78-2.89,13,13,0,0,1,11.47.17,5.5,5.5,0,0,1,2.44,3.48,54.83,54.83,0,0,1,.41,8.48v13H377v-2.31a4.78,4.78,0,0,1-4.59,2.78,6.72,6.72,0,0,1-3.8-1.16c-1.15-.78-1.72-2.47-1.72-5.09V364c0-1.94.3-3.26.91-4s2.13-1.53,4.55-2.47c2.6-1,4-1.69,4.16-2.05a5.22,5.22,0,0,0,.28-2.14,7.3,7.3,0,0,0-.3-2.65,1.06,1.06,0,0,0-1-.62c-.53,0-.87.18-1,.52a10.68,10.68,0,0,0-.19,2.69Zm2.5,3.56a5.8,5.8,0,0,0-2.2,2.32,9.33,9.33,0,0,0-.3,2.7,8,8,0,0,0,.26,2.59,1,1,0,0,0,1.05.59,1,1,0,0,0,1-.46,7.31,7.31,0,0,0,.23-2.41Z" transform="translate(-9.13 -3.93)" style="fill: #231f20"/>
    </g>
  </g>
  <g id="im3">
    <g>
      <path d="M202.82,416.32l43.48-.1,0,11.3-43.47.11Z" transform="translate(-9.13 -3.93)" style="fill: #231f20"/>
      <path d="M202.79,405.8h3.9a14.62,14.62,0,0,1,5,.71A7.25,7.25,0,0,1,215,409a10,10,0,0,1,1.85,4h-3.14a3.21,3.21,0,0,0-2.42-1.82v1.82l-8.51,0Z" transform="translate(-9.13 -3.93)" style="fill: #231f20"/>
      <path d="M210.6,392.13l3.39.18a8.62,8.62,0,0,1-3-3,8,8,0,0,1,3-10.83,9.77,9.77,0,0,1-3-3.08,7.38,7.38,0,0,1-1-3.81,7.46,7.46,0,0,1,1.33-4.58,5.91,5.91,0,0,1,3.28-2.33,28.06,28.06,0,0,1,6.33-.53l25.32-.06,0,10.53-23.23.06a28.6,28.6,0,0,0-5.66.32,1.37,1.37,0,0,0-1.08,1.44,1.42,1.42,0,0,0,1.08,1.49,27.59,27.59,0,0,0,5.66.32l23.23-.06,0,10.53-22.64,0a42,42,0,0,0-6.28.27,1.31,1.31,0,0,0-1.05,1.42,1.62,1.62,0,0,0,.56,1.23,2.09,2.09,0,0,0,1.34.56c.53,0,1.65.05,3.37.05l24.71-.06,0,10.52-35.63.09Z" transform="translate(-9.13 -3.93)" style="fill: #231f20"/>
    </g>
  </g>
  <g id="it">
    <g>
      <path d="M314.86,89.42v9.27H296.58V89.42Zm0,12.83v58.31H296.58V102.25Z" transform="translate(-9.13 -3.93)" style="fill: #231f20"/>
      <path d="M340,94.47v9.18h4.79v9.23H340v31.2q0,5.76.59,6.42t4.95.66v9.4h-7.17a52.05,52.05,0,0,1-8.65-.5,9.3,9.3,0,0,1-4.57-2.33,7.73,7.73,0,0,1-2.46-4.18c-.33-1.56-.49-5.25-.49-11.05V112.88h-3.82v-9.23h3.82V94.47Z" transform="translate(-9.13 -3.93)" style="fill: #231f20"/>
    </g>
  </g>
  <g id="need2">
    <g>
      <path d="M362.55,12.92l-2.78,1.75a8.09,8.09,0,0,1,4.08.64,7.68,7.68,0,0,1,3.08,2.63,7.47,7.47,0,0,1,1.58,4.48,5.83,5.83,0,0,1-1.37,3.79A30.66,30.66,0,0,1,362,30.5L341.68,45l-6.3-8.83,20.08-14.34A23.15,23.15,0,0,0,359,19a1.21,1.21,0,0,0-.12-1.56,1.35,1.35,0,0,0-1.6-.65,23.17,23.17,0,0,0-4.2,2.64l-19.61,14-6.3-8.83,29-20.71Z" transform="translate(-9.13 -3.93)" style="fill: #231f20"/>
      <path d="M372.12,58.06,364,46.63l-6.27,4.48a8.4,8.4,0,0,0-2.33,2.09,1.36,1.36,0,0,0,.21,1.5,1.64,1.64,0,0,0,1.71.81,10.24,10.24,0,0,0,3.16-1.75L364.26,51l6,8.37-2.15,1.53a23.52,23.52,0,0,1-4.37,2.61,10.34,10.34,0,0,1-4.21.62,9.45,9.45,0,0,1-4.72-1.41,15,15,0,0,1-4.24-4.21A17.1,17.1,0,0,1,347.83,53a9.44,9.44,0,0,1,1.77-8.79,24.56,24.56,0,0,1,4.6-4l8.45-6A17.89,17.89,0,0,1,369.39,31a8.7,8.7,0,0,1,5.77,1,14.67,14.67,0,0,1,5,4.54,14.87,14.87,0,0,1,3,7.14,9.54,9.54,0,0,1-1.32,6.06A21.54,21.54,0,0,1,376,55.31Zm-1.6-12.22,2.12-1.52A13.06,13.06,0,0,0,375.37,42a1.17,1.17,0,0,0,0-1.45c-.44-.62-.9-.86-1.37-.74a14.41,14.41,0,0,0-3.17,1.92l-2.12,1.52Z" transform="translate(-9.13 -3.93)" style="fill: #231f20"/>
      <path d="M388.45,80.94l-8.16-11.43L374,74a8.38,8.38,0,0,0-2.33,2.1,1.32,1.32,0,0,0,.21,1.49,1.64,1.64,0,0,0,1.71.81,9.94,9.94,0,0,0,3.16-1.74l3.83-2.74,6,8.38-2.14,1.52a24.25,24.25,0,0,1-4.37,2.62,10.35,10.35,0,0,1-4.21.61,9.54,9.54,0,0,1-4.72-1.4,15.16,15.16,0,0,1-4.24-4.21,17.24,17.24,0,0,1-2.72-5.52,9.44,9.44,0,0,1,1.76-8.78,24.52,24.52,0,0,1,4.6-4l8.46-6a17.71,17.71,0,0,1,6.74-3.26,8.65,8.65,0,0,1,5.77,1,14.45,14.45,0,0,1,5,4.54,14.72,14.72,0,0,1,3,7.13,9.52,9.52,0,0,1-1.32,6.06,21.55,21.55,0,0,1-5.85,5.65Zm-1.6-12.22L389,67.21a13,13,0,0,0,2.73-2.32,1.16,1.16,0,0,0,0-1.45c-.43-.61-.89-.86-1.36-.74a14.2,14.2,0,0,0-3.17,1.93L385,66.14Z" transform="translate(-9.13 -3.93)" style="fill: #231f20"/>
      <path d="M426.25,88.64,390.87,113.9l-6.31-8.83,2.11-1.5a11.29,11.29,0,0,1-3.88-1.26A8.43,8.43,0,0,1,380,99.85a7.37,7.37,0,0,1-1.46-4.33,6,6,0,0,1,1.12-3.73A22.55,22.55,0,0,1,384,88.06l13.58-9.69a22.36,22.36,0,0,1,5-3,5.84,5.84,0,0,1,3.86.2,7.68,7.68,0,0,1,3.66,2.89,8.82,8.82,0,0,1,1.55,7.18L420,79.81Zm-20,.94a6.76,6.76,0,0,0,1.94-1.8A1.35,1.35,0,0,0,408,86.3a1.37,1.37,0,0,0-1.25-.71,6.69,6.69,0,0,0-2.39,1.3L390.14,97A8,8,0,0,0,388,99a1.23,1.23,0,0,0,.16,1.4,1.37,1.37,0,0,0,1.43.69,11.89,11.89,0,0,0,3.26-1.89Z" transform="translate(-9.13 -3.93)" style="fill: #231f20"/>
    </g>
  </g>
  <g id="you2">
    <g>
      <path d="M352,70.43,338.34,77.9q-3.25,1.78-4.51,2.31a5.29,5.29,0,0,1-2.37.48,4,4,0,0,1-2.16-.82,13.63,13.63,0,0,1-2.63-3l-2.29-3.21,2.78-2a7.23,7.23,0,0,0,1.26,1.5.64.64,0,0,0,.81,0c.14-.1.67-.64,1.59-1.63L343.3,58.24l3.44,4.81L336.23,73.18l12.36-7.54Z" transform="translate(-9.13 -3.93)" style="fill: #231f20"/>
      <path d="M355.13,87.73l-4.26,3A21.91,21.91,0,0,1,347.26,93a6,6,0,0,1-2.77.45,5.6,5.6,0,0,1-2.82-1A9.88,9.88,0,0,1,339.23,90a12,12,0,0,1-1.74-3.25A5,5,0,0,1,337.3,84a5.7,5.7,0,0,1,1.2-2.31A17.13,17.13,0,0,1,341.62,79l4.46-3.19a13.55,13.55,0,0,1,4.17-2.18,5.31,5.31,0,0,1,3.53.33,8.1,8.1,0,0,1,3.32,2.9,9.56,9.56,0,0,1,1.65,3.44,5.94,5.94,0,0,1,0,3,6,6,0,0,1-1.08,2.2A13.12,13.12,0,0,1,355.13,87.73Zm-2.47-6.24a7,7,0,0,0,1.58-1.34.75.75,0,0,0-.09-.87.78.78,0,0,0-.8-.38,6.71,6.71,0,0,0-1.79,1l-7.86,5.61a6,6,0,0,0-1.49,1.31.73.73,0,0,0,.06.88.75.75,0,0,0,.79.38,5.32,5.32,0,0,0,1.57-.9Z" transform="translate(-9.13 -3.93)" style="fill: #231f20"/>
      <path d="M371.15,97.24l-17.41,12.42-3.84-5.39,1.51-.94a4.54,4.54,0,0,1-2.29-.41,4.69,4.69,0,0,1-1.77-1.54,5.2,5.2,0,0,1-1-2.28,3.36,3.36,0,0,1,.29-2,4.88,4.88,0,0,1,1.11-1.5c.46-.42,1.44-1.16,2.93-2.23L362.43,85l3.78,5.3-11.84,8.45a14.8,14.8,0,0,0-2.32,1.85c-.2.26-.16.58.1,1s.58.53.89.42a18.63,18.63,0,0,0,2.61-1.7l11.71-8.36Z" transform="translate(-9.13 -3.93)" style="fill: #231f20"/>
    </g>
  </g>
  <g id="_-honey" data-name="-honey">
    <g>
      <path d="M274.85,87.67,277.23,91l-6.33,4.52-2.38-3.33Z" transform="translate(-9.13 -3.93)" style="fill: #231f20"/>
      <path d="M274,73.59l3.1,4.34a5.43,5.43,0,0,1,.73-1.82,5,5,0,0,1,1.34-1.39,4.35,4.35,0,0,1,2.61-.89,3.15,3.15,0,0,1,2.14.71,18.79,18.79,0,0,1,2.39,2.93l7.79,10.91-4.82,3.44-8-11.14a8.4,8.4,0,0,0-1.4-1.68.81.81,0,0,0-1.2.88,6.67,6.67,0,0,0,1,1.72l8.06,11.29L283,96.33,269.2,77Z" transform="translate(-9.13 -3.93)" style="fill: #231f20"/>
      <path d="M299.34,69.15,302.1,73a19.46,19.46,0,0,1,2,3.28,5.34,5.34,0,0,1,.41,2.51,5,5,0,0,1-.89,2.57,8.92,8.92,0,0,1-2.24,2.22,11.05,11.05,0,0,1-3,1.58,4.57,4.57,0,0,1-2.48.17,5.17,5.17,0,0,1-2.1-1.09,16,16,0,0,1-2.42-2.84l-2.9-4.05a12.05,12.05,0,0,1-2-3.79,4.86,4.86,0,0,1,.3-3.21,7.42,7.42,0,0,1,2.63-3,8.92,8.92,0,0,1,3.13-1.5,5.45,5.45,0,0,1,2.69,0,5.72,5.72,0,0,1,2,1A12.56,12.56,0,0,1,299.34,69.15Zm-5.67,2.25A6.49,6.49,0,0,0,292.44,70a.66.66,0,0,0-.78.08.71.71,0,0,0-.35.73,6,6,0,0,0,.95,1.63l5.1,7.14a5.52,5.52,0,0,0,1.19,1.36.67.67,0,0,0,.8-.06.66.66,0,0,0,.34-.71,4.69,4.69,0,0,0-.81-1.44Z" transform="translate(-9.13 -3.93)" style="fill: #231f20"/>
      <path d="M301.86,59l.95,1.51a4.45,4.45,0,0,1,.35-2.22,4.25,4.25,0,0,1,1.44-1.68,4.09,4.09,0,0,1,2.44-.87,3.23,3.23,0,0,1,2.06.75,16.66,16.66,0,0,1,2.35,2.8l7.91,11.09-4.81,3.44-7.83-11a12,12,0,0,0-1.53-1.91.65.65,0,0,0-.85.07.73.73,0,0,0-.35.87,13.1,13.1,0,0,0,1.44,2.29l7.64,10.7-4.82,3.43L297,62.46Z" transform="translate(-9.13 -3.93)" style="fill: #231f20"/>
      <path d="M326.48,53.75l-6.23,4.45,2.44,3.42a4.79,4.79,0,0,0,1.14,1.28.75.75,0,0,0,.82-.12.9.9,0,0,0,.44-.93,5.68,5.68,0,0,0-.95-1.73L322.65,58l4.56-3.26.84,1.16a12.77,12.77,0,0,1,1.42,2.39,5.78,5.78,0,0,1,.34,2.3A5.24,5.24,0,0,1,329,63.2a8.22,8.22,0,0,1-2.3,2.31,9.37,9.37,0,0,1-3,1.49,5.23,5.23,0,0,1-2.68.08,5.31,5.31,0,0,1-2.11-1,13.34,13.34,0,0,1-2.17-2.51l-3.29-4.61a9.69,9.69,0,0,1-1.78-3.67,4.76,4.76,0,0,1,.53-3.15,9.08,9.08,0,0,1,6.37-4.35,5.25,5.25,0,0,1,3.3.72A11.63,11.63,0,0,1,325,51.65Zm-6.67.87L319,53.47a7.43,7.43,0,0,0-1.27-1.5.65.65,0,0,0-.79,0c-.33.24-.47.49-.4.75a8,8,0,0,0,1.05,1.72l.83,1.16Z" transform="translate(-9.13 -3.93)" style="fill: #231f20"/>
      <path d="M332.29,37.24l6.79,12.43c1.08,2,1.78,3.33,2.1,4.09a4.91,4.91,0,0,1,.44,2.16,3.74,3.74,0,0,1-.75,2,12.28,12.28,0,0,1-2.7,2.38l-2.92,2.09-1.8-2.53a7.14,7.14,0,0,0,1.36-1.15.58.58,0,0,0,0-.73,20.35,20.35,0,0,0-1.48-1.45L321.21,45.15,325.58,42l9.21,9.55-6.86-11.23Z" transform="translate(-9.13 -3.93)" style="fill: #231f20"/>
    </g>
  </g>
  <g id="a2">
    <path d="M259.78,98.25l-4.52,3.23-.75-1.06a9.15,9.15,0,0,1-1.6-3.13,4.84,4.84,0,0,1,.44-3,9.72,9.72,0,0,1,7.07-4.89,4.17,4.17,0,0,1,3,1.06,41.28,41.28,0,0,1,3.95,5l5.66,7.94-4.68,3.34-1-1.41a3.61,3.61,0,0,1-1.59,3.7,5,5,0,0,1-2.82,1c-1,0-2.14-.76-3.28-2.36l-.92-1.3a4.62,4.62,0,0,1-1.17-2.82,9.76,9.76,0,0,1,1.7-3.48c1.14-1.75,1.69-2.77,1.65-3.07a4.11,4.11,0,0,0-.77-1.43,5.49,5.49,0,0,0-1.34-1.48.79.79,0,0,0-.88.06c-.33.23-.45.49-.38.75a7.92,7.92,0,0,0,1.05,1.73Zm3.08,1.08a4.38,4.38,0,0,0-.33,2.38,7,7,0,0,0,1,1.78,5.69,5.69,0,0,0,1.29,1.47.78.78,0,0,0,.9-.1.7.7,0,0,0,.38-.7,5.35,5.35,0,0,0-.91-1.57Z" transform="translate(-9.13 -3.93)" style="fill: #231f20"/>
  </g>
  <g id="inside">
    <g>
      <path d="M119.15,331.71,100.5,355l-7.29-5.84,18.65-23.25Zm4.11-5.12-3,3.7L113,324.44l3-3.69Z" transform="translate(-9.13 -3.93)" style="fill: #231f20"/>
      <path d="M128.89,339.52l-1.84,2.05a6.7,6.7,0,0,1,3.43-.41,6.5,6.5,0,0,1,3.08,1.42,6.28,6.28,0,0,1,2.29,3.24,5,5,0,0,1-.25,3.36,25.45,25.45,0,0,1-3.16,4.62l-13.08,16.29-7.07-5.67,12.92-16.1a19.42,19.42,0,0,0,2.19-3.06,1,1,0,0,0-.46-1.22,1.11,1.11,0,0,0-1.43-.16,19.54,19.54,0,0,0-2.78,3.08l-12.61,15.71L103,357l18.65-23.24Z" transform="translate(-9.13 -3.93)" style="fill: #231f20"/>
      <path d="M149,367.83l-6.28-5,1-1.26a8.53,8.53,0,0,0,1.45-2.19c.11-.38-.08-.77-.57-1.16a1.36,1.36,0,0,0-1.21-.33,2.53,2.53,0,0,0-1.25.95,7.59,7.59,0,0,0-1.11,1.69,3.21,3.21,0,0,0,0,1.81,25.48,25.48,0,0,0,1.67,4.18q1.88,4,1.77,6.09a8.45,8.45,0,0,1-2.14,4.64,12.42,12.42,0,0,1-4.18,3.7,6.27,6.27,0,0,1-4.24.25,13,13,0,0,1-4.79-2.56,14.73,14.73,0,0,1-3.94-4.55,6.45,6.45,0,0,1-.81-4.39,12.94,12.94,0,0,1,2.77-4.92l.9-1.12,6.27,5-1.18,1.47a10,10,0,0,0-1.72,2.63,1.18,1.18,0,0,0,.49,1.31,1.64,1.64,0,0,0,1.35.47,3.67,3.67,0,0,0,1.57-1.35,4.57,4.57,0,0,0,1.29-2.39A42.32,42.32,0,0,0,134,365q-1.71-4.26-1.25-6.24a10,10,0,0,1,2-3.93,11.23,11.23,0,0,1,4-3.52,6.12,6.12,0,0,1,4.13,0,14.09,14.09,0,0,1,4.67,2.56,15,15,0,0,1,3.46,3.75,7.67,7.67,0,0,1,1.24,3.54,5.21,5.21,0,0,1-.38,2.63,16.49,16.49,0,0,1-1.88,2.73Z" transform="translate(-9.13 -3.93)" style="fill: #231f20"/>
      <path d="M164.63,368.2,146,391.45l-7.28-5.85,18.65-23.25Zm4.1-5.11-3,3.69-7.29-5.85,3-3.69Z" transform="translate(-9.13 -3.93)" style="fill: #231f20"/>
      <path d="M187.37,378l-22.76,28.37-7.07-5.68,1.35-1.69a9.34,9.34,0,0,1-3.41-.14,7,7,0,0,1-2.77-1.35,6.23,6.23,0,0,1-2.16-3.16,5,5,0,0,1,.06-3.25,19.11,19.11,0,0,1,2.64-4L162,376.27a19.19,19.19,0,0,1,3.39-3.52,4.81,4.81,0,0,1,3.15-.72,6.4,6.4,0,0,1,3.61,1.5A7.44,7.44,0,0,1,175,379l5.29-6.6Zm-15.87,5.29a5.49,5.49,0,0,0,1.15-1.89,1.13,1.13,0,0,0-.51-1.14A1.14,1.14,0,0,0,171,380a5.59,5.59,0,0,0-1.63,1.58L160.2,393a6.59,6.59,0,0,0-1.28,2,1,1,0,0,0,.44,1.1,1.18,1.18,0,0,0,1.32.23,10.22,10.22,0,0,0,2.18-2.26Z" transform="translate(-9.13 -3.93)" style="fill: #231f20"/>
      <path d="M192.18,410.09,183,402.74l-4,5a7.1,7.1,0,0,0-1.4,2.22,1.13,1.13,0,0,0,.51,1.15,1.36,1.36,0,0,0,1.56.26,8.21,8.21,0,0,0,2.15-2.12l2.46-3.06L191,411.6l-1.38,1.72a19.56,19.56,0,0,1-2.93,3.09,8.53,8.53,0,0,1-3.25,1.45,8,8,0,0,1-4.11-.06,12.49,12.49,0,0,1-4.37-2.43,14.27,14.27,0,0,1-3.44-3.82,7.84,7.84,0,0,1-.57-7.47,20.23,20.23,0,0,1,2.8-4.25l5.44-6.78a14.92,14.92,0,0,1,4.68-4.15,7.25,7.25,0,0,1,4.86-.53,13.84,13.84,0,0,1,9.07,7.59,8,8,0,0,1,.31,5.18,17.79,17.79,0,0,1-3.43,5.87Zm-4.06-9.47,1.36-1.7a10.56,10.56,0,0,0,1.68-2.49,1,1,0,0,0-.37-1.15c-.49-.4-.91-.49-1.26-.29a11.61,11.61,0,0,0-2.11,2.27l-1.37,1.7Z" transform="translate(-9.13 -3.93)" style="fill: #231f20"/>
    </g>
  </g>
  <g id="down">
    <g>
      <path d="M48.62,369.61V395.7H42.11v-1.55a6.81,6.81,0,0,1-2,1.45,5.09,5.09,0,0,1-2.16.49,4.41,4.41,0,0,1-2.63-.8,3.5,3.5,0,0,1-1.42-1.85,13,13,0,0,1-.32-3.41V380a13.3,13.3,0,0,1,.32-3.49,3.43,3.43,0,0,1,1.44-1.82,4.61,4.61,0,0,1,2.69-.78,5.52,5.52,0,0,1,2.21.44,5.44,5.44,0,0,1,1.83,1.3v-6.06ZM42.11,379.7a4,4,0,0,0-.2-1.58.8.8,0,0,0-.8-.4.83.83,0,0,0-.78.36,4.12,4.12,0,0,0-.2,1.62v10.47a5.09,5.09,0,0,0,.19,1.72.75.75,0,0,0,.75.41.82.82,0,0,0,.83-.46,7,7,0,0,0,.21-2.25Z" transform="translate(-9.13 -3.93)" style="fill: #231f20"/>
      <path d="M65.69,381.83v5.23a22.28,22.28,0,0,1-.29,4.23,6.07,6.07,0,0,1-1.24,2.52,5.61,5.61,0,0,1-2.45,1.72,9.73,9.73,0,0,1-3.42.56,12.12,12.12,0,0,1-3.66-.48,5,5,0,0,1-2.33-1.43,5.8,5.8,0,0,1-1.18-2.32,17.33,17.33,0,0,1-.35-4.09v-5.48a13.37,13.37,0,0,1,.64-4.65A5.3,5.3,0,0,1,53.73,375a8.16,8.16,0,0,1,4.29-1,9.89,9.89,0,0,1,3.76.65,5.91,5.91,0,0,1,3.59,3.86A13.36,13.36,0,0,1,65.69,381.83Zm-6.51-1.62a7,7,0,0,0-.18-2.07.74.74,0,0,0-.76-.42.77.77,0,0,0-.77.42,6.58,6.58,0,0,0-.19,2.07v9.66a6.19,6.19,0,0,0,.19,2,.88.88,0,0,0,1.52,0,5.5,5.5,0,0,0,.19-1.8Z" transform="translate(-9.13 -3.93)" style="fill: #231f20"/>
      <path d="M88.87,374.32,86.28,395.7H79.21c-.39-2.61-.83-6.06-1.35-10.33q-.27,2.82-.73,5.69l-.72,4.64H69.33l-2.76-21.38h5.61q.07.84,1.43,12.24.11-1.17,1.46-12.24h5.39l1.32,12.24a109.21,109.21,0,0,1,1.49-12.24Z" transform="translate(-9.13 -3.93)" style="fill: #231f20"/>
      <path d="M96.54,374.32l-.11,2a4.82,4.82,0,0,1,1.73-1.77,4.67,4.67,0,0,1,2.36-.59,4.45,4.45,0,0,1,2.74.79,3.5,3.5,0,0,1,1.37,2,17.78,17.78,0,0,1,.31,4v15H98.43V380.89a13.31,13.31,0,0,0-.15-2.69c-.09-.32-.36-.48-.8-.48a.8.8,0,0,0-.87.55,13.79,13.79,0,0,0-.18,3V395.7H89.92V374.32Z" transform="translate(-9.13 -3.93)" style="fill: #231f20"/>
    </g>
  </g>
  <g id="_-way" data-name="-way">
    <g>
      <path d="M47.27,344.51v3.54H40.53v-3.54Z" transform="translate(-9.13 -3.93)" style="fill: #231f20"/>
      <path d="M65.22,337.86l-2,16.85H57.6q-.45-3.09-1.06-8.14c-.14,1.48-.33,3-.58,4.48l-.56,3.66H49.82l-2.17-16.85h4.42c0,.44.41,3.66,1.12,9.65q.09-.93,1.15-9.65h4.25l1,9.65a86.81,86.81,0,0,1,1.17-9.65Z" transform="translate(-9.13 -3.93)" style="fill: #231f20"/>
      <path d="M70.63,344.38H65.81v-1.13a8,8,0,0,1,.46-3,4.16,4.16,0,0,1,1.8-1.87,6.86,6.86,0,0,1,3.53-.82,6.91,6.91,0,0,1,3.93.92,3.57,3.57,0,0,1,1.58,2.26,35.13,35.13,0,0,1,.27,5.52v8.46h-5v-1.5a3.33,3.33,0,0,1-1.21,1.35,3.38,3.38,0,0,1-1.77.45,4.29,4.29,0,0,1-2.47-.76c-.75-.5-1.13-1.6-1.13-3.3v-1.39a4,4,0,0,1,.6-2.57,8.45,8.45,0,0,1,3-1.6,8.23,8.23,0,0,0,2.7-1.34,3.44,3.44,0,0,0,.18-1.39,4.47,4.47,0,0,0-.2-1.72.66.66,0,0,0-.65-.4c-.35,0-.56.11-.65.33a7.3,7.3,0,0,0-.12,1.75Zm1.62,2.32a3.78,3.78,0,0,0-1.43,1.51,6,6,0,0,0-.19,1.75,5,5,0,0,0,.17,1.69.67.67,0,0,0,.68.38.63.63,0,0,0,.63-.3,5.13,5.13,0,0,0,.14-1.57Z" transform="translate(-9.13 -3.93)" style="fill: #231f20"/>
      <path d="M89.88,337.86l-1.46,12.19c-.24,1.93-.43,3.24-.59,3.95a4,4,0,0,1-.78,1.73,3.09,3.09,0,0,1-1.51,1,10.58,10.58,0,0,1-3.11.33H79.32v-2.69a5.39,5.39,0,0,0,1.54-.13.49.49,0,0,0,.34-.53,17.78,17.78,0,0,0-.31-1.77l-2.81-14.09h4.65l1.69,11.37.82-11.37Z" transform="translate(-9.13 -3.93)" style="fill: #231f20"/>
    </g>
  </g>
  <g id="a">
    <path d="M30.59,344.07H25.78v-1.13a7.94,7.94,0,0,1,.45-3A4.2,4.2,0,0,1,28,338.05a6.83,6.83,0,0,1,3.53-.81,6.9,6.9,0,0,1,3.92.92,3.63,3.63,0,0,1,1.59,2.26,35,35,0,0,1,.27,5.52v8.45h-5v-1.5a3.39,3.39,0,0,1-1.22,1.36,3.33,3.33,0,0,1-1.77.45,4.31,4.31,0,0,1-2.47-.76c-.74-.5-1.12-1.6-1.12-3.3v-1.39a4.06,4.06,0,0,1,.6-2.58,8.38,8.38,0,0,1,3-1.59,8.37,8.37,0,0,0,2.7-1.34,3.48,3.48,0,0,0,.18-1.39,4.68,4.68,0,0,0-.2-1.72.67.67,0,0,0-.65-.4c-.35,0-.57.11-.65.33a6.59,6.59,0,0,0-.13,1.75Zm1.63,2.31a3.84,3.84,0,0,0-1.43,1.51,6.06,6.06,0,0,0-.2,1.76,5.17,5.17,0,0,0,.17,1.68.67.67,0,0,0,.68.38.63.63,0,0,0,.63-.29,4.7,4.7,0,0,0,.15-1.57Z" transform="translate(-9.13 -3.93)" style="fill: #231f20"/>
  </g>
  <g id="schooling">
    <g>
      <path d="M370.63,259.13l-9.92-3.38.67-2a11.2,11.2,0,0,0,.81-3.33c0-.51-.45-.91-1.22-1.17a1.77,1.77,0,0,0-1.63.14,3.28,3.28,0,0,0-1.11,1.71,10.6,10.6,0,0,0-.61,2.57,4.17,4.17,0,0,0,.83,2.21,32,32,0,0,0,3.9,4.39c2.72,2.7,4.34,4.93,4.88,6.68s.35,4-.56,6.64A16.24,16.24,0,0,1,363.2,280a8.23,8.23,0,0,1-5.09,2.2,17,17,0,0,1-7-1,19.19,19.19,0,0,1-6.86-3.82,8.4,8.4,0,0,1-2.94-5q-.37-2.67,1.2-7.27l.6-1.77,9.93,3.37-.79,2.33a13,13,0,0,0-.94,4,1.54,1.54,0,0,0,1.18,1.39,2.13,2.13,0,0,0,1.87,0,4.77,4.77,0,0,0,1.33-2.35q.88-2.64.51-3.51a54.68,54.68,0,0,0-5.18-6.15c-2.66-3-4.1-5.33-4.3-7.09a12.89,12.89,0,0,1,.74-5.73c1-2.94,2.12-5,3.38-6.11a8,8,0,0,1,5.05-1.89,18.08,18.08,0,0,1,6.86,1.07,19.44,19.44,0,0,1,5.91,3,10.09,10.09,0,0,1,3.11,3.79,7.1,7.1,0,0,1,.7,3.4,21.66,21.66,0,0,1-1.1,4.17Z" transform="translate(-9.13 -3.93)" style="fill: #231f20"/>
      <path d="M398.53,271,388,267.41l1.45-4.25a8.86,8.86,0,0,0,.66-3.13,1.39,1.39,0,0,0-1.06-1.24,1.37,1.37,0,0,0-1.54.25,9.42,9.42,0,0,0-1.39,3l-5.91,17.36a7.26,7.26,0,0,0-.5,3.13A1.66,1.66,0,0,0,380.8,284a1.6,1.6,0,0,0,1.89-.5,12.8,12.8,0,0,0,1.72-3.75l1.49-4.38,10,3.4a63.29,63.29,0,0,1-2.57,6.51,11.11,11.11,0,0,1-3.4,3.88,10.54,10.54,0,0,1-5.28,2.11,15.49,15.49,0,0,1-6.64-.95,15.65,15.65,0,0,1-7-4.18,9.42,9.42,0,0,1-2.38-5.88,25,25,0,0,1,1.68-8.7l3.55-10.46a21.6,21.6,0,0,1,3.35-6.75,9.71,9.71,0,0,1,5.47-2.89,16.88,16.88,0,0,1,15,5.08,9.65,9.65,0,0,1,2.54,6.1A25.82,25.82,0,0,1,398.53,271Z" transform="translate(-9.13 -3.93)" style="fill: #231f20"/>
      <path d="M420.55,254l-3.44,10.11a10.4,10.4,0,0,1,3.8-.94,10.12,10.12,0,0,1,3.82.55,8.79,8.79,0,0,1,4.5,3.2,6.42,6.42,0,0,1,1.35,4.31,38.89,38.89,0,0,1-2,7.3L420,303.86l-11.2-3.81,8.81-25.91a17.28,17.28,0,0,0,1.09-4.24,1.62,1.62,0,0,0-2.83-.93,13.17,13.17,0,0,0-1.63,3.62l-8.94,26.27L394.07,295l15.27-44.9Z" transform="translate(-9.13 -3.93)" style="fill: #231f20"/>
      <path d="M457.3,289.91l-3.07,9a39.62,39.62,0,0,1-3,7.11,10.8,10.8,0,0,1-3.61,3.6,10.22,10.22,0,0,1-5.21,1.54,18,18,0,0,1-6.22-1.05,22.21,22.21,0,0,1-6-3,9.13,9.13,0,0,1-3.17-3.83,10.5,10.5,0,0,1-.68-4.69,32.23,32.23,0,0,1,1.78-7.24l3.21-9.43a24.59,24.59,0,0,1,3.84-7.64,9.72,9.72,0,0,1,5.57-3.27,14.83,14.83,0,0,1,8,.76,17.91,17.91,0,0,1,6.1,3.33A11.16,11.16,0,0,1,458,279.5a11,11,0,0,1,.74,4.4A24,24,0,0,1,457.3,289.91ZM447,283.33a13.31,13.31,0,0,0,.91-3.67,1.34,1.34,0,0,0-1.06-1.18,1.39,1.39,0,0,0-1.58.28,12,12,0,0,0-1.54,3.45l-5.65,16.62a11.29,11.29,0,0,0-.83,3.51,1.61,1.61,0,0,0,2.6,1,10.15,10.15,0,0,0,1.37-3Z" transform="translate(-9.13 -3.93)" style="fill: #231f20"/>
      <path d="M486.34,299.79l-3.07,9a39.62,39.62,0,0,1-3,7.11,10.8,10.8,0,0,1-3.61,3.6,10.25,10.25,0,0,1-5.21,1.54,18,18,0,0,1-6.22-1.05,22.5,22.5,0,0,1-6-3,9.13,9.13,0,0,1-3.17-3.83,10.36,10.36,0,0,1-.68-4.69,31.7,31.7,0,0,1,1.79-7.24l3.2-9.43a24.59,24.59,0,0,1,3.84-7.64,9.72,9.72,0,0,1,5.57-3.27,14.83,14.83,0,0,1,8,.76,17.74,17.74,0,0,1,6.1,3.33,11.16,11.16,0,0,1,3.18,4.34,11,11,0,0,1,.74,4.4A24.12,24.12,0,0,1,486.34,299.79Zm-10.26-6.58a13.31,13.31,0,0,0,.91-3.67,1.34,1.34,0,0,0-1.06-1.18,1.39,1.39,0,0,0-1.58.28,12,12,0,0,0-1.54,3.45l-5.66,16.62a11.47,11.47,0,0,0-.82,3.51,1.61,1.61,0,0,0,2.6,1,10.15,10.15,0,0,0,1.37-3Z" transform="translate(-9.13 -3.93)" style="fill: #231f20"/>
      <path d="M508.72,284l-15.28,44.9-11.54-3.92L497.18,280Z" transform="translate(-9.13 -3.93)" style="fill: #231f20"/>
      <path d="M521.52,297.34,509,334.15l-11.54-3.93L510,293.42Zm2.76-8.1-2,5.85-11.54-3.92,2-5.85Z" transform="translate(-9.13 -3.93)" style="fill: #231f20"/>
      <path d="M537,302.59l-1.35,3.32a9,9,0,0,1,4-2,8.54,8.54,0,0,1,4.41.37,8.21,8.21,0,0,1,4.26,3,6.43,6.43,0,0,1,1.19,4.22,33.41,33.41,0,0,1-1.82,7.07l-8.78,25.8-11.2-3.81L536.34,315a26.21,26.21,0,0,0,1.33-4.72c0-.61-.35-1-1.11-1.3a1.47,1.47,0,0,0-1.82.44,25.76,25.76,0,0,0-2,5l-8.46,24.88L513,335.51l12.52-36.8Z" transform="translate(-9.13 -3.93)" style="fill: #231f20"/>
      <path d="M580.71,317.48l-9.64,28.34a64.67,64.67,0,0,1-2.79,7.33,7.87,7.87,0,0,1-3.08,2.92,10.65,10.65,0,0,1-5.45,1.33,24.16,24.16,0,0,1-7.56-1.47,18.58,18.58,0,0,1-8-4.75q-2.62-2.91-.93-8.28l10.88,3.7c-.56,1.63-.24,2.64.94,3a1.86,1.86,0,0,0,1.95-.17,8.1,8.1,0,0,0,1.48-3l.94-2.77a11.21,11.21,0,0,1-3.7.94,9,9,0,0,1-3.57-.47,9.82,9.82,0,0,1-4.57-2.92,6.58,6.58,0,0,1-1.58-4.11,18.27,18.27,0,0,1,1.2-5.89l4.54-13.37q1.79-5.24,4.46-6.9c1.78-1.11,4-1.22,6.52-.35a9,9,0,0,1,3.55,2.17,9.57,9.57,0,0,1,2.21,3.64l1.75-2.51Zm-14.55,5.94a11.16,11.16,0,0,0,.8-3.32c0-.53-.39-.9-1.05-1.13a1.5,1.5,0,0,0-1.64.32,8.37,8.37,0,0,0-1.47,3l-4.21,12.37a10.77,10.77,0,0,0-.78,3.3,1.31,1.31,0,0,0,1,1.17,1.46,1.46,0,0,0,1.75-.39,15.65,15.65,0,0,0,1.7-3.91Z" transform="translate(-9.13 -3.93)" style="fill: #231f20"/>
    </g>
  </g>
  <g id="to">
    <g>
      <path d="M436.16,224.88v4.49h2.34v4.52h-2.34v15.25a8.32,8.32,0,0,0,.29,3.14c.19.21,1,.32,2.42.32v4.6h-3.5a25.59,25.59,0,0,1-4.24-.25,4.42,4.42,0,0,1-2.23-1.14,3.67,3.67,0,0,1-1.2-2,35.67,35.67,0,0,1-.24-5.4V233.89h-1.87v-4.52h1.87v-4.49Z" transform="translate(-9.13 -3.93)" style="fill: #231f20"/>
      <path d="M460.05,238.7v7a30.25,30.25,0,0,1-.38,5.64,7.88,7.88,0,0,1-1.66,3.35,7.41,7.41,0,0,1-3.25,2.3,12.92,12.92,0,0,1-4.57.74,16.43,16.43,0,0,1-4.88-.63,6.65,6.65,0,0,1-3.1-1.91,7.54,7.54,0,0,1-1.58-3.1,23,23,0,0,1-.47-5.44v-7.31a17.71,17.71,0,0,1,.86-6.21,7.15,7.15,0,0,1,3.09-3.59,10.91,10.91,0,0,1,5.72-1.35,13,13,0,0,1,5,.87,7.83,7.83,0,0,1,4.79,5.15A17.84,17.84,0,0,1,460.05,238.7Zm-8.68-2.15a9.86,9.86,0,0,0-.23-2.76,1,1,0,0,0-1-.57,1,1,0,0,0-1,.57,8.87,8.87,0,0,0-.25,2.76v12.87a8.45,8.45,0,0,0,.25,2.63,1,1,0,0,0,1,.61,1,1,0,0,0,1-.56,7.06,7.06,0,0,0,.25-2.4Z" transform="translate(-9.13 -3.93)" style="fill: #231f20"/>
    </g>
  </g>
  <g id="back">
    <g>
      <path d="M359.22,204.87v6.37a5.32,5.32,0,0,1,1.85-1.44,5.14,5.14,0,0,1,2.21-.48,6.27,6.27,0,0,1,2.4.43,3.52,3.52,0,0,1,1.54,1.22,3.71,3.71,0,0,1,.64,1.52,29,29,0,0,1,.11,3.19v9.93a14.57,14.57,0,0,1-.33,3.61,3.75,3.75,0,0,1-1.52,2.06,4.67,4.67,0,0,1-2.84.87,4.78,4.78,0,0,1-2.2-.52,5.8,5.8,0,0,1-1.86-1.54l-.43,1.66h-6.28V204.87Zm2,11.11a6.94,6.94,0,0,0-.22-2.23.82.82,0,0,0-.84-.53.77.77,0,0,0-.8.46,8.45,8.45,0,0,0-.18,2.3v9.5a7.88,7.88,0,0,0,.2,2.27.82.82,0,0,0,.83.5.78.78,0,0,0,.82-.52,9.23,9.23,0,0,0,.19-2.47Z" transform="translate(-9.13 -3.93)" style="fill: #231f20"/>
      <path d="M376.17,218.25h-6.29v-1.47a10.55,10.55,0,0,1,.58-3.95,5.57,5.57,0,0,1,2.37-2.45,11,11,0,0,1,9.75.15,4.66,4.66,0,0,1,2.07,2.95,46.54,46.54,0,0,1,.35,7.21v11.06h-6.52v-2a4.31,4.31,0,0,1-1.59,1.77,4.42,4.42,0,0,1-2.32.59,5.67,5.67,0,0,1-3.23-1c-1-.66-1.46-2.1-1.46-4.32V225a5.29,5.29,0,0,1,.78-3.37,10.87,10.87,0,0,1,3.86-2.09c2.21-.87,3.38-1.45,3.54-1.75a4.71,4.71,0,0,0,.23-1.82,6.26,6.26,0,0,0-.25-2.25.9.9,0,0,0-.86-.53c-.45,0-.74.15-.85.44a9.19,9.19,0,0,0-.16,2.29Zm2.12,3a5,5,0,0,0-1.87,2,8,8,0,0,0-.25,2.29,6.7,6.7,0,0,0,.22,2.21.89.89,0,0,0,.89.5.82.82,0,0,0,.82-.39,6.26,6.26,0,0,0,.19-2.05Z" transform="translate(-9.13 -3.93)" style="fill: #231f20"/>
      <path d="M402.13,218h-6.32V215.5a5,5,0,0,0-.22-1.8.92.92,0,0,0-1.58-.06,5.41,5.41,0,0,0-.2,1.86v10.39a4,4,0,0,0,.3,1.77,1,1,0,0,0,.88.59.92.92,0,0,0,.93-.62,7.39,7.39,0,0,0,.24-2.32v-2.62h6a33.55,33.55,0,0,1-.19,4,6.29,6.29,0,0,1-1.11,2.7,5.91,5.91,0,0,1-2.45,2.09,10.56,10.56,0,0,1-8.23-.26,5.37,5.37,0,0,1-2.35-2.72,14.13,14.13,0,0,1-.69-5v-6.26a12.26,12.26,0,0,1,.56-4.23,5.53,5.53,0,0,1,2.41-2.55,9.56,9.56,0,0,1,9,0,5.51,5.51,0,0,1,2.48,2.81A14.68,14.68,0,0,1,402.13,218Z" transform="translate(-9.13 -3.93)" style="fill: #231f20"/>
      <path d="M418.57,209.72l-2.73,8.77,3.54,13.26h-6.45l-2.09-9.6v9.6h-6.71V204.87h6.71v11.29l2.09-6.44Z" transform="translate(-9.13 -3.93)" style="fill: #231f20"/>
    </g>
  </g>
  <g id="ya">
    <g>
      <path d="M297,233.72l-3.38,28.13c-.54,4.45-1,7.49-1.34,9.11a9.83,9.83,0,0,1-1.81,4,7.3,7.3,0,0,1-3.5,2.33,24.58,24.58,0,0,1-7.16.75h-7.18v-6.21a13.86,13.86,0,0,0,3.55-.28,1.19,1.19,0,0,0,.8-1.25c0-.31-.25-1.67-.74-4.07l-6.48-32.52h10.75L284.38,260l1.89-26.25Z" transform="translate(-9.13 -3.93)" style="fill: #231f20"/>
      <path d="M309.67,248.78h-11.1v-2.61a18.46,18.46,0,0,1,1-7,9.65,9.65,0,0,1,4.18-4.32,15.7,15.7,0,0,1,8.14-1.87q6,0,9.05,2.12a8.35,8.35,0,0,1,3.67,5.22q.62,3.09.61,12.73V272.6H313.75v-3.47a7.22,7.22,0,0,1-6.89,4.17,10,10,0,0,1-5.7-1.74c-1.72-1.16-2.59-3.71-2.59-7.63v-3.2q0-4.37,1.38-6t6.82-3.69c3.89-1.52,6-2.55,6.24-3.07a8.07,8.07,0,0,0,.41-3.23,11,11,0,0,0-.45-4,1.57,1.57,0,0,0-1.51-.92c-.8,0-1.3.26-1.49.78a15.43,15.43,0,0,0-.3,4Zm3.75,5.33q-2.84,2.08-3.29,3.49a13.84,13.84,0,0,0-.46,4,11.89,11.89,0,0,0,.4,3.9,1.56,1.56,0,0,0,1.57.88,1.46,1.46,0,0,0,1.45-.69,11.38,11.38,0,0,0,.33-3.62Z" transform="translate(-9.13 -3.93)" style="fill: #231f20"/>
    </g>
  </g>
  <g id="send">
    <g>
      <path d="M252.13,254l0-8.92h1.79a9.71,9.71,0,0,0,2.9-.26c.41-.18.61-.61.61-1.31a1.47,1.47,0,0,0-.57-1.27,2.77,2.77,0,0,0-1.68-.42,8.11,8.11,0,0,0-2.23.22,3.47,3.47,0,0,0-1.55,1.27,28,28,0,0,0-2.45,4.35c-1.43,2.93-2.76,4.85-4,5.77a9.41,9.41,0,0,1-5.5,1.38,14.08,14.08,0,0,1-6.1-1,7,7,0,0,1-3.17-3.5A14.39,14.39,0,0,1,229,244.4a16.43,16.43,0,0,1,1.18-6.56,7.19,7.19,0,0,1,3.23-3.76,14.35,14.35,0,0,1,6.17-1h1.6l0,8.92h-2.09a11,11,0,0,0-3.46.35,1.29,1.29,0,0,0-.8,1.33,1.78,1.78,0,0,0,.54,1.49,4,4,0,0,0,2.26.42c1.57,0,2.56-.19,3-.55a48.52,48.52,0,0,0,3.52-5.86q2.47-4.44,4.51-5.42a11,11,0,0,1,4.81-1,12.46,12.46,0,0,1,5.84,1,6.79,6.79,0,0,1,2.91,3.54,15.33,15.33,0,0,1,1,5.81,16.71,16.71,0,0,1-.82,5.6,8.66,8.66,0,0,1-2.2,3.54,6,6,0,0,1-2.53,1.5,17.86,17.86,0,0,1-3.66.27Z" transform="translate(-9.13 -3.93)" style="fill: #231f20"/>
      <path d="M245.64,280.3l0-13-7.15,0a7.75,7.75,0,0,0-2.88.33,1.27,1.27,0,0,0-.65,1.25,1.51,1.51,0,0,0,.87,1.53,9.59,9.59,0,0,0,3.32.38l4.36,0,0,9.54h-2.44a21.83,21.83,0,0,1-4.71-.38,9.58,9.58,0,0,1-3.51-1.79,8.76,8.76,0,0,1-2.81-3.59,14,14,0,0,1-.95-5.47,16,16,0,0,1,.91-5.63,8.93,8.93,0,0,1,2.52-3.8,9.05,9.05,0,0,1,3.53-1.89,23.06,23.06,0,0,1,5.61-.54l9.64,0a16.47,16.47,0,0,1,6.84,1.15,8,8,0,0,1,3.84,3.83,13.45,13.45,0,0,1,1.35,6.12,13.65,13.65,0,0,1-1.59,7,8.81,8.81,0,0,1-4.25,3.87,20,20,0,0,1-7.45,1.13ZM251,270.2h2.41a12.14,12.14,0,0,0,3.31-.28,1.08,1.08,0,0,0,.75-1.12c0-.7-.22-1.13-.64-1.29a13,13,0,0,0-3.42-.25H251Z" transform="translate(-9.13 -3.93)" style="fill: #231f20"/>
      <path d="M262.78,293.78l-3-.17a7.56,7.56,0,0,1,2.74,2.67,7.25,7.25,0,0,1,.92,3.65,6.93,6.93,0,0,1-1.21,4.23,5.45,5.45,0,0,1-3.07,2.13,28.23,28.23,0,0,1-6.19.49l-23.16.05,0-10.06,22.88,0a21.52,21.52,0,0,0,4.16-.24c.5-.15.75-.56.74-1.24a1.25,1.25,0,0,0-.86-1.35,21.4,21.4,0,0,0-4.59-.26l-22.34.05,0-10.06,33-.08Z" transform="translate(-9.13 -3.93)" style="fill: #231f20"/>
      <path d="M270.15,333.08l-40.32.1,0-10.06h2.4a10.59,10.59,0,0,1-2.26-3,7.73,7.73,0,0,1-.75-3.34,6.73,6.73,0,0,1,1.22-4.06,5.5,5.5,0,0,1,2.85-2.21,20.2,20.2,0,0,1,5.27-.5l15.47,0a21,21,0,0,1,5.4.48,5.34,5.34,0,0,1,2.81,2.22,7.14,7.14,0,0,1,1.22,4.16,8.26,8.26,0,0,1-2.68,6.25l9.37,0Zm-15.61-10a6.41,6.41,0,0,0,2.44-.32,1.55,1.55,0,0,0,0-2.44,6.15,6.15,0,0,0-2.5-.31l-16.19,0a7.63,7.63,0,0,0-2.65.31,1.15,1.15,0,0,0-.63,1.15,1.29,1.29,0,0,0,.71,1.29,11.07,11.07,0,0,0,3.48.31Z" transform="translate(-9.13 -3.93)" style="fill: #231f20"/>
    </g>
  </g>
  <g id="gonna">
    <g>
      <path d="M138,277.85v21.46a47.82,47.82,0,0,1-.2,5.61,5.57,5.57,0,0,1-1.42,2.69,7.48,7.48,0,0,1-3.39,2.16,17,17,0,0,1-5.47.75,13.28,13.28,0,0,1-6.51-1.38c-1.64-.91-2.48-2.71-2.54-5.4h8.23c0,1.23.45,1.85,1.35,1.85a1.33,1.33,0,0,0,1.28-.57,5.78,5.78,0,0,0,.31-2.38v-2.1a8.11,8.11,0,0,1-2.3,1.5,6.6,6.6,0,0,1-2.53.5,7.09,7.09,0,0,1-3.77-.92,4.76,4.76,0,0,1-2-2.43,12.84,12.84,0,0,1-.55-4.27V284.8q0-4,1.43-5.71a5.29,5.29,0,0,1,4.35-1.74,6.34,6.34,0,0,1,2.9.65,6.84,6.84,0,0,1,2.35,1.95l.6-2.1Zm-8.5,7.39a7.9,7.9,0,0,0-.23-2.44.94.94,0,0,0-1-.52,1.07,1.07,0,0,0-1,.6,6,6,0,0,0-.31,2.36v9.36a8,8,0,0,0,.23,2.43,1,1,0,0,0,1,.56,1,1,0,0,0,1.09-.68,10.82,10.82,0,0,0,.26-3Z" transform="translate(-9.13 -3.93)" style="fill: #231f20"/>
      <path d="M160.23,287.63v6.83a28.13,28.13,0,0,1-.38,5.51,7.81,7.81,0,0,1-1.61,3.28,7.35,7.35,0,0,1-3.18,2.24,12.85,12.85,0,0,1-4.47.73,16,16,0,0,1-4.76-.62,6.66,6.66,0,0,1-3-1.87,7.44,7.44,0,0,1-1.54-3,22.57,22.57,0,0,1-.46-5.32v-7.14a17.49,17.49,0,0,1,.84-6.07,7,7,0,0,1,3-3.5,10.68,10.68,0,0,1,5.59-1.32,12.68,12.68,0,0,1,4.9.85,7.74,7.74,0,0,1,3.16,2.21,7.85,7.85,0,0,1,1.52,2.81A17.21,17.21,0,0,1,160.23,287.63Zm-8.48-2.1a9.38,9.38,0,0,0-.23-2.69,1,1,0,0,0-1-.56,1,1,0,0,0-1,.56,8.77,8.77,0,0,0-.25,2.69v12.58a8.39,8.39,0,0,0,.25,2.57,1,1,0,0,0,1,.6,1,1,0,0,0,1-.54,7.22,7.22,0,0,0,.24-2.36Z" transform="translate(-9.13 -3.93)" style="fill: #231f20"/>
      <path d="M171.65,277.85l-.14,2.57a6.32,6.32,0,0,1,2.25-2.31,6.09,6.09,0,0,1,3.08-.76,5.85,5.85,0,0,1,3.57,1,4.56,4.56,0,0,1,1.78,2.6,23.42,23.42,0,0,1,.4,5.22v19.52h-8.48V286.42a17.6,17.6,0,0,0-.19-3.51q-.18-.63-1-.63a1,1,0,0,0-1.13.72,17.93,17.93,0,0,0-.23,3.88v18.83H163V277.85Z" transform="translate(-9.13 -3.93)" style="fill: #231f20"/>
      <path d="M194.14,277.85l-.15,2.57a6.35,6.35,0,0,1,2.26-2.31,6.06,6.06,0,0,1,3.08-.76,5.9,5.9,0,0,1,3.57,1,4.61,4.61,0,0,1,1.78,2.6,23.42,23.42,0,0,1,.4,5.22v19.52H196.6V286.42a18.47,18.47,0,0,0-.19-3.51q-.19-.63-1-.63a1.06,1.06,0,0,0-1.14.72,18.65,18.65,0,0,0-.23,3.88v18.83h-8.48V277.85Z" transform="translate(-9.13 -3.93)" style="fill: #231f20"/>
      <path d="M215.58,288.64h-8v-1.87a13.32,13.32,0,0,1,.74-5,7,7,0,0,1,3-3.1,11.18,11.18,0,0,1,5.83-1.34c2.87,0,5,.5,6.49,1.52a5.94,5.94,0,0,1,2.63,3.73,59.22,59.22,0,0,1,.44,9.13v14H218.5v-2.48a5.2,5.2,0,0,1-4.94,3,7.19,7.19,0,0,1-4.08-1.25q-1.86-1.26-1.86-5.47v-2.29q0-3.13,1-4.26c.65-.76,2.29-1.64,4.89-2.65,2.78-1.09,4.27-1.83,4.47-2.2a5.77,5.77,0,0,0,.3-2.31,7.7,7.7,0,0,0-.33-2.85,1.12,1.12,0,0,0-1.08-.66c-.58,0-.93.19-1.07.56a11.25,11.25,0,0,0-.21,2.88Zm2.69,3.82a6.39,6.39,0,0,0-2.37,2.5,10.21,10.21,0,0,0-.32,2.9,8.43,8.43,0,0,0,.28,2.79,1.1,1.1,0,0,0,1.12.63c.54,0,.88-.16,1-.49a8,8,0,0,0,.25-2.6Z" transform="translate(-9.13 -3.93)" style="fill: #231f20"/>
    </g>
  </g>
  <g id="im2">
    <g>
      <path d="M128.24,209.31l.15,63.24-16.45,0-.15-63.24Z" transform="translate(-9.13 -3.93)" style="fill: #231f20"/>
      <path d="M143.55,209.27v5.66a21.26,21.26,0,0,1-1,7.29,10.59,10.59,0,0,1-3.64,4.85,14.63,14.63,0,0,1-5.88,2.69v-4.57a4.7,4.7,0,0,0,2.65-3.52H133l0-12.38Z" transform="translate(-9.13 -3.93)" style="fill: #231f20"/>
      <path d="M163.42,220.63l-.26,4.93a12.7,12.7,0,0,1,4.36-4.41,11.32,11.32,0,0,1,5.78-1.48q6.33,0,10,5.84a14.1,14.1,0,0,1,4.48-4.41,10.71,10.71,0,0,1,5.54-1.48,10.87,10.87,0,0,1,6.67,1.94,8.59,8.59,0,0,1,3.39,4.77,40.34,40.34,0,0,1,.76,9.2l.09,36.84-15.31,0-.08-33.79q0-6.63-.47-8.22a2,2,0,0,0-2.1-1.57,2.05,2.05,0,0,0-2.16,1.56c-.32,1.05-.48,3.79-.47,8.25l.08,33.79-15.31,0-.08-32.93a60.23,60.23,0,0,0-.39-9.14,1.89,1.89,0,0,0-2.06-1.52,2.4,2.4,0,0,0-1.79.81,3.08,3.08,0,0,0-.82,2c-.05.77-.07,2.41-.06,4.91l.08,35.93-15.31,0-.13-51.83Z" transform="translate(-9.13 -3.93)" style="fill: #231f20"/>
    </g>
  </g>
  <g id="fooling">
    <g>
      <path d="M693.8,45.27l-7.8,0q0-4.76-.46-5.62c-.29-.56-1.12-.85-2.49-.85h-1.6V45.3l-8,0V41.67l-41.33.1,0-15.39,41.32-.1V23.12l8,0v3.16a40,40,0,0,1,6.66.33,5.68,5.68,0,0,1,3,1.68,8.79,8.79,0,0,1,2,3.79,30.61,30.61,0,0,1,.7,7.58Z" transform="translate(-9.13 -3.93)" style="fill: #231f20"/>
      <path d="M665,83.09l-12.38,0a52.47,52.47,0,0,1-10-.66,14.16,14.16,0,0,1-5.95-2.92,13.34,13.34,0,0,1-4.09-5.76,23.22,23.22,0,0,1-1.33-8.09,28.89,28.89,0,0,1,1.1-8.65,11.74,11.74,0,0,1,3.38-5.51,13.32,13.32,0,0,1,5.47-2.82,41.55,41.55,0,0,1,9.66-.86l13,0q7,0,11,1.5a12.67,12.67,0,0,1,6.37,5.47,19.24,19.24,0,0,1,2.42,10.12,23,23,0,0,1-1.52,8.9,14.2,14.2,0,0,1-4,5.74,14.44,14.44,0,0,1-5.1,2.78A32.2,32.2,0,0,1,665,83.09Zm3.77-15.4a16.94,16.94,0,0,0,4.89-.43,1.74,1.74,0,0,0,1-1.79,1.82,1.82,0,0,0-1-1.83,15.43,15.43,0,0,0-4.89-.44l-22.82,0a14.76,14.76,0,0,0-4.66.47,1.75,1.75,0,0,0-1.08,1.79,1.77,1.77,0,0,0,1,1.81,13,13,0,0,0,4.27.43Z" transform="translate(-9.13 -3.93)" style="fill: #231f20"/>
      <path d="M665.12,123l-12.38,0a52.42,52.42,0,0,1-10-.66,13.87,13.87,0,0,1-6-2.92,13.15,13.15,0,0,1-4.09-5.76,23,23,0,0,1-1.33-8.09,28.66,28.66,0,0,1,1.1-8.65,11.81,11.81,0,0,1,3.37-5.51,13.41,13.41,0,0,1,5.48-2.81,41.39,41.39,0,0,1,9.65-.86l12.95,0q7.05,0,11,1.49a12.7,12.7,0,0,1,6.38,5.47,19.37,19.37,0,0,1,2.42,10.13,23.09,23.09,0,0,1-1.52,8.89,13.89,13.89,0,0,1-9.1,8.52A31.81,31.81,0,0,1,665.12,123Zm3.77-15.39a16.52,16.52,0,0,0,4.9-.44,1.72,1.72,0,0,0,1-1.79,1.8,1.8,0,0,0-1-1.82,15.14,15.14,0,0,0-4.9-.45l-22.81.06a14.82,14.82,0,0,0-4.66.46,1.77,1.77,0,0,0-1.09,1.8,1.8,1.8,0,0,0,1,1.81,13.14,13.14,0,0,0,4.27.42Z" transform="translate(-9.13 -3.93)" style="fill: #231f20"/>
      <path d="M694,143.8l-61.66.15,0-15.84L694,128Z" transform="translate(-9.13 -3.93)" style="fill: #231f20"/>
      <path d="M683,165.19l-50.54.13,0-15.85,50.54-.12Zm11.12,0-8,0,0-15.85,8,0Z" transform="translate(-9.13 -3.93)" style="fill: #231f20"/>
      <path d="M683,186.37l-4.66-.26a11.67,11.67,0,0,1,4.19,4.09,11,11,0,0,1,1.4,5.57,10.52,10.52,0,0,1-1.85,6.48,8.28,8.28,0,0,1-4.69,3.25,42.78,42.78,0,0,1-9.47.75l-35.42.08,0-15.38,35-.09a32,32,0,0,0,6.36-.36c.76-.23,1.14-.86,1.13-1.9a1.91,1.91,0,0,0-1.32-2.06,33.41,33.41,0,0,0-7-.4l-34.17.09,0-15.39,50.54-.12Z" transform="translate(-9.13 -3.93)" style="fill: #231f20"/>
      <path d="M683.17,246.47l-38.92.09a86.69,86.69,0,0,1-10.19-.33,10.12,10.12,0,0,1-4.88-2.56,13.82,13.82,0,0,1-3.94-6.14,31,31,0,0,1-1.38-9.92q0-7.35,2.47-11.82t9.79-4.63l0,14.93c-2.23,0-3.35.82-3.34,2.45a2.4,2.4,0,0,0,1,2.32,10.31,10.31,0,0,0,4.31.56H642a14.74,14.74,0,0,1-2.72-4.16,12,12,0,0,1-.93-4.59,12.79,12.79,0,0,1,1.66-6.84,8.66,8.66,0,0,1,4.39-3.69,23.88,23.88,0,0,1,7.75-1l18.36,0q7.2,0,10.36,2.56C683,215.37,684,218,684,221.52a11.56,11.56,0,0,1-1.17,5.28,12.3,12.3,0,0,1-3.54,4.25l3.83,1.1Zm-13.44-15.39a15,15,0,0,0,4.41-.41,1.71,1.71,0,0,0,1-1.78A1.93,1.93,0,0,0,674,227a10.7,10.7,0,0,0-4.28-.54l-17,0a14.08,14.08,0,0,0-4.4.43,1.68,1.68,0,0,0-1,1.75,1.88,1.88,0,0,0,1.22,2,20.37,20.37,0,0,0,5.52.45Z" transform="translate(-9.13 -3.93)" style="fill: #231f20"/>
    </g>
  </g>
  <g id="not">
    <g>
      <path d="M531,98.48l-.3,5.2A12.7,12.7,0,0,1,535.25,99a12.17,12.17,0,0,1,6.22-1.56,11.86,11.86,0,0,1,7.22,2.08,9.28,9.28,0,0,1,3.61,5.25,47.83,47.83,0,0,1,.81,10.56v39.5H536v-39a35.56,35.56,0,0,0-.39-7.09c-.25-.85-1-1.27-2.12-1.27a2.11,2.11,0,0,0-2.29,1.46c-.32,1-.47,3.59-.47,7.84v38.1H513.52V98.48Z" transform="translate(-9.13 -3.93)" style="fill: #231f20"/>
      <path d="M597.84,118.28v13.8a58.47,58.47,0,0,1-.76,11.16,15.55,15.55,0,0,1-3.28,6.62,14.72,14.72,0,0,1-6.43,4.55,25.91,25.91,0,0,1-9,1.46,32,32,0,0,1-9.64-1.25,13.25,13.25,0,0,1-6.14-3.78,14.88,14.88,0,0,1-3.12-6.12A46.07,46.07,0,0,1,558.5,134V119.51q0-7.86,1.7-12.28a14.18,14.18,0,0,1,6.12-7.09q4.42-2.69,11.3-2.68a25.94,25.94,0,0,1,9.92,1.72A15.54,15.54,0,0,1,597,109.36,35.41,35.41,0,0,1,597.84,118.28ZM580.68,114a18.75,18.75,0,0,0-.47-5.46,1.93,1.93,0,0,0-2-1.12,2,2,0,0,0-2,1.12q-.51,1.13-.51,5.46v25.45a16.47,16.47,0,0,0,.51,5.2,2,2,0,0,0,2,1.21,2,2,0,0,0,2-1.1,14.32,14.32,0,0,0,.49-4.76Z" transform="translate(-9.13 -3.93)" style="fill: #231f20"/>
      <path d="M621.59,91v8.88h4.63v8.92h-4.63v30.16q0,5.57.57,6.21c.38.42,2,.63,4.78.63v9.09H620a50.36,50.36,0,0,1-8.37-.48,8.93,8.93,0,0,1-4.42-2.26,7.42,7.42,0,0,1-2.38-4,71.75,71.75,0,0,1-.47-10.69V108.76h-3.69V99.84h3.69V91Z" transform="translate(-9.13 -3.93)" style="fill: #231f20"/>
    </g>
  </g>
  <g id="im">
    <g>
      <path d="M481.34,50.5l.1,37.94-9.87,0-.09-37.95Z" transform="translate(-9.13 -3.93)" style="fill: #231f20"/>
      <path d="M490.53,50.47v3.4a13,13,0,0,1-.62,4.38,6.34,6.34,0,0,1-2.19,2.91,8.72,8.72,0,0,1-3.52,1.61V60a2.81,2.81,0,0,0,1.59-2.11H484.2l0-7.43Z" transform="translate(-9.13 -3.93)" style="fill: #231f20"/>
      <path d="M502.45,57.29l-.15,3a7.56,7.56,0,0,1,2.62-2.65,6.82,6.82,0,0,1,3.46-.89,6.75,6.75,0,0,1,6,3.51,8.46,8.46,0,0,1,2.69-2.65,6.47,6.47,0,0,1,3.32-.89,6.56,6.56,0,0,1,4,1.17,5.12,5.12,0,0,1,2,2.86,24.46,24.46,0,0,1,.45,5.52l.06,22.1-9.19,0,0-20.27a25.92,25.92,0,0,0-.28-4.93,1.2,1.2,0,0,0-1.26-.95,1.25,1.25,0,0,0-1.3.94,24.42,24.42,0,0,0-.28,5l0,20.27-9.18,0-.05-19.75a36.41,36.41,0,0,0-.24-5.49,1.13,1.13,0,0,0-1.23-.91,1.43,1.43,0,0,0-1.08.48,1.93,1.93,0,0,0-.49,1.18c0,.46,0,1.44,0,2.94l.06,21.56-9.19,0-.08-31.1Z" transform="translate(-9.13 -3.93)" style="fill: #231f20"/>
    </g>
  </g>
  <g id="baby">
    <g>
      <path d="M463.72,183.93l9.74,0a8.28,8.28,0,0,1-2.21-2.83,8,8,0,0,1-.74-3.38,9.27,9.27,0,0,1,.66-3.66,5.23,5.23,0,0,1,1.84-2.37,5.68,5.68,0,0,1,2.34-1,45,45,0,0,1,4.87-.18l15.19,0a22.31,22.31,0,0,1,5.52.48,5.76,5.76,0,0,1,3.15,2.31,7.25,7.25,0,0,1,1.35,4.34,7.45,7.45,0,0,1-.78,3.37,9.08,9.08,0,0,1-2.36,2.86l2.54.65,0,9.6-41.11.1Zm17-3.16a10.85,10.85,0,0,0-3.41.34,1.27,1.27,0,0,0-.8,1.29,1.17,1.17,0,0,0,.7,1.22,12.41,12.41,0,0,0,3.52.27l14.52,0a11.68,11.68,0,0,0,3.48-.33,1.22,1.22,0,0,0,.76-1.26,1.19,1.19,0,0,0-.79-1.25,14.17,14.17,0,0,0-3.78-.29Z" transform="translate(-9.13 -3.93)" style="fill: #231f20"/>
      <path d="M484.13,158l0,9.62h-2.26a16,16,0,0,1-6-.89,8.37,8.37,0,0,1-3.76-3.61,13.72,13.72,0,0,1-1.64-7.05q0-5.21,1.82-7.85A7.18,7.18,0,0,1,476.8,145a71.57,71.57,0,0,1,11-.56l16.91,0,0,10h-3a6.26,6.26,0,0,1,3.62,6,8.64,8.64,0,0,1-1.49,4.94q-1.51,2.25-6.61,2.26h-2.77q-3.78,0-5.16-1.18c-.91-.8-2-2.77-3.21-5.91q-2-5.06-2.68-5.4a6.88,6.88,0,0,0-2.79-.35,9.41,9.41,0,0,0-3.44.4,1.34,1.34,0,0,0-.8,1.31c0,.69.23,1.13.68,1.29a13.64,13.64,0,0,0,3.49.25Zm4.61-3.26q1.81,2.46,3,2.85a11.79,11.79,0,0,0,3.5.38,10.1,10.1,0,0,0,3.38-.35,1.34,1.34,0,0,0,.76-1.36,1.24,1.24,0,0,0-.6-1.25,9.56,9.56,0,0,0-3.14-.29Z" transform="translate(-9.13 -3.93)" style="fill: #231f20"/>
      <path d="M463.6,130.71l9.73,0a8.37,8.37,0,0,1-2.21-2.82,8,8,0,0,1-.74-3.39,9.27,9.27,0,0,1,.66-3.66,5.2,5.2,0,0,1,1.84-2.36,5.58,5.58,0,0,1,2.34-1,45,45,0,0,1,4.87-.18l15.19,0a22.31,22.31,0,0,1,5.52.48,5.81,5.81,0,0,1,3.15,2.31,7.25,7.25,0,0,1,1.35,4.34,7.45,7.45,0,0,1-.78,3.37,9.08,9.08,0,0,1-2.36,2.86l2.54.66,0,9.59-41.11.1Zm17-3.16a10.85,10.85,0,0,0-3.41.34,1.27,1.27,0,0,0-.8,1.3,1.18,1.18,0,0,0,.7,1.21,12.41,12.41,0,0,0,3.52.27l14.52,0a11.34,11.34,0,0,0,3.48-.33,1.22,1.22,0,0,0,.76-1.26,1.19,1.19,0,0,0-.79-1.25,14.33,14.33,0,0,0-3.78-.28Z" transform="translate(-9.13 -3.93)" style="fill: #231f20"/>
      <path d="M470.92,92.46l24.38,2.88q5.79.68,7.9,1.14A8.45,8.45,0,0,1,506.68,98a6.27,6.27,0,0,1,2,3,21.67,21.67,0,0,1,.66,6.2v6.22H504a11.67,11.67,0,0,0-.25-3.07,1,1,0,0,0-1.08-.69c-.27,0-1.45.22-3.53.65L471,116.07l0-9.31,22.74-3.43-22.75-1.58Z" transform="translate(-9.13 -3.93)" style="fill: #231f20"/>
    </g>
  </g>
  <g id="cooling">
    <g>
      <path d="M167.92,48.89l-8-11.21,4.5-3.21a10.79,10.79,0,0,0,2.92-2.66,2,2,0,0,0-1.89-2.87,11.93,11.93,0,0,0-3.55,2L143.49,44.09a8.73,8.73,0,0,0-2.75,2.76,2.06,2.06,0,0,0,.07,2.3,2,2,0,0,0,2.25.86,16,16,0,0,0,4.42-2.51l4.65-3.32,7.56,10.59a76.37,76.37,0,0,1-7.26,4.67,13.87,13.87,0,0,1-6.2,1.45,12.93,12.93,0,0,1-6.8-1.69,19.06,19.06,0,0,1-6-5.73q-3.6-5-4-9.2a11.57,11.57,0,0,1,1.85-7.6q2.24-3.44,7.94-7.51l11.08-7.91c3.32-2.37,6-3.82,8.22-4.36a11.9,11.9,0,0,1,7.55,1,18.45,18.45,0,0,1,7.66,6.53,18.7,18.7,0,0,1,3.7,9.34,11.85,11.85,0,0,1-1.85,7.93A31.7,31.7,0,0,1,167.92,48.89Z" transform="translate(-9.13 -3.93)" style="fill: #231f20"/>
      <path d="M190.66,78.56l-9.56,6.82a49.69,49.69,0,0,1-8.1,5,13.37,13.37,0,0,1-6.2,1,12.65,12.65,0,0,1-6.33-2.21A21.79,21.79,0,0,1,155,83.64a27.14,27.14,0,0,1-3.9-7.29,11.28,11.28,0,0,1-.42-6.12,12.84,12.84,0,0,1,2.69-5.18,38.56,38.56,0,0,1,7-6l10-7.14a29.89,29.89,0,0,1,9.33-4.89,12,12,0,0,1,7.94.73,18.26,18.26,0,0,1,7.44,6.5A21.9,21.9,0,0,1,198.79,62a13.3,13.3,0,0,1-2.36,11.59A30.1,30.1,0,0,1,190.66,78.56Zm-5.54-14a16,16,0,0,0,3.55-3,1.66,1.66,0,0,0-.21-1.94,1.71,1.71,0,0,0-1.79-.85,14.34,14.34,0,0,0-4,2.34L165,73.69a13.83,13.83,0,0,0-3.35,2.92,1.65,1.65,0,0,0,.14,2,1.69,1.69,0,0,0,1.77.85,12.27,12.27,0,0,0,3.53-2Z" transform="translate(-9.13 -3.93)" style="fill: #231f20"/>
      <path d="M212.64,109.35l-9.56,6.82a49.7,49.7,0,0,1-8.09,5,13.43,13.43,0,0,1-6.21,1,12.68,12.68,0,0,1-6.33-2.21,21.79,21.79,0,0,1-5.47-5.53,27.14,27.14,0,0,1-3.9-7.29,11.28,11.28,0,0,1-.42-6.12,12.74,12.74,0,0,1,2.7-5.18,38.07,38.07,0,0,1,7-6l10-7.14a29.92,29.92,0,0,1,9.34-4.89,12,12,0,0,1,7.93.72,18.41,18.41,0,0,1,7.44,6.5,22,22,0,0,1,3.71,7.72,13.22,13.22,0,0,1-2.36,11.59A29.79,29.79,0,0,1,212.64,109.35Zm-5.54-14a16,16,0,0,0,3.55-3,1.66,1.66,0,0,0-.21-1.94,1.71,1.71,0,0,0-1.79-.85,14.48,14.48,0,0,0-4,2.34L187,104.48a13.83,13.83,0,0,0-3.35,2.92,2,2,0,0,0,1.91,2.83,12.27,12.27,0,0,0,3.53-2Z" transform="translate(-9.13 -3.93)" style="fill: #231f20"/>
      <path d="M246.46,109.58l-47.61,34-8.74-12.23,47.61-34Z" transform="translate(-9.13 -3.93)" style="fill: #231f20"/>
      <path d="M249.65,132.21l-39,27.86-8.74-12.23,39-27.86Zm8.59-6.13L252,130.51l-8.73-12.23,6.2-4.43Z" transform="translate(-9.13 -3.93)" style="fill: #231f20"/>
      <path d="M261.32,148.56l-3.74,2.36a11,11,0,0,1,5.48.86,10.33,10.33,0,0,1,4.15,3.54,10,10,0,0,1,2.13,6,7.87,7.87,0,0,1-1.85,5.09,41,41,0,0,1-6.9,5.78l-27.35,19.52-8.49-11.88,27-19.29a31.07,31.07,0,0,0,4.72-3.77,1.63,1.63,0,0,0-.17-2.1,1.79,1.79,0,0,0-2.14-.87,31.44,31.44,0,0,0-5.66,3.55l-26.38,18.83-8.48-11.88,39-27.86Z" transform="translate(-9.13 -3.93)" style="fill: #231f20"/>
      <path d="M294.45,195,264.4,216.42a81.22,81.22,0,0,1-8.07,5.34,9.65,9.65,0,0,1-5.18.7,13,13,0,0,1-6.42-2.59,29.22,29.22,0,0,1-6.51-6.91q-4-5.69-4.58-10.49t5-9L246.9,205c-1.73,1.23-2.14,2.47-1.25,3.73a2.32,2.32,0,0,0,2.08,1.23,9.94,9.94,0,0,0,3.64-1.94l2.94-2.1a13.93,13.93,0,0,1-4.39-1.72,11.44,11.44,0,0,1-3.24-3,12.09,12.09,0,0,1-2.47-6.21,8.09,8.09,0,0,1,1.37-5.26,22.52,22.52,0,0,1,5.44-5l14.17-10.12q5.56-4,9.43-3.71c2.58.18,4.84,1.62,6.79,4.35a11.16,11.16,0,0,1,2,4.72,11.87,11.87,0,0,1-.4,5.24l3.56-1.25Zm-18.85-4.53a13.7,13.7,0,0,0,3.19-2.74,1.63,1.63,0,0,0-.24-1.89,1.85,1.85,0,0,0-1.88-.86,10.34,10.34,0,0,0-3.61,1.94l-13.12,9.36a13.42,13.42,0,0,0-3.16,2.75,1.6,1.6,0,0,0,.18,1.91,1.81,1.81,0,0,0,2,.86,19.57,19.57,0,0,0,4.51-2.7Z" transform="translate(-9.13 -3.93)" style="fill: #231f20"/>
    </g>
  </g>
  <g id="need">
    <g>
      <path d="M89,142.34l-.19,3.16a7.84,7.84,0,0,1,2.79-2.84,7.45,7.45,0,0,1,3.79-.94,7.17,7.17,0,0,1,4.4,1.27,5.63,5.63,0,0,1,2.2,3.19,29.78,29.78,0,0,1,.49,6.43v24.07H92V152.9a21.7,21.7,0,0,0-.23-4.32c-.15-.52-.59-.78-1.29-.78a1.29,1.29,0,0,0-1.4.89,22.36,22.36,0,0,0-.29,4.78v23.21H78.34V142.34Z" transform="translate(-9.13 -3.93)" style="fill: #231f20"/>
      <path d="M129.74,160.12H116.2v7.42a8.12,8.12,0,0,0,.34,3,1.29,1.29,0,0,0,1.29.67,1.58,1.58,0,0,0,1.59-.89,9.76,9.76,0,0,0,.4-3.46v-4.53h9.92v2.54a22.45,22.45,0,0,1-.41,4.89,9.83,9.83,0,0,1-1.87,3.65,9.23,9.23,0,0,1-3.74,2.91,14.41,14.41,0,0,1-5.68,1,16.46,16.46,0,0,1-5.85-1,9.32,9.32,0,0,1-4-2.62,9.51,9.51,0,0,1-1.95-3.68,23.8,23.8,0,0,1-.54-5.83v-10a17.05,17.05,0,0,1,1.21-7.1,8.36,8.36,0,0,1,4-4,16,16,0,0,1,13.62.29,9.13,9.13,0,0,1,4,4.42,20.68,20.68,0,0,1,1.16,7.75Zm-10.49-5.59V152a12.64,12.64,0,0,0-.28-3.44,1.12,1.12,0,0,0-1.16-.78q-1.09,0-1.35.66a13.87,13.87,0,0,0-.26,3.56v2.51Z" transform="translate(-9.13 -3.93)" style="fill: #231f20"/>
      <path d="M156.83,160.12H143.3v7.42a8.43,8.43,0,0,0,.33,3,1.32,1.32,0,0,0,1.3.67,1.58,1.58,0,0,0,1.59-.89,9.76,9.76,0,0,0,.4-3.46v-4.53h9.91v2.54a22.57,22.57,0,0,1-.4,4.89,9.87,9.87,0,0,1-1.88,3.65,9.17,9.17,0,0,1-3.74,2.91,14.41,14.41,0,0,1-5.68,1,16.5,16.5,0,0,1-5.85-1,9.28,9.28,0,0,1-3.94-2.62,9.67,9.67,0,0,1-2-3.68,23.8,23.8,0,0,1-.54-5.83v-10a17,17,0,0,1,1.22-7.1,8.38,8.38,0,0,1,4-4,16,16,0,0,1,13.63.29,9.23,9.23,0,0,1,4,4.42,20.71,20.71,0,0,1,1.15,7.75Zm-10.48-5.59V152a12.5,12.5,0,0,0-.29-3.44,1.11,1.11,0,0,0-1.16-.78q-1.08,0-1.35.66a14.07,14.07,0,0,0-.25,3.56v2.51Z" transform="translate(-9.13 -3.93)" style="fill: #231f20"/>
      <path d="M184,134.78v41.9H173.57v-2.49a10.79,10.79,0,0,1-3.15,2.33,8.07,8.07,0,0,1-3.47.78,7.08,7.08,0,0,1-4.22-1.28,5.71,5.71,0,0,1-2.29-3,21,21,0,0,1-.5-5.49V151.5a21.59,21.59,0,0,1,.5-5.62,5.61,5.61,0,0,1,2.32-2.91,7.41,7.41,0,0,1,4.32-1.25,8.84,8.84,0,0,1,3.56.7,9,9,0,0,1,2.93,2.1v-9.74ZM173.57,151a6.42,6.42,0,0,0-.32-2.53,1.3,1.3,0,0,0-1.28-.65,1.32,1.32,0,0,0-1.26.58,6.63,6.63,0,0,0-.32,2.6V167.8a7.69,7.69,0,0,0,.31,2.76,1.2,1.2,0,0,0,1.19.66,1.35,1.35,0,0,0,1.35-.74,11.56,11.56,0,0,0,.33-3.61Z" transform="translate(-9.13 -3.93)" style="fill: #231f20"/>
    </g>
  </g>
  <g id="you">
      <path d="M79.26,70.85,68.18,103.63v18.6H54.11v-18.6L43.44,70.85h14q3.27,15,3.69,20.25,1.26-8.23,4.22-20.25Z" transform="translate(-9.13 -3.93)" style="fill: #231f20"/>
      <path d="M111.07,94.91v10.31a38.52,38.52,0,0,1-.65,8.33,11.12,11.12,0,0,1-2.78,5,12.56,12.56,0,0,1-5.46,3.4A24.61,24.61,0,0,1,94.51,123a31,31,0,0,1-8.18-.93,11.54,11.54,0,0,1-5.22-2.83,10.73,10.73,0,0,1-2.65-4.57,30.36,30.36,0,0,1-.79-8V95.83a23.55,23.55,0,0,1,1.44-9.18,11.05,11.05,0,0,1,5.2-5.3,20.31,20.31,0,0,1,9.59-2,24.48,24.48,0,0,1,8.42,1.29A13.55,13.55,0,0,1,107.75,84a11.39,11.39,0,0,1,2.62,4.25A23.38,23.38,0,0,1,111.07,94.91ZM96.5,91.73a12.2,12.2,0,0,0-.4-4.08,1.67,1.67,0,0,0-1.69-.84,1.77,1.77,0,0,0-1.74.84,11.65,11.65,0,0,0-.43,4.08v19a11.14,11.14,0,0,0,.43,3.89,2.11,2.11,0,0,0,3.41.08,9.4,9.4,0,0,0,.42-3.55Z" transform="translate(-9.13 -3.93)" style="fill: #231f20"/>
      <path d="M149.24,80.12v42.11H134.41l.25-3.5a9.68,9.68,0,0,1-3.73,3.2,11.67,11.67,0,0,1-5.11,1.06,12.92,12.92,0,0,1-5.44-1,7.12,7.12,0,0,1-3.19-2.7,9,9,0,0,1-1.29-3.51,67.8,67.8,0,0,1-.25-7.25V80.12h14.58v28.65a26.31,26.31,0,0,0,.34,5.84q.35.93,1.86.93c1.08,0,1.72-.32,1.93-1a32.75,32.75,0,0,0,.3-6.12V80.12Z" transform="translate(-9.13 -3.93)" style="fill: #231f20"/>

  </g>
</svg>
